Gidole-Regular.sfdir
StartChar: exclam
Encoding: 33 33 81
GlifName: exclam
Width: 460
VWidth: 0
Flags: W
HStem: -16 220<139.109 320.891>
VStem: 120 220<3.10925 184.891> 152 156<557.098 1416>
LayerCount: 3
Back
Fore
SplineSet
230 204 m 4xc0
 295 204 340 159 340 94 c 4
 340 29 295 -16 230 -16 c 4
 165 -16 120 29 120 94 c 4
 120 159 165 204 230 204 c 4xc0
152 1416 m 5xa0
 308 1416 l 5
 308 1051 l 6
 308 812 288 388 288 388 c 5
 172 388 l 5
 172 388 152 810 152 1051 c 6
 152 1416 l 5xa0
EndSplineSet
Layer: 2
EndChar
StartChar: numbersign
Encoding: 3 35 98
GlifName: numbersign
Width: 1230
VWidth: 0
Flags: W
HStem: -0 21G<224 367.663 674 817.663> 323 124<106 267 425 717 875 1036> 997 124<194 355 513 805 963 1124>
LayerCount: 3
Back
Fore
SplineSet
805 997 m 1
 496 997 l 1
 425 447 l 1
 734 447 l 1
 805 997 l 1
815 0 m 1
 674 0 l 1
 717 323 l 1
 408 323 l 1
 365 0 l 1
 224 -0 l 1
 267 323 l 1
 106 323 l 1
 106 447 l 1
 284 447 l 1
 355 997 l 1
 194 997 l 1
 194 1121 l 1
 372 1121 l 1
 411 1416 l 1
 552 1416 l 1
 513 1121 l 1
 822 1121 l 1
 861 1416 l 1
 1002 1416 l 1
 963 1121 l 1
 1124 1121 l 1
 1124 997 l 1
 946 997 l 1
 875 447 l 1
 1036 447 l 1
 1036 323 l 1
 858 323 l 1
 815 0 l 1
EndSplineSet
Layer: 2
EndChar
StartChar: dollar
Encoding: 36 36 97
Width: 550
VWidth: 0
Flags: W
HStem: -5 70<156.986 239 293 350.722> 601 71<183.618 239 293 367.467>
VStem: 65 74<428.943 556.793> 239 54<-70 -5 66 302 385 601 670.27 737> 402 74<115.294 250.552>
LayerCount: 4
Back
Fore
SplineSet
293 672 m 1
 354 668 411 649 456 602 c 1
 408 550 l 1
 376 582 335 597 293 602 c 1
 293 373 l 1
 387 352 476 305 476 186 c 0
 476 78 406 6 293 -5 c 1
 293 -70 l 1
 239 -70 l 1
 239 -5 l 1
 175 -2 113 17 63 65 c 1
 110 118 l 1
 147 85 193 69 239 65 c 1
 239 313 l 1
 151 332 65 381 65 488 c 0
 65 603 144 662 239 672 c 1
 239 737 l 1
 293 737 l 1
 293 672 l 1
239 601 m 1
 182 593 139 557 139 488 c 0
 139 429 183 400 239 385 c 1
 239 601 l 1
293 66 m 1
 361 76 402 118 402 186 c 0
 402 255 352 287 293 302 c 1
 293 66 l 1
EndSplineSet
Validated: 1
Layer: 2
Layer: 3
EndChar
StartChar: percent
Encoding: 37 37 97
GlifName: percent
Width: 1468
Flags: W
HStem: 0 118<1018.51 1215.49> 560 118<1018.51 1215.49> 754 118<252.508 449.492> 1314 118<252.508 449.492>
VStem: 90 132<899.917 1286.08> 480 132<899.917 1286.08> 856 132<145.917 532.083> 1246 132<145.917 532.083>
LayerCount: 3
Back
Fore
SplineSet
1117 560 m 4
 988 560 988 445 988 339 c 4
 988 233 988 118 1117 118 c 4
 1246 118 1246 233 1246 339 c 4
 1246 445 1246 560 1117 560 c 4
1117 678 m 4
 1199 678 1269 647 1312 598 c 4
 1377 524 1378 430 1378 339 c 4
 1378 248 1377 154 1312 80 c 4
 1269 31 1199 0 1117 0 c 4
 1035 0 965 31 922 80 c 4
 857 154 856 248 856 339 c 4
 856 430 857 524 922 598 c 4
 965 647 1035 678 1117 678 c 4
351 1314 m 4
 222 1314 222 1199 222 1093 c 4
 222 987 222 872 351 872 c 4
 480 872 480 987 480 1093 c 4
 480 1199 480 1314 351 1314 c 4
351 1432 m 4
 433 1432 503 1401 546 1352 c 4
 611 1278 612 1184 612 1093 c 4
 612 1002 611 908 546 834 c 4
 503 785 433 754 351 754 c 4
 269 754 199 785 156 834 c 4
 91 908 90 1002 90 1093 c 4
 90 1184 91 1278 156 1352 c 4
 199 1401 269 1432 351 1432 c 4
1061 1352 m 5
 1175 1280 l 5
 407 64 l 5
 293 136 l 5
 1061 1352 l 5
EndSplineSet
Validated: 1
Layer: 2
EndChar
StartChar: ampersand
Encoding: 38 38 104
Width: 602
Flags: W
HStem: -6 68<180.754 338.776> 0 70<472.142 547> 310 66<182.636 389 455 547> 605 68<183.948 348.338>
VStem: 60 72<110.793 263.434> 69 72<418.21 561.838> 389 66<106.831 310 376 471>
LayerCount: 4
Back
Fore
SplineSet
255 673 m 1xb6
 303 673 379 661 435 608 c 1
 393 554 l 1
 344 597 290 605 255 605 c 1
 180 605 141 555 141 490 c 0
 141 423 182 376 255 376 c 1
 389 376 l 1
 389 471 l 1
 455 471 l 1
 455 376 l 1
 547 376 l 1
 547 310 l 1
 455 310 l 1
 455 138 l 2
 455 81 502 70 537 70 c 2
 547 70 l 1
 547 0 l 1
 537 0 l 2x76
 502 0 446 1 413 55 c 1
 371 2 295 -6 255 -6 c 0
 130 -6 60 79 60 186 c 0xba
 60 259 97 315 146 344 c 1
 103 371 69 422 69 490 c 0
 69 593 135 673 255 673 c 1xb6
255 62 m 0xba
 284 62 338 64 389 130 c 1
 389 310 l 1
 255 310 l 1
 162 310 132 246 132 186 c 0
 132 115 174 62 255 62 c 0xba
EndSplineSet
Validated: 1
Layer: 2
Layer: 3
EndChar
StartChar: quotesingle
Encoding: 39 39 95
Width: 172
Flags: W
HStem: 456 211<56 117>
VStem: 56 61<456 667>
LayerCount: 4
Back
Fore
SplineSet
50 667 m 1
 122 667 l 1
 117 456 l 1
 56 456 l 1
 50 667 l 1
EndSplineSet
Validated: 1
Layer: 2
Layer: 3
EndChar
StartChar: parenleft
Encoding: 40 40 80
Width: 320
Flags: W
VStem: 80 60<0.706802 594.293>
LayerCount: 4
Back
Fore
SplineSet
254 795 m 1
 278 744 l 1
 235 725 201 692 180 651 c 0
 140 575 140 485 140 369 c 2
 140 226 l 2
 140 110 140 20 180 -56 c 0
 201 -97 235 -130 278 -149 c 1
 254 -200 l 1
 198 -176 153 -132 126 -80 c 0
 80 7 80 105 80 226 c 2
 80 369 l 2
 80 490 80 588 126 675 c 0
 153 727 198 771 254 795 c 1
EndSplineSet
Validated: 1
Layer: 2
Layer: 3
EndChar
StartChar: parenright
Encoding: 41 41 78
Width: 315
Flags: W
HStem: -185 58<40 80.3943> 722 58<40 85.1643>
VStem: 173 62<32.2057 569.706>
LayerCount: 4
Back
Fore
SplineSet
40 -185 m 1
 40 -127 l 1
 100 -127 173 4 173 205 c 2
 173 389 l 2
 173 591 110 722 40 722 c 1
 40 780 l 1
 137 780 235 633 235 389 c 2
 235 205 l 2
 235 -39 136 -185 40 -185 c 1
EndSplineSet
Validated: 1
Layer: 2
Layer: 3
EndChar
StartChar: asterisk
Encoding: 42 42 95
GlifName: asterisk
Width: 1003
VWidth: 0
Flags: W
VStem: 432 141<1185 1496>
LayerCount: 3
Back
Fore
SplineSet
861 1284 m 5
 903 1155 l 5
 609 1064 l 5
 796 815 l 5
 678 730 l 5
 502 981 l 5
 326 730 l 5
 208 815 l 5
 395 1064 l 5
 100 1155 l 5
 143 1284 l 5
 432 1184 l 5
 427 1496 l 5
 577 1496 l 5
 573 1185 l 5
 861 1284 l 5
EndSplineSet
Layer: 2
EndChar
StartChar: plus
Encoding: 43 43 83
GlifName: plus
Width: 520
Flags: W
HStem: 221 58<80 230 290 440>
VStem: 230 60<70 221 279 430>
LayerCount: 2
Back
Fore
SplineSet
80 279 m 1
 230 279 l 1
 230 430 l 1
 290 430 l 1
 290 279 l 1
 440 279 l 1
 440 221 l 1
 290 221 l 1
 290 70 l 1
 230 70 l 1
 230 221 l 1
 80 221 l 1
 80 279 l 1
EndSplineSet
EndChar
StartChar: comma
Encoding: 44 44 39
GlifName: comma
Width: 500
Flags: W
HStem: -250 454<205.391 245>
VStem: 140 220<4.77377 184.891>
LayerCount: 3
Back
Fore
SplineSet
250 204 m 0
 315 204 360 159 360 94 c 0
 360 69 355 52 336 0 c 2
 245 -250 l 1
 147 -250 l 1
 204 -7 l 1
 167 7 140 45 140 94 c 0
 140 159 185 204 250 204 c 0
EndSplineSet
Validated: 1
Layer: 2
EndChar
StartChar: hyphen
Encoding: 45 45 80
GlifName: hyphen
Width: 780
Flags: W
HStem: 474 134<140 640>
VStem: 140 500<474 608>
LayerCount: 2
Back
Fore
SplineSet
140 474 m 5
 140 608 l 5
 640 608 l 5
 640 474 l 5
 140 474 l 5
EndSplineSet
EndChar
StartChar: period
Encoding: 46 46 1
GlifName: period
Width: 500
VWidth: 0
Flags: W
HStem: -16 220<159.109 340.891>
VStem: 140 220<3.10925 184.891>
LayerCount: 3
Back
Fore
SplineSet
250 204 m 0
 315 204 360 159 360 94 c 0
 360 29 315 -16 250 -16 c 0
 185 -16 140 29 140 94 c 0
 140 159 185 204 250 204 c 0
EndSplineSet
Validated: 1
Layer: 2
EndChar
StartChar: slash
Encoding: 47 47 72
GlifName: slash
Width: 890
VWidth: 0
Flags: W
LayerCount: 3
Back
Fore
SplineSet
657 1416 m 5
 804 1416 l 5
 233 -90 l 5
 86 -90 l 5
 657 1416 l 5
EndSplineSet
Validated: 1
Layer: 2
Substitution2: "Single Substitution lookup 16 subtable" fraction
EndChar
StartChar: zero
Encoding: 48 48 2
GlifName: zero
Width: 534
Flags: W
HStem: -6 70<191.404 342.596> 602 70<191.404 342.596>
VStem: 65 74<120.615 545.385> 395 74<120.615 545.385>
LayerCount: 2
Back
Fore
SplineSet
267 602 m 0
 215 602 179 580 159 543 c 0
 139 506 139 461 139 333 c 0
 139 205 139 160 159 123 c 0
 179 86 215 64 267 64 c 0
 319 64 355 86 375 123 c 0
 395 160 395 205 395 333 c 0
 395 461 395 506 375 543 c 0
 355 580 319 602 267 602 c 0
267 672 m 0
 348 672 407 634 438 580 c 0
 469 526 469 478 469 333 c 0
 469 188 469 140 438 86 c 0
 407 32 348 -6 267 -6 c 0
 186 -6 127 32 96 86 c 0
 65 140 65 188 65 333 c 0
 65 478 65 526 96 580 c 0
 127 634 186 672 267 672 c 0
EndSplineSet
EndChar
StartChar: one
Encoding: 49 49 3
GlifName: one
Width: 361
Flags: W
HStem: 0 21G<187 261> 646 20G<157.339 261>
VStem: 187 74<0 581>
LayerCount: 2
Back
Fore
SplineSet
197 666 m 1
 261 666 l 1
 261 0 l 1
 187 0 l 1
 187 581 l 1
 113 542 l 1
 80 607 l 1
 197 666 l 1
EndSplineSet
EndChar
StartChar: two
Encoding: 50 50 4
GlifName: two
Width: 506
Flags: W
HStem: 0 70<165 446> 602 70<144.238 306.254>
VStem: 352 74<420.719 557.622>
LayerCount: 2
Back
Fore
SplineSet
446 70 m 1
 446 0 l 1
 60 0 l 1
 60 50 l 1
 295 369 l 2
 331 418 352 447 352 490 c 0
 352 552 309 602 232 602 c 0
 189 602 146 587 113 560 c 1
 73 619 l 1
 119 654 176 672 232 672 c 0
 347 672 426 594 426 490 c 0
 426 428 398 387 360 335 c 2
 165 70 l 1
 446 70 l 1
EndSplineSet
EndChar
StartChar: three
Encoding: 51 51 5
Width: 520
VWidth: 0
Flags: W
HStem: -6 70<137.57 313.729> 308 70<178 312.818> 603 70<135.894 309.301>
VStem: 357 74<421.45 557.591> 367 74<115.436 258.765>
LayerCount: 4
Back
Fore
SplineSet
229 673 m 4xf0
 355 673 431 601 431 490 c 4xf0
 431 426.110410072 403.0269903 374.935824553 354.963674682 344.358947226 c 5
 410.120184285 312.550654813 441 256.293467342 441 186 c 4
 441 70 364 -6 228 -6 c 4
 151 -6 92 19 56 61 c 5
 104 113 l 5
 129 84 171 64 228 64 c 4
 317 64 367 112 367 186 c 4xe8
 367 235.505671066 345.06713554 273.371927795 306.000004728 293.020647604 c 4
 278.30549169 306.949536561 248.142578125 308 206 308 c 6
 178 308 l 5
 178 378 l 5
 206 378 l 6
 246.330078125 378 275.511569238 378.973487913 301.999997024 393.057634796 c 4
 336.53207738 411.418667617 357 445.595424021 357 490 c 4
 357 559 309 603 229 603 c 4
 174 603 132 584 109 563 c 5
 66 618 l 5
 100 649 157 673 229 673 c 4xf0
EndSplineSet
Validated: 524289
Layer: 2
Layer: 3
EndChar
StartChar: four
Encoding: 52 52 6
GlifName: four
Width: 1102
Flags: W
HStem: 0 21G<716 872> 350 140<283 716 872 992>
VStem: 716 156<0 350 490 840>
LayerCount: 2
Back
Fore
SplineSet
992 490 m 5
 992 350 l 5
 872 350 l 5
 872 0 l 5
 716 0 l 5
 716 350 l 5
 110 350 l 1
 110 451 l 1
 524 1416 l 1
 681 1416 l 1
 283 490 l 1
 716 490 l 5
 716 840 l 5
 872 840 l 5
 872 490 l 5
 992 490 l 5
EndSplineSet
Substitution2: "'sups' Superscript lookup 35-1" uni2074
Substitution2: "'subs' Subscript lookup 34-1" uni2084
Substitution2: "'tnum' Tabular Numbers lookup 33-1" four.tab
Substitution2: "Single Substitution lookup 28 subtable" four.d
Substitution2: "Single Substitution lookup 26 subtable" four.n
Substitution2: "Single Substitution lookup 24 subtable" four.n
Substitution2: "Single Substitution lookup 22 subtable" four.n
Substitution2: "Single Substitution lookup 20 subtable" four.n
Substitution2: "Single Substitution lookup 18 subtable" four.n
Substitution2: "Single Substitution lookup 16 subtable" four.n
Substitution2: "Single Substitution lookup 14 subtable" four.n
Substitution2: "Single Substitution lookup 12 subtable" four.n
Substitution2: "Single Substitution lookup 10 subtable" four.n
Substitution2: "Single Substitution lookup 8 subtable" four.n
EndChar
StartChar: five
Encoding: 53 53 7
GlifName: five
Width: 1108
Flags: W
HStem: -19 140<379.175 697.051> 731 136<384.726 694.014> 1276 140<356 894>
VStem: 200 156<806 1276> 816 156<251.661 602.608>
LayerCount: 3
Back
Fore
SplineSet
894 1416 m 1
 894 1276 l 1
 356 1276 l 1
 356 806 l 1
 423 848 492 867 572 867 c 0
 750 867 972 726 972 426 c 0
 972 157 787 -19 549 -19 c 0
 384 -19 252 64 164 142 c 1
 260 250 l 1
 329 188 428 121 549 121 c 0
 720 121 816 259 816 426 c 0
 816 600 715 731 549 731 c 0
 462 731 385 694 322 653 c 1
 200 719 l 1
 200 1416 l 1
 894 1416 l 1
EndSplineSet
Validated: 1
Layer: 2
Substitution2: "Single Substitution lookup 40 subtable" five.d
Substitution2: "Single Substitution lookup 38 subtable" five.n
Substitution2: "Single Substitution lookup 36 subtable" five.n
Substitution2: "Single Substitution lookup 34 subtable" five.n
Substitution2: "Single Substitution lookup 32 subtable" five.n
Substitution2: "Single Substitution lookup 30 subtable" five.n
Substitution2: "Single Substitution lookup 28 subtable" five.n
Substitution2: "Single Substitution lookup 26 subtable" five.n
Substitution2: "Single Substitution lookup 24 subtable" five.n
Substitution2: "Single Substitution lookup 22 subtable" five.n
Substitution2: "Single Substitution lookup 20 subtable" five.n
Substitution2: "'dnom' Denominators subtable" five.d
Substitution2: "'numr' Numerators subtable" five.n
Substitution2: "'sups' subtable" five.sup
Substitution2: "'subs' subtable" five.sub
Substitution2: "'tnum' subtable" five.tab
EndChar
StartChar: six
Encoding: 54 54 8
Width: 510
Flags: W
HStem: -6 70<179.384 330.616> 346 70<195.58 330.616> 647 20G<238 325>
VStem: 60 74<111.663 297.916> 376 74<111.663 298.337>
LayerCount: 4
Back
Fore
SplineSet
376 205 m 0
 376 311 324 346 255 346 c 0
 186 346 134 311 134 205 c 0
 134 99 186 64 255 64 c 0
 324 64 376 99 376 205 c 0
194 406 m 1
 211 413 232 416 255 416 c 0
 362 416 450 359 450 205 c 0
 450 51 362 -6 255 -6 c 0
 148 -6 60 51 60 205 c 0
 60 267 70 311 121 413 c 2
 248 667 l 1
 325 667 l 1
 194 406 l 1
EndSplineSet
Validated: 1
Layer: 2
Layer: 3
EndChar
StartChar: seven
Encoding: 55 55 9
GlifName: seven
Width: 1068
Flags: W
HStem: 0 21G<250 425.245> 1276 140<106 777>
LayerCount: 3
Back
Fore
SplineSet
106 1276 m 5
 106 1416 l 5
 962 1416 l 5
 962 1322 l 5
 417 0 l 5
 250 0 l 5
 777 1276 l 5
 106 1276 l 5
EndSplineSet
Validated: 1
Layer: 2
Substitution2: "Single Substitution lookup 38 subtable" seven.d
Substitution2: "Single Substitution lookup 36 subtable" seven.n
Substitution2: "Single Substitution lookup 34 subtable" seven.n
Substitution2: "Single Substitution lookup 32 subtable" seven.n
Substitution2: "Single Substitution lookup 30 subtable" seven.n
Substitution2: "Single Substitution lookup 28 subtable" seven.n
Substitution2: "Single Substitution lookup 26 subtable" seven.n
Substitution2: "Single Substitution lookup 24 subtable" seven.n
Substitution2: "Single Substitution lookup 22 subtable" seven.n
Substitution2: "Single Substitution lookup 20 subtable" seven.n
Substitution2: "Single Substitution lookup 18 subtable" seven.n
Substitution2: "'dnom' Denominators subtable" seven.d
Substitution2: "'numr' Numerators subtable" seven.n
Substitution2: "'sups' subtable" uni2077.sup
Substitution2: "'subs' subtable" uni2087.sub
Substitution2: "'tnum' subtable" seven.tab
EndChar
StartChar: eight
Encoding: 56 56 10
Width: 520
Flags: W
HStem: -6 68<185.754 334.246> 310 66<187.636 332.364> 605 68<188.948 331.052>
VStem: 65 72<110.793 263.434> 74 72<418.21 561.838> 374 72<418.21 561.838> 383 72<110.793 263.434>
LayerCount: 4
Back
Fore
SplineSet
260 310 m 1xf2
 167 310 137 246 137 186 c 0
 137 115 179 62 260 62 c 0
 341 62 383 115 383 186 c 0
 383 246 353 310 260 310 c 1xf2
260 605 m 0
 185 605 146 555 146 490 c 0
 146 423 187 376 260 376 c 1
 333 376 374 423 374 490 c 0xec
 374 555 335 605 260 605 c 0
260 673 m 0
 380 673 446 593 446 490 c 0xec
 446 422 412 371 369 344 c 1
 418 315 455 259 455 186 c 0
 455 79 385 -6 260 -6 c 0
 135 -6 65 79 65 186 c 0xf2
 65 259 102 315 151 344 c 1
 108 371 74 422 74 490 c 0
 74 593 140 673 260 673 c 0
EndSplineSet
Validated: 1
Layer: 2
Layer: 3
EndChar
StartChar: nine
Encoding: 57 57 11
GlifName: nine
Width: 500
Flags: W
HStem: 0 21G<178 268.571> 250 70<177.732 301.366> 602 70<177.732 322.268>
VStem: 50 74<377.763 544.237> 376 74<376.63 544.237>
LayerCount: 2
Back
Fore
SplineSet
250 250 m 0
 130 250 50 343 50 461 c 0
 50 579 130 672 250 672 c 0
 370 672 450 579 450 461 c 2
 450 407 434 366 404 303 c 2
 259 0 l 1
 178 0 l 1
 303 261 l 1
 287 254 269 250 250 250 c 0
250 320 m 0
 323 320 376 372 376 461 c 0
 376 550 323 602 250 602 c 0
 177 602 124 550 124 461 c 0
 124 372 177 320 250 320 c 0
EndSplineSet
EndChar
StartChar: semicolon
Encoding: 59 59 40
Width: 202
VWidth: 0
Flags: W
HStem: 283 102<58.2266 143.773>
VStem: 50 102<2.13565 87.877 291.227 376.773>
LayerCount: 4
Back
Fore
SplineSet
101 385 m 0
 131 385 152 364 152 334 c 0
 152 304 131 283 101 283 c 0
 71 283 50 304 50 334 c 0
 50 364 71 385 101 385 c 0
101 96 m 0
 126 96 152 80 152 45 c 0
 152 39 151 23 143 0 c 2
 98 -121 l 1
 53 -121 l 1
 82 -3 l 1
 64 3 50 19 50 45 c 0
 50 80 76 96 101 96 c 0
EndSplineSet
Validated: 1
Layer: 2
Layer: 3
EndChar
StartChar: less
Encoding: 60 60 105
GlifName: less
Width: 520
Flags: W
LayerCount: 2
Back
Fore
SplineSet
449 394 m 1
 157 250 l 1
 449 106 l 1
 421 54 l 1
 80 224 l 1
 80 276 l 1
 421 446 l 1
 449 394 l 1
EndSplineSet
EndChar
StartChar: equal
Encoding: 61 61 82
GlifName: equal
Width: 520
Flags: W
HStem: 153 58<80 440> 289 58<80 440>
LayerCount: 2
Back
Fore
SplineSet
80 347 m 1
 440 347 l 1
 440 289 l 1
 80 289 l 1
 80 347 l 1
80 211 m 1
 440 211 l 1
 440 153 l 1
 80 153 l 1
 80 211 l 1
EndSplineSet
EndChar
StartChar: greater
Encoding: 62 62 106
GlifName: greater
Width: 520
Flags: W
LayerCount: 2
Back
Fore
SplineSet
71 394 m 1
 99 446 l 1
 440 276 l 1
 440 224 l 1
 99 54 l 1
 71 106 l 1
 363 250 l 1
 71 394 l 1
EndSplineSet
EndChar
StartChar: question
Encoding: 63 63 43
Width: 473
VWidth: 0
Flags: W
HStem: -6 102<180.227 265.773> 603 70<117.894 291.301>
VStem: 172 102<2.22656 87.7734> 191 62<180.028 293.205> 339 74<421.553 557.591>
LayerCount: 4
Back
Fore
SplineSet
223 96 m 0xe8
 253 96 274 75 274 45 c 0
 274 15 253 -6 223 -6 c 0
 193 -6 172 15 172 45 c 0
 172 75 193 96 223 96 c 0xe8
413 490 m 0
 413 421 382 373 331 341 c 0
 280 309 255 280 253 228 c 2
 251 180 l 1
 193 180 l 1
 193 180 191 219 191 239 c 0xd8
 191 305 220 353 281 390 c 0
 316 411 339 441 339 490 c 0
 339 559 291 603 211 603 c 0
 156 603 114 584 91 563 c 1
 48 618 l 1
 82 649 139 673 211 673 c 0
 337 673 413 601 413 490 c 0
EndSplineSet
Validated: 1
Layer: 2
Layer: 3
EndChar
StartChar: at
Encoding: 64 64 116
Width: 865
Flags: W
HStem: -183 62<210.861 654.139> -6 66<341.716 489.878> 229 62<343.342 534> 419 62<210.861 496.991> 604 62<282 589.708>
VStem: 75 66<-50.9117 348.912> 241 70<89.4802 198.679> 534 70<0 46 104.553 229 291 382.566> 724 66<-50.9117 470.421>
LayerCount: 4
Back
Fore
SplineSet
311 143 m 0
 311 119 321 98 338 84 c 0
 360 66 386 60 414 60 c 0
 453 60 490 73 511 103 c 0
 534 136 534 178 534 229 c 1
 479 229 l 2
 405 229 371 229 341 206 c 0
 324 193 311 171 311 143 c 0
604 266 m 9
 604 0 l 1
 534 0 l 1
 534 46 l 1
 503 14 463 -6 414 -6 c 0
 363 -6 320 10 291 35 c 0
 261 61 241 97 241 143 c 0
 241 188 262 229 298 255 c 0
 348 291 398 291 479 291 c 2
 534 291 l 1
 534 328 534 371 497 398 c 0
 468 419 429 419 360 419 c 2
 358 419 l 2
 280 419 218 419 177 371 c 0
 141 329 141 275 141 200 c 2
 141 98 l 2
 141 23 141 -31 177 -73 c 0
 218 -121 280 -121 358 -121 c 2
 507 -121 l 2
 585 -121 647 -121 688 -73 c 0
 724 -31 724 23 724 98 c 2
 724 285 l 2
 724 381 724 469 664 534 c 0
 599 604 508 604 407 604 c 2
 282 604 l 1
 282 666 l 1
 407 666 l 2
 507 666 613 666 695 593 c 0
 790 508 790 394 790 285 c 2
 790 98 l 2
 790 15 790 -57 735 -117 c 0
 674 -183 589 -183 507 -183 c 2
 358 -183 l 2
 276 -183 191 -183 130 -117 c 0
 75 -57 75 15 75 98 c 2
 75 200 l 2
 75 283 75 355 130 415 c 0
 191 481 276 481 358 481 c 2
 360 481 l 2
 437 481 495 481 544 444 c 0
 604 399 604 332 604 266 c 9
EndSplineSet
Validated: 1
Layer: 2
Layer: 3
EndChar
StartChar: A
Encoding: 65 65 13
GlifName: A_
Width: 1150
Flags: W
HStem: 0 21G<20 189.491 960.509 1130> 342 140<340 810>
AnchorPoint: "Center" 575 1380 basechar 0
AnchorPoint: "Bottom" 1055 0 basechar 0
AnchorPoint: "Top" 575 1416 basechar 0
LayerCount: 2
Back
Fore
SplineSet
810 482 m 1
 575 1205 l 1
 340 482 l 1
 810 482 l 1
500 1416 m 1
 650 1416 l 1
 1130 0 l 1
 967 0 l 1
 856 342 l 1
 294 342 l 1
 183 0 l 1
 20 0 l 1
 500 1416 l 1
EndSplineSet
EndChar
StartChar: B
Encoding: 66 66 14
Width: 540
Flags: W
HStem: 0 70<149 365.348> 308 70<149 353.092> 596 70<149 351.529>
VStem: 75 74<70 308 378 596> 391 74<417.143 556.242> 411 74<114.888 263.237>
LayerCount: 4
Back
Fore
SplineSet
411 189 m 4xf4
 411 220 402 254 375 280 c 4
 345 307 314 308 243 308 c 6
 149 308 l 1
 149 70 l 1
 243 70 l 6
 314 70 345 71 375 98 c 4
 402 124 411 158 411 189 c 4xf4
149 596 m 1
 149 378 l 1
 234 378 l 6
 304 378 332 380 358 404 c 4
 381 426 391 456 391 487 c 4xf8
 391 518 381 548 358 570 c 4
 332 594 304 596 234 596 c 6
 149 596 l 1
75 666 m 1
 234 666 l 6
 314 666 359 663 404 625 c 4
 440 595 465 546 465 487 c 4xf8
 465 426 439 378 398 348 c 5
 451 317 485 262 485 189 c 4xf4
 485 129 460 75 421 43 c 4
 372 2 327 -1.01645684329e-14 244 0 c 6
 75 0 l 1
 75 666 l 1
EndSplineSet
Validated: 1
Layer: 2
Layer: 3
EndChar
StartChar: C
Encoding: 67 67 15
GlifName: C_
Width: 534
Flags: W
HStem: -6 70<207.962 380.188> 602 70<208.241 378.575>
VStem: 65 74<137.4 529.048>
AnchorPoint: "DoubleTop" 0 0 basechar 0
AnchorPoint: "Apos" 0 0 basechar 0
AnchorPoint: "Center" 0 0 basechar 0
AnchorPoint: "Bottom" 290 0 basechar 0
AnchorPoint: "Top" 290 666 basechar 0
LayerCount: 2
Back
Fore
SplineSet
290 672 m 0
 362 672 425 644 465 605 c 1
 420 550 l 1
 391 580 346 602 290 602 c 0
 241 602 200 584 175 552 c 0
 139 506 139 448 139 333 c 0
 139 218 139 161 174 115 c 0
 198 84 237 64 290 64 c 0
 348 64 398 88 428 123 c 1
 479 73 l 1
 438 28 369 -6 290 -6 c 0
 210 -6 150 27 114 74 c 0
 65 138 65 208 65 333 c 0
 65 454 65 529 115 593 c 0
 150 638 210 672 290 672 c 0
EndSplineSet
EndChar
StartChar: D
Encoding: 68 68 17
Width: 570
VWidth: 0
Flags: W
HStem: 0 70<149 383.125> 597 70<149 383.125>
VStem: 75 74<70 597> 431 74<116.224 550.776>
AnchorPoint: "DoubleTop" 0 0 basechar 0
AnchorPoint: "Apos" 0 0 basechar 0
AnchorPoint: "Center" -5 0 basechar 0
AnchorPoint: "Bottom" 277 0 basechar 0
AnchorPoint: "Top" 280 667 basechar 0
LayerCount: 4
Back
Fore
SplineSet
149 597 m 1
 149 70 l 1
 300 70 l 2
 358 70 396 90 415 123 c 0
 431 150 431 179 431 219 c 2
 431 448 l 2
 431 488 431 517 415 544 c 0
 396 577 358 597 300 597 c 2
 149 597 l 1
75 667 m 1
 300 667 l 18
 405 667 471 617 495 544 c 0
 505 515 505 486 505 448 c 2
 505 219 l 2
 505 181 505 152 495 123 c 0
 471 50 405 0 300 0 c 10
 75 0 l 1
 75 667 l 1
EndSplineSet
Validated: 1
Layer: 2
Layer: 3
EndChar
StartChar: E
Encoding: 69 69 18
GlifName: E_
Width: 510
Flags: W
HStem: 0 70<149 445> 308 70<149 385> 596 70<149 445>
VStem: 75 74<70 308 378 596>
LayerCount: 4
Back
Fore
SplineSet
75 666 m 5
 445 666 l 5
 445 596 l 5
 149 596 l 5
 149 378 l 5
 385 378 l 5
 385 308 l 5
 149 308 l 5
 149 70 l 5
 445 70 l 5
 445 0 l 5
 75 0 l 5
 75 666 l 5
EndSplineSet
Validated: 1
Layer: 2
Layer: 3
EndChar
StartChar: F
Encoding: 70 70 19
Width: 504
VWidth: 0
Flags: W
HStem: 0 21G<85 159> 308 70<159 394> 597 70<159 444>
VStem: 85 74<0 308 378 597>
LayerCount: 4
Back
Fore
SplineSet
85 667 m 1
 444 667 l 1
 444 597 l 1
 159 597 l 1
 159 378 l 1
 394 378 l 1
 394 308 l 1
 159 308 l 1
 159 0 l 1
 85 0 l 1
 85 667 l 1
EndSplineSet
Layer: 2
Layer: 3
EndChar
StartChar: G
Encoding: 71 71 28
Width: 580
VWidth: 0
Flags: W
HStem: -6 70<198.637 381.449> 287 70<303 441> 603 70<198.637 385.266>
VStem: 65 74<126.192 540.808> 441 74<124.401 287>
AnchorPoint: "DoubleTop" 0 0 basechar 0
AnchorPoint: "Apos" 0 0 basechar 0
AnchorPoint: "Center" 0 0 basechar 0
AnchorPoint: "Bottom" 290 0 basechar 0
AnchorPoint: "Top" 290 667 basechar 0
LayerCount: 4
Back
Fore
SplineSet
290 673 m 0
 361 673 426 656 475 602 c 1
 427 550 l 1
 391 589 342 603 290 603 c 0
 214 603 168 575 149 518 c 0
 141 493 139 470 139 438 c 1
 139 229 l 1
 139 197 141 174 149 149 c 0
 168 92 214 64 290 64 c 0
 366 64 412 92 431 149 c 0
 439 173 441 197 441 229 c 1
 441 287 l 1
 303 287 l 1
 303 357 l 1
 515 357 l 9
 515 229 l 1
 515 199 514 175 508 150 c 0
 486 48 411 -6 290 -6 c 0
 169 -6 95 48 72 149 c 0
 66 174 65 199 65 229 c 1
 65 438 l 1
 65 468 66 493 72 518 c 0
 95 619 169 673 290 673 c 0
EndSplineSet
Validated: 1
Layer: 2
Layer: 3
EndChar
StartChar: H
Encoding: 40 72 20
GlifName: H_
Width: 1240
VWidth: 0
Flags: W
HStem: 0 21G<160 316 924 1080> 652 140<316 924>
VStem: 160 156<0 652 792 1416> 924 156<0 652 792 1416>
AnchorPoint: "Bottom" 610 0 basechar 0
AnchorPoint: "Top" 620 1416 basechar 0
LayerCount: 3
Back
Fore
SplineSet
160 1416 m 1
 316 1416 l 1
 316 792 l 1
 924 792 l 1
 924 1416 l 1
 1080 1416 l 1
 1080 0 l 1
 924 0 l 1
 924 652 l 1
 316 652 l 1
 316 0 l 1
 160 0 l 1
 160 1416 l 1
EndSplineSet
Layer: 2
EndChar
StartChar: I
Encoding: 73 73 21
Width: 244
VWidth: 0
Flags: W
HStem: 0 21G<85 159> 647 20G<85 159>
VStem: 85 74<0 667>
AnchorPoint: "Center" 5 0 basechar 0
AnchorPoint: "Bottom" 122 0 basechar 0
AnchorPoint: "Top" 122 667 basechar 0
LayerCount: 4
Back
Fore
SplineSet
159 667 m 1
 159 0 l 1
 85 0 l 1
 85 667 l 1
 159 667 l 1
EndSplineSet
Layer: 2
Layer: 3
EndChar
StartChar: J
Encoding: 74 74 22
Width: 481
VWidth: 0
Flags: W
HStem: -6 70<146.811 283.411> 647 20G<332 406>
VStem: 332 74<118.264 667>
AnchorPoint: "Center" 10 0 basechar 0
AnchorPoint: "Bottom" 221 0 basechar 0
AnchorPoint: "Top" 369 730 basechar 0
LayerCount: 4
Back
Fore
SplineSet
332 667 m 1
 406 667 l 1
 406 200 l 2
 406 59 310 -6 221 -6 c 0
 193 -6 112 -6 40 88 c 1
 97 132 l 1
 149 64 199 64 221 64 c 0
 273 64 332 107 332 200 c 2
 332 667 l 1
EndSplineSet
Layer: 2
Layer: 3
Substitution2: "'salt' Stylistic Alternatives lookup 0-1" J.alt
EndChar
StartChar: K
Encoding: 75 75 34
GlifName: K_
Width: 565
Flags: W
HStem: 0 21G<75 149 421.492 525> 646 20G<75 149 403.538 505>
VStem: 75 74<0 192 294 666>
AnchorPoint: "DoubleTop" 0 0 basechar 0
AnchorPoint: "Apos" 0 0 basechar 0
AnchorPoint: "Top" -5 0 basechar 0
AnchorPoint: "Center" -5 0 basechar 0
AnchorPoint: "Bottom" 285 0 basechar 0
LayerCount: 2
Back
Fore
SplineSet
525 0 m 1
 436 0 l 1
 222 295 l 1
 149 192 l 1
 149 0 l 1
 75 0 l 1
 75 666 l 1
 149 666 l 1
 149 294 l 1
 418 666 l 1
 505 666 l 1
 273 347 l 1
 525 0 l 1
EndSplineSet
EndChar
StartChar: L
Encoding: 76 76 23
GlifName: L_
Width: 480
Flags: W
HStem: 0 70<149 425> 646 20G<75 149>
VStem: 75 74<70 666>
AnchorPoint: "DoubleTop" 0 0 basechar 0
AnchorPoint: "Apos" 212 666 basechar 0
AnchorPoint: "Bottom" 265 0 basechar 0
AnchorPoint: "Center" 265 334 basechar 0
AnchorPoint: "Top" 113 666 basechar 0
LayerCount: 2
Back
Fore
SplineSet
75 666 m 1
 149 666 l 1
 149 70 l 1
 425 70 l 1
 425 0 l 1
 75 0 l 1
 75 666 l 1
EndSplineSet
EndChar
StartChar: M
Encoding: 77 77 27
Width: 737
VWidth: 0
Flags: W
HStem: 0 21G<85 157 580 652> 647 20G<85 158.377 577.623 652>
VStem: 85 72<0 511> 580 72<0 513>
LayerCount: 4
Back
Fore
SplineSet
85 667 m 1
 148 667 l 1
 368 243 l 1
 588 667 l 1
 652 667 l 1
 652 0 l 1
 580 0 l 1
 580 513 l 1
 400 165 l 1
 336 165 l 1
 157 511 l 1
 157 0 l 1
 85 0 l 1
 85 667 l 1
EndSplineSet
Layer: 2
Layer: 3
EndChar
StartChar: N
Encoding: 78 78 33
Width: 610
VWidth: 0
Flags: W
HStem: 0 21G<85 159 448.423 525> 647 20G<85 161.577 451 525>
VStem: 85 74<0 520> 451 74<147 667>
AnchorPoint: "Center" 7 0 basechar 0
AnchorPoint: "Bottom" 307 0 basechar 0
AnchorPoint: "Top" 305 667 basechar 0
LayerCount: 4
Back
Fore
SplineSet
85 667 m 1
 150 667 l 1
 451 147 l 1
 451 667 l 1
 525 667 l 1
 525 0 l 1
 460 0 l 1
 159 520 l 1
 159 0 l 1
 85 0 l 1
 85 667 l 1
EndSplineSet
Layer: 2
Layer: 3
EndChar
StartChar: O
Encoding: 79 79 16
Width: 600
VWidth: 0
Flags: W
HStem: -6 70<203.821 396.179> 603 70<203.821 396.179>
VStem: 65 74<126.32 540.68> 461 74<126.32 540.68>
AnchorPoint: "Center" 0 0 basechar 0
AnchorPoint: "Bottom" 300 0 basechar 0
AnchorPoint: "Top" 300 667 basechar 0
LayerCount: 4
Back
Fore
SplineSet
535 204 m 18
 535 47 417 -6 300 -6 c 1
 183 -6 65 47 65 204 c 10
 65 463 l 18
 65 620 183 673 300 673 c 1
 417 673 535 620 535 463 c 10
 535 204 l 18
139 204 m 18
 139 96 219 64 300 64 c 1
 381 64 461 96 461 204 c 10
 461 463 l 18
 461 571 381 603 300 603 c 1
 219 603 139 571 139 463 c 10
 139 204 l 18
EndSplineSet
Layer: 2
Layer: 3
EndChar
StartChar: P
Encoding: 80 80 31
Width: 522
VWidth: 0
Flags: W
HStem: 0 21G<75 148> 257 70<149 343.812> 597 70<149 343.812>
VStem: 75 74<0 257 327 597> 393 74<376.852 547.148>
LayerCount: 4
Back
Fore
SplineSet
262 327 m 0
 343 327 393 366 393 462 c 0
 393 558 343 597 262 597 c 0
 149 597 l 1
 149 327 l 1
 262 327 l 0
262 667 m 0
 380 667 467 606 467 462 c 0
 467 318 380 257 262 257 c 0
 148 257 l 1
 148 0 l 1
 75 0 l 1
 75 667 l 1
 262 667 l 0
EndSplineSet
Validated: 1
Layer: 2
Layer: 3
EndChar
StartChar: Q
Encoding: 81 81 30
GlifName: Q_
Width: 600
Flags: W
HStem: -6 70<214.112 375.158> 602 70<214.112 385.888>
VStem: 65 74<142.793 523.207> 461 74<142.793 523.207>
LayerCount: 4
Back
Fore
SplineSet
65 333 m 0
 65 439 65 500 97 560 c 0
 134 629 207 672 300 672 c 0
 393 672 466 629 503 560 c 0
 535 500 535 439 535 333 c 0
 535 227 535 166 503 106 c 0
 487 76 465 53 438 35 c 1
 544 -36 l 1
 507 -95 l 1
 364 2 l 1
 344 -4 323 -6 300 -6 c 0
 207 -6 134 37 97 106 c 0
 65 166 65 227 65 333 c 0
139 333 m 0
 139 237 139 182 164 136 c 0
 188 92 236 64 300 64 c 0
 364 64 412 92 436 136 c 0
 461 182 461 237 461 333 c 0
 461 429 461 484 436 530 c 0
 412 574 364 602 300 602 c 0
 236 602 188 574 164 530 c 0
 139 484 139 429 139 333 c 0
EndSplineSet
Validated: 1
Layer: 2
Layer: 3
EndChar
StartChar: R
Encoding: 82 82 32
Width: 550
Flags: W
HStem: 0 21G<75 149 396.737 485> 257 70<149 297.157> 597 70<149 346.961>
VStem: 75 74<0 257 327 597> 401 74<382.316 542.502>
AnchorPoint: "DoubleTop" 0 0 basechar 0
AnchorPoint: "Apos" 0 0 basechar 0
AnchorPoint: "Center" -5 0 basechar 0
AnchorPoint: "Bottom" 277 0 basechar 0
AnchorPoint: "Top" 255 667 basechar 0
LayerCount: 4
Back
Fore
SplineSet
75 667 m 1
 248 667 l 2
 289 667 348 667 402 624 c 0
 443 592 475 535 475 462 c 0
 475 374 430 309 367 278 c 1
 485 0 l 1
 405 0 l 1
 298 259 l 1
 280 257 263 257 248 257 c 2
 149 257 l 1
 149 0 l 1
 75 0 l 1
 75 667 l 1
149 597 m 1
 149 327 l 1
 248 327 l 2
 283 327 321 327 355 354 c 0
 381 375 401 413 401 462 c 0
 401 511 381 549 355 570 c 0
 321 597 283 597 248 597 c 2
 149 597 l 1
EndSplineSet
Validated: 1
Layer: 2
Layer: 3
EndChar
StartChar: S
Encoding: 83 83 35
Width: 508
VWidth: 0
Flags: W
HStem: -6 70<141.075 329.95> 603 70<167.354 346.54>
VStem: 47 74<428.628 557.829> 384 74<114.577 250.015>
AnchorPoint: "DoubleTop" -8 0 basechar 0
AnchorPoint: "Apos" -8 0 basechar 0
AnchorPoint: "Center" -8 0 basechar 0
AnchorPoint: "Bottom" 248 0 basechar 0
AnchorPoint: "Top" 248 667 basechar 0
LayerCount: 4
Back
Fore
SplineSet
248 673 m 0
 319 673 386 656 438 602 c 1
 390 550 l 1
 351 589 300 603 248 603 c 0
 178 603 121 567 121 488 c 0
 121 417 184 390 255 377 c 0
 356 358 458 313 458 186 c 0
 458 69 375 -6 245 -6 c 0
 172 -6 101 11 45 65 c 1
 92 118 l 1
 135 79 191 64 245 64 c 0
 330 64 384 109 384 186 c 0
 384 268 314 297 241 309 c 0
 146 325 47 373 47 488 c 0
 47 614 142 673 248 673 c 0
EndSplineSet
Validated: 1
Layer: 2
Layer: 3
EndChar
StartChar: T
Encoding: 84 84 29
GlifName: T_
Width: 1008
VWidth: 0
Flags: W
HStem: 0 21G<426 582> 1277 140<40 426 582 968>
VStem: 426 156<0 1277>
AnchorPoint: "Bottom" 504 0 basechar 0
AnchorPoint: "Top" 504 1416 basechar 0
LayerCount: 3
Back
Fore
SplineSet
40 1417 m 1
 968 1417 l 1
 968 1277 l 1
 582 1277 l 1
 582 0 l 1
 426 0 l 1
 426 1277 l 1
 40 1277 l 1
 40 1417 l 1
EndSplineSet
Validated: 1048577
Layer: 2
EndChar
StartChar: U
Encoding: 85 85 24
Width: 570
Flags: W
HStem: -6 70<205.732 364.268> 646 20G<70 144 426 500>
VStem: 70 74<129.499 666> 426 74<129.499 666>
AnchorPoint: "DoubleTop" 0 0 basechar 0
AnchorPoint: "Apos" 0 0 basechar 0
AnchorPoint: "Center" 0 0 basechar 0
AnchorPoint: "Bottom" 283 0 basechar 0
AnchorPoint: "Top" 285 666 basechar 0
LayerCount: 4
Back
Fore
SplineSet
70 666 m 5
 144 666 l 5
 144 289 l 6
 144 201 144 147 183 104 c 4
 205 80 241 64 285 64 c 4
 329 64 365 80 387 104 c 4
 426 147 426 201 426 289 c 6
 426 666 l 5
 500 666 l 5
 500 289 l 6
 500 203 500 118 443 58 c 4
 407 20 353 -6 285 -6 c 4
 217 -6 163 20 127 58 c 4
 70 118 70 203 70 289 c 6
 70 666 l 5
EndSplineSet
Validated: 1
Layer: 2
Layer: 3
EndChar
StartChar: V
Encoding: 86 86 25
Width: 610
Flags: W
HStem: 0 21G<265.864 344.136> 647 20G<35 118.881 492.084 575>
LayerCount: 4
Back
Fore
SplineSet
35 667 m 1
 112 667 l 1
 305 106 l 1
 499 667 l 1
 575 667 l 1
 337 0 l 1
 273 0 l 1
 35 667 l 1
EndSplineSet
Validated: 1
Layer: 2
Layer: 3
EndChar
StartChar: W
Encoding: 87 87 26
Width: 800
VWidth: 0
Flags: W
HStem: 0 21G<203.783 281.41 518.59 596.217> 647 20G<35 114.681 685.311 765>
VStem: 35 75<640.167 667> 690 75<640.167 667>
AnchorPoint: "DoubleTop" 0 0 basechar 0
AnchorPoint: "Apos" 0 0 basechar 0
AnchorPoint: "Bottom" 10 0 basechar 0
AnchorPoint: "Center" 10 0 basechar 0
AnchorPoint: "Top" 400 667 basechar 0
LayerCount: 4
Back
Fore
SplineSet
35 667 m 1
 110 667 l 1
 242 103 l 1
 368 502 l 1
 432 502 l 1
 558 104 l 1
 690 667 l 1
 765 667 l 1
 591 0 l 1
 525 0 l 1
 400 390 l 1
 275 0 l 1
 209 0 l 1
 35 667 l 1
EndSplineSet
Validated: 1
Layer: 2
Layer: 3
EndChar
StartChar: X
Encoding: 88 88 36
GlifName: X_
Width: 1034
Flags: W
HStem: 0 21G<20 205.769 828.231 1014>
LayerCount: 3
Back
Fore
SplineSet
35 1416 m 5
 210 1416 l 1
 517 846 l 1
 824 1416 l 1
 999 1416 l 1
 605 722 l 1
 1014 0 l 1
 839 0 l 1
 517 598 l 1
 195 0 l 1
 20 0 l 1
 429 722 l 1
 35 1416 l 5
EndSplineSet
Validated: 1
Layer: 2
EndChar
StartChar: Y
Encoding: 89 89 37
GlifName: Y_
Width: 510
VWidth: 0
Flags: W
HStem: 0 21G<218 292> 646 20G<20 110.194 399.806 490>
VStem: 218 74<0 250>
AnchorPoint: "DoubleTop" -15 0 basechar 0
AnchorPoint: "Apos" -15 0 basechar 0
AnchorPoint: "Bottom" -5 0 basechar 0
AnchorPoint: "Center" -5 0 basechar 0
AnchorPoint: "Top" 255 666 basechar 0
LayerCount: 4
Back
Fore
SplineSet
20 666 m 5
 101 666 l 5
 255 331 l 5
 409 666 l 5
 490 666 l 5
 292 250 l 5
 292 0 l 5
 218 0 l 5
 218 250 l 5
 20 666 l 5
EndSplineSet
Validated: 1
Layer: 2
Layer: 3
EndChar
StartChar: Z
Encoding: 90 90 38
GlifName: Z_
Width: 530
VWidth: 0
Flags: W
HStem: 0 70<147 470> 596 70<70 372>
AnchorPoint: "DoubleTop" 0 0 basechar 0
AnchorPoint: "Apos" 0 0 basechar 0
AnchorPoint: "Center" 5 0 basechar 0
AnchorPoint: "Bottom" 270 0 basechar 0
AnchorPoint: "Top" 270 666 basechar 0
LayerCount: 4
Back
Fore
SplineSet
70 666 m 1
 460 666 l 5
 460 616 l 5
 147 70 l 1
 470 70 l 5
 470 0 l 5
 60 0 l 1
 60 50 l 1
 372 596 l 5
 70 596 l 1
 70 666 l 1
EndSplineSet
Validated: 1
Layer: 2
Layer: 3
EndChar
StartChar: bracketleft
Encoding: 91 91 71
GlifName: bracketleft
Width: 289
VWidth: 0
Flags: W
HStem: -185 56<145 239> 724 56<145 239>
VStem: 85 154<-185 -129 724 780> 85 60<-129 724>
LayerCount: 2
Back
Fore
SplineSet
85 780 m 1xe0
 239 780 l 1
 239 724 l 1xe0
 145 724 l 1
 145 -129 l 1xd0
 239 -129 l 1
 239 -185 l 1
 85 -185 l 1
 85 780 l 1xe0
EndSplineSet
EndChar
StartChar: backslash
Encoding: 92 92 66
GlifName: backslash
Width: 890
VWidth: 0
Flags: W
LayerCount: 3
Back
Fore
SplineSet
86 1416 m 1
 233 1416 l 1
 804 -90 l 1
 657 -90 l 1
 86 1416 l 1
EndSplineSet
Validated: 1
Layer: 2
EndChar
StartChar: bracketright
Encoding: 93 93 50
Width: 269
VWidth: 0
Flags: W
HStem: -184 57<30 124> 609 57<30 124>
VStem: 30 154<-184 -127 609 666> 124 60<-127 609>
LayerCount: 4
Back
Fore
SplineSet
30 666 m 5xe0
 184 666 l 5
 184 -184 l 1
 30 -184 l 1
 30 -127 l 1xe0
 124 -127 l 1
 124 609 l 5xd0
 30 609 l 5
 30 666 l 5xe0
EndSplineSet
Layer: 2
Layer: 3
EndChar
StartChar: asciicircum
Encoding: 94 94 113
Width: 398
Flags: W
HStem: 546 121
VStem: 50 298
LayerCount: 4
Back
Fore
SplineSet
199 619 m 1
 120 546 l 1
 50 546 l 1
 181 667 l 1
 217 667 l 1
 348 546 l 1
 278 546 l 1
 199 619 l 1
EndSplineSet
Layer: 2
Layer: 3
EndChar
StartChar: underscore
Encoding: 95 95 129
GlifName: underscore
Width: 800
Flags: W
HStem: -150 150<10 790>
LayerCount: 3
Back
Fore
SplineSet
10 0 m 1
 790 0 l 1
 790 -150 l 5
 10 -150 l 5
 10 0 l 1
EndSplineSet
Validated: 1
Layer: 2
EndChar
StartChar: grave
Encoding: 96 96 111
Width: 252
Flags: W
HStem: 546 121
VStem: 50 152
AnchorPoint: "Top" 156 477 mark 0
LayerCount: 4
Back
Fore
SplineSet
50 667 m 25
 127 667 l 25
 202 546 l 1
 136 546 l 1
 50 667 l 25
EndSplineSet
Layer: 2
Layer: 3
EndChar
StartChar: a
Encoding: 97 97 47
Width: 463
VWidth: 0
Flags: W
HStem: -6 65<143.27 284.489> 233 61<151.742 335> 419 64<128.403 297.406>
VStem: 45 68<87.8244 197.43> 335 68<0 52 110.406 231.079 289 379.261>
AnchorPoint: "Center" -15 0 basechar 0
AnchorPoint: "Bottom" 369 0 basechar 0
AnchorPoint: "Top" 228 476 basechar 0
LayerCount: 4
Back
Fore
SplineSet
335 289 m 1
 335 299 335 326 327 352 c 0
 309 407 266 419 230 419 c 0
 187 419 145 409 109 387 c 1
 75 442 l 1
 117 469 169 483 230 483 c 0
 297 483 374 456 397 352 c 0
 403 325 403 299 403 261 c 2
 403 0 l 1
 335 0 l 1
 335 52 l 1
 303 19 265 -6 202 -6 c 0
 115 -6 45 53 45 143 c 0
 45 250 131 294 256 294 c 0
 278 294 309 293 335 289 c 1
335 229 m 1
 309 232 285 233 264 233 c 0
 202 233 113 225 113 143 c 0
 113 94 150 59 210 59 c 0
 260 59 310 82 328 143 c 0
 334 164 335 183 335 210 c 2
 335 229 l 1
EndSplineSet
Validated: 1048577
Layer: 2
SplineSet
405 268 m 0
 405 209 l 0
 405 185 405 167 402 149 c 0
 386 54 314 -6 210 -6 c 0
 106 -6 34 54 18 149 c 0
 15 167 15 185 15 209 c 0
 15 268 l 0
 15 292 15 310 18 328 c 0
 34 423 106 483 210 483 c 0
 314 483 386 423 402 328 c 0
 405 310 405 292 405 268 c 0
335 268 m 0
 335 292 335 311 330 328 c 0
 316 383 272 417 210 417 c 0
 148 417 104 383 90 328 c 0
 85 311 85 292 85 268 c 0
 85 209 l 0
 85 185 85 166 90 149 c 0
 104 94 148 60 210 60 c 0
 272 60 316 94 330 149 c 0
 335 166 335 185 335 209 c 0
 335 268 l 0
EndSplineSet
Layer: 3
SplineSet
-157 477 m 1
 -157 428 l 1
 -126 465 -84 483 -42 483 c 0
 3 483 56 463 88 408 c 1
 121 463 170 483 228 483 c 4
 295 483 374 454 397 350 c 4
 403 323 403 297 403 259 c 6
 403 0 l 1
 333 0 l 1
 333 260 l 6
 333 300 333 324 325 350 c 4
 307 405 264 417 228 417 c 4
 192 417 149 405 131 350 c 0
 123 324 123 299 123 259 c 2
 123 0 l 1
 53 0 l 1
 53 260 l 2
 53 300 53 324 45 350 c 0
 27 405 -16 417 -52 417 c 0
 -88 417 -131 405 -149 350 c 0
 -157 324 -157 299 -157 259 c 2
 -157 0 l 1
 -227 0 l 1
 -227 477 l 1
 -157 477 l 1
EndSplineSet
Substitution2: "'salt' Stylistic Alternatives lookup 0-1" a.alt
EndChar
StartChar: b
Encoding: 98 98 55
Width: 520
VWidth: 0
Flags: W
HStem: -6 66<194.739 343.849> 417 66<194.739 343.849> 647 20G<75 145>
VStem: 75 70<0 52 111.576 365.424 425 667> 395 70<112.961 364.039>
LayerCount: 4
Back
SplineSet
465 194 m 22
 465 48 367 -6 270 -6 c 5
 173 -6 75 48 75 194 c 14
 75 283 l 22
 75 429 173 483 270 483 c 5
 367 483 465 429 465 283 c 14
 465 194 l 22
145 194 m 22
 145 96 208 60 270 60 c 5
 332 60 395 96 395 194 c 14
 395 283 l 22
 395 381 332 417 270 417 c 5
 208 417 145 381 145 283 c 14
 145 194 l 22
EndSplineSet
Fore
SplineSet
465 204 m 6
 465 41 362 -6 280 -6 c 4
 226 -6 177 11 145 52 c 5
 145 0 l 5
 75 0 l 5
 75 667 l 5
 145 667 l 5
 145 425 l 5
 177 466 226 483 280 483 c 4
 362 483 465 436 465 273 c 6
 465 204 l 6
145 273 m 6
 145 204 l 6
 145 91 208 60 270 60 c 4
 332 60 395 91 395 204 c 6
 395 273 l 6
 395 386 332 417 270 417 c 4
 208 417 145 386 145 273 c 6
EndSplineSet
Layer: 2
SplineSet
145 0 m 5
 75 0 l 5
 75 667 l 5
 145 667 l 5
 145 0 l 5
465 194 m 22
 465 46 362 -6 280 -6 c 5
 183 -6 105 48 105 194 c 14
 105 283 l 22
 105 429 183 483 280 483 c 5
 362 483 465 431 465 283 c 14
 465 194 l 22
145 194 m 22
 145 96 208 60 270 60 c 5
 332 60 395 96 395 194 c 14
 395 283 l 22
 395 381 332 417 270 417 c 5
 208 417 145 381 145 283 c 14
 145 194 l 22
EndSplineSet
Layer: 3
Substitution2: "'salt' Stylistic Alternatives lookup 0-1" b.alt
EndChar
StartChar: c
Encoding: 99 99 54
Width: 433
VWidth: 0
Flags: W
HStem: -6 66<177.144 328.31> 417 66<177.144 328.368>
VStem: 55 70<111.891 365.109>
AnchorPoint: "Center" 5 0 basechar 0
AnchorPoint: "Bottom" 250 0 basechar 0
AnchorPoint: "Top" 250 476 basechar 0
LayerCount: 4
Back
SplineSet
445 194 m 18
 445 48 347 -6 250 -6 c 1
 153 -6 55 48 55 194 c 10
 55 283 l 18
 55 429 153 483 250 483 c 1
 347 483 445 429 445 283 c 10
 445 194 l 18
125 194 m 18
 125 96 188 60 250 60 c 1
 312 60 375 96 375 194 c 10
 375 283 l 18
 375 381 312 417 250 417 c 1
 188 417 125 381 125 283 c 10
 125 194 l 18
EndSplineSet
Fore
SplineSet
250 483 m 0
 304 483 346 467 378 442 c 1
 342 386 l 1
 317 405 286 417 250 417 c 0
 188 417 144 383 130 328 c 0
 125 311 125 292 125 268 c 0
 125 209 l 0
 125 185 125 166 130 149 c 0
 144 94 188 60 250 60 c 0
 289 60 321 73 347 95 c 1
 383 39 l 1
 350 11 307 -6 250 -6 c 0
 146 -6 74 54 58 149 c 0
 55 167 55 185 55 209 c 0
 55 268 l 0
 55 292 55 310 58 328 c 0
 74 423 146 483 250 483 c 0
EndSplineSet
Validated: 1048577
Layer: 2
Layer: 3
Substitution2: "'salt' Stylistic Alternatives lookup 0-1" c.alt
EndChar
StartChar: d
Encoding: 100 100 49
Width: 520
VWidth: 0
Flags: W
HStem: -6 66<176.151 325.261> 417 66<176.151 325.261> 647 20G<375 445>
VStem: 55 70<112.961 364.039> 375 70<0 52 111.576 365.424 425 667>
AnchorPoint: "Apos" 508 667 basechar 0
AnchorPoint: "Bottom" 240 0 basechar 0
LayerCount: 4
Back
Fore
SplineSet
55 204 m 6
 55 273 l 6
 55 436 158 483 240 483 c 4
 294 483 343 466 375 425 c 5
 375 667 l 5
 445 667 l 5
 445 0 l 5
 375 0 l 5
 375 52 l 5
 343 11 294 -6 240 -6 c 4
 158 -6 55 41 55 204 c 6
375 273 m 6
 375 386 312 417 250 417 c 4
 188 417 125 386 125 273 c 6
 125 204 l 6
 125 91 188 60 250 60 c 4
 312 60 375 91 375 204 c 6
 375 273 l 6
EndSplineSet
Layer: 2
Layer: 3
Substitution2: "'salt' Stylistic Alternatives lookup 0-1" d.alt
EndChar
StartChar: e
Encoding: 101 101 56
GlifName: e
Width: 457
Flags: W
HStem: -6 66<160.459 345.254> 219 62<115 345> 418 66<158.482 301.518>
VStem: 45 70<108.308 219 281 370.823> 345 70<281 372.176>
AnchorPoint: "DoubleTop" -15 0 basechar 0
AnchorPoint: "Apos" -15 0 basechar 0
AnchorPoint: "Center" -10 0 basechar 0
AnchorPoint: "Bottom" 235 0 basechar 0
AnchorPoint: "Top" 230 478 basechar 0
LayerCount: 2
Back
Fore
SplineSet
345 281 m 1
 345 317 339 353 318 380 c 0
 297 407 263 418 230 418 c 0
 197 418 163 407 142 380 c 0
 121 353 115 317 115 281 c 1
 345 281 l 1
230 484 m 0
 290 484 339 460 369 425 c 0
 411 375 415 315 415 239 c 2
 415 219 l 1
 115 219 l 1
 115 190 115 131 145 96 c 0
 163 75 192 60 240 60 c 0
 286 60 329 71 367 92 c 1
 395 32 l 1
 346 6 292 -6 240 -6 c 0
 174 -6 124 16 91 54 c 0
 45 107 45 179 45 239 c 0
 45 303 45 371 91 425 c 0
 121 460 170 484 230 484 c 0
EndSplineSet
EndChar
StartChar: f
Encoding: 102 102 59
GlifName: f
Width: 352
Flags: W
HStem: 0 21G<115 185> 416 62<35 115 185 295> 606 66<200.627 307.806>
VStem: 115 70<0 416 478 590.69>
LayerCount: 2
Back
Fore
SplineSet
115 486 m 2
 115 543 115 581 138 616 c 0
 160 649 199 672 248 672 c 0
 276 672 300 666 322 659 c 1
 304 596 l 1
 283 602 265 606 248 606 c 0
 225 606 209 597 199 583 c 0
 185 563 185 541 185 478 c 1
 295 478 l 1
 295 416 l 1
 185 416 l 1
 185 0 l 1
 115 0 l 1
 115 416 l 1
 35 416 l 1
 35 478 l 1
 115 478 l 1
 115 486 l 2
EndSplineSet
EndChar
StartChar: g
Encoding: 103 103 59
Width: 490
Flags: W
HStem: -189 66<130.264 310.216> -6 66<170.026 310.809> 418 66<170.026 310.809>
VStem: 55 70<107.392 370.608> 355 70<-77.2182 51 107.312 370.688 427 478>
AnchorPoint: "DoubleTop" 0 0 basechar 0
AnchorPoint: "Apos" 0 0 basechar 0
AnchorPoint: "Center" 0 0 basechar 0
AnchorPoint: "Bottom" 235 -185 basechar 0
AnchorPoint: "Top" 235 478 basechar 0
LayerCount: 4
Back
Fore
SplineSet
235 484 m 0
 283 484 324 462 355 427 c 1
 355 478 l 1
 425 478 l 1
 425 45 l 2
 425 -26 425 -81 379 -131 c 0
 347 -166 296 -189 230 -189 c 0
 181 -189 128 -177 84 -153 c 1
 113 -93 l 1
 146 -111 188 -123 230 -123 c 0
 279 -123 312 -106 331 -82 c 0
 355 -52 355 -16 355 45 c 2
 355 51 l 1
 324 16 283 -6 235 -6 c 0
 178 -6 131 17 102 51 c 0
 55 106 55 168 55 239 c 0
 55 310 55 372 102 427 c 0
 131 461 178 484 235 484 c 0
240 418 m 0
 217 418 181 412 157 385 c 0
 125 349 125 295 125 239 c 0
 125 183 125 129 157 93 c 0
 181 66 217 60 240 60 c 0
 263 60 299 66 323 93 c 0
 355 129 355 183 355 239 c 0
 355 295 355 349 323 385 c 0
 299 412 263 418 240 418 c 0
EndSplineSet
Validated: 1
Layer: 2
Layer: 3
EndChar
StartChar: h
Encoding: 104 104 56
Width: 518
VWidth: 0
Flags: W
HStem: 0 21G<75 145 385 455> 417 66<192.182 337.499> 647 20G<75 145>
VStem: 75 70<0 368.221 428 667> 385 70<0 364.039>
AnchorPoint: "Center" 0 0 basechar 0
AnchorPoint: "Bottom" 265 0 basechar 0
AnchorPoint: "Top" 110.5 667 basechar 0
LayerCount: 4
Back
Fore
SplineSet
145 0 m 1
 75 0 l 1
 75 667 l 1
 145 667 l 1
 145 428 l 1
 176 467 222 483 275 483 c 0
 357 483 455 436 455 273 c 2
 455 0 l 1
 385 0 l 1
 385 273 l 2
 385 386 327 417 265 417 c 0
 203 417 145 386 145 273 c 2
 145 0 l 1
EndSplineSet
Layer: 2
Layer: 3
Substitution2: "'salt' Stylistic Alternatives lookup 0-1" h.alt
EndChar
StartChar: i
Encoding: 105 105 51
GlifName: i
Width: 440
VWidth: 0
Flags: W
HStem: 0 21G<145 295> 1247 188<138.891 301.109>
VStem: 126 188<1259.89 1422.11> 145 150<0 1082>
AnchorPoint: "Bottom" 220 0 basechar 0
LayerCount: 3
Back
Fore
SplineSet
220 1435 m 0xe0
 275 1435 314 1396 314 1341 c 0
 314 1286 275 1247 220 1247 c 0
 165 1247 126 1286 126 1341 c 0
 126 1396 165 1435 220 1435 c 0xe0
295 0 m 1xd0
 145 0 l 1
 145 1082 l 1
 295 1082 l 1
 295 0 l 1xd0
EndSplineSet
Validated: 1048577
Layer: 2
EndChar
StartChar: j
Encoding: 106 106 61
Width: 209
VWidth: 0
Flags: W
HStem: -185 62<-12 56.3464> 550 94<62.5618 143.671>
VStem: 56 94<556.897 637.103> 68 70<-112.855 477>
LayerCount: 4
Back
Fore
SplineSet
138 -55 m 2xd0
 138 -144 77 -185 18 -185 c 2
 -12 -185 l 1
 -12 -123 l 1
 18 -123 l 2
 43 -123 68 -104 68 -55 c 2
 68 477 l 1
 138 477 l 1
 138 -55 l 2xd0
103 644 m 0
 131 644 150 625 150 597 c 0
 150 569 131 550 103 550 c 0
 76 550 56 569 56 597 c 0xe0
 56 625 76 644 103 644 c 0
EndSplineSet
Validated: 1
Layer: 2
Layer: 3
EndChar
StartChar: k
Encoding: 107 107 67
GlifName: k
Width: 955
Flags: W
HStem: 0 21G<140 290 720.327 915>
VStem: 140 150<0 287 489 1496>
AnchorPoint: "Bottom" 469 0 basechar 0
LayerCount: 3
Back
Fore
SplineSet
140 1496 m 1
 290 1496 l 1
 290 489 l 1
 729 1082 l 1
 905 1082 l 1
 504 547 l 1
 915 0 l 1
 735 0 l 1
 410 443 l 1
 290 287 l 1
 290 0 l 1
 140 0 l 1
 140 1496 l 1
EndSplineSet
Validated: 1048577
Layer: 2
EndChar
StartChar: l
Encoding: 108 108 50
GlifName: l
Width: 200
VWidth: 0
Flags: W
HStem: 0 21G<65 135> 646 20G<65 135>
VStem: 65 70<0 666>
AnchorPoint: "DoubleTop" 0 0 basechar 0
AnchorPoint: "Center" 136 334 basechar 0
AnchorPoint: "Apos" 199 667 basechar 0
AnchorPoint: "Bottom" 100 0 basechar 0
AnchorPoint: "Top" 100 666 basechar 0
LayerCount: 2
Back
Fore
SplineSet
65 666 m 1
 135 666 l 1
 135 0 l 1
 65 0 l 1
 65 666 l 1
EndSplineSet
EndChar
StartChar: m
Encoding: 109 109 46
Width: 755
Flags: W
HStem: 0 21G<65 135 345 415 625 695> 417 66<171.218 308.779 451.606 588.379>
VStem: 65 70<0 381.026 433 477> 345 70<0 381.026> 625 70<0 379.399>
CounterMasks: 1 38
LayerCount: 4
Back
Fore
SplineSet
65 477 m 1
 135 477 l 1
 135 433 l 1
 160 462 202 483 251 483 c 0
 309 483 355 455 381 418 c 1
 409 457 459 483 522 483 c 0
 589 483 640 454 668 411 c 0
 694 372 695 330 695 291 c 2
 695 0 l 1
 625 0 l 1
 625 293 l 2
 625 321 625 353 604 380 c 0
 587 402 558 417 520 417 c 0
 482 417 453 402 436 380 c 0
 415 353 415 321 415 293 c 2
 415 0 l 1
 345 0 l 1
 345 293 l 2
 345 321 345 353 324 380 c 0
 307 402 278 417 240 417 c 0
 202 417 173 402 156 380 c 0
 135 353 135 321 135 293 c 2
 135 0 l 1
 65 0 l 1
 65 477 l 1
EndSplineSet
Validated: 1
Layer: 2
Layer: 3
EndChar
StartChar: n
Encoding: 110 110 58
Width: 505
VWidth: 0
Flags: W
HStem: 0 21G<65 135 375 445> 417 66<185.058 324.555>
VStem: 65 70<0 365.109 419 477> 375 70<0 365.109>
AnchorPoint: "Apos" 65 667 basechar 0
AnchorPoint: "Bottom" 252 0 basechar 0
AnchorPoint: "Top" 265 477 basechar 0
LayerCount: 4
Back
SplineSet
785 0 m 5
 715 0 l 5
 715 477 l 5
 785 477 l 5
 785 0 l 5
745 283 m 21
 745 429 818 483 915 483 c 5
 997 483 1095 431 1095 283 c 14
 1095 0 l 21
 1025 0 l 13
 1025 283 l 22
 1025 381 967 417 905 417 c 5
 843 417 785 381 785 283 c 13
 745 283 l 21
EndSplineSet
Fore
SplineSet
65 477 m 5
 135 477 l 5
 135 419 l 5
 165 460 210 483 265 483 c 4
 354 483 426 423 442 328 c 4
 445 310 445 292 445 268 c 6
 445 0 l 5
 375 0 l 5
 375 268 l 6
 375 292 375 311 370 328 c 4
 356 383 312 417 255 417 c 4
 199 417 154 383 140 328 c 4
 135 311 135 292 135 268 c 6
 135 0 l 5
 65 0 l 5
 65 477 l 5
EndSplineSet
Validated: 1048577
Layer: 2
Layer: 3
Substitution2: "'salt' Stylistic Alternatives lookup 0-1" n.alt
EndChar
StartChar: o
Encoding: 111 111 53
Width: 500
VWidth: 0
Flags: W
HStem: -6 66<181.804 318.196> 417 66<181.804 317.99>
VStem: 55 70<120.972 355.551> 375 70<120.972 356.428>
AnchorPoint: "Center" 5 0 basechar 0
AnchorPoint: "Bottom" 250 0 basechar 0
AnchorPoint: "Top" 250 476 basechar 0
LayerCount: 4
Back
Fore
SplineSet
250 483 m 0
 346 483 445 417 445 273 c 2
 445 204 l 2
 445 61 347 -6 250 -6 c 0
 153 -6 55 61 55 204 c 2
 55 272 l 2
 55 416 153 483 250 483 c 0
250 417 m 0
 188 417 125 371 125 273 c 2
 125 204 l 2
 125 106 188 60 250 60 c 0
 312 60 375 106 375 204 c 2
 375 272 l 2
 375 371 312 417 250 417 c 0
EndSplineSet
Layer: 2
Layer: 3
EndChar
StartChar: p
Encoding: 112 112 63
Width: 520
VWidth: 0
Flags: W
HStem: -6 66<194.739 343.849> 417 66<194.739 343.849>
VStem: 75 70<-190 52 111.576 365.424 425 477> 395 70<112.961 364.039>
LayerCount: 4
Back
Fore
SplineSet
145 52 m 1
 145 -190 l 1
 75 -190 l 1
 75 477 l 1
 145 477 l 1
 145 425 l 1
 177 466 226 483 280 483 c 0
 362 483 465 436 465 273 c 2
 465 204 l 2
 465 41 362 -6 280 -6 c 0
 226 -6 177 11 145 52 c 1
145 273 m 2
 145 204 l 2
 145 91 208 60 270 60 c 0
 332 60 395 91 395 204 c 2
 395 273 l 2
 395 386 332 417 270 417 c 0
 208 417 145 386 145 273 c 2
EndSplineSet
Layer: 2
Layer: 3
Substitution2: "'salt' Stylistic Alternatives lookup 0-1" p.alt
EndChar
StartChar: q
Encoding: 113 113 63
GlifName: q
Width: 1075
Flags: W
HStem: -16 134<371.219 669.896> 964 134<371.219 669.896>
VStem: 105 150<241.25 840.75> 785 150<-414 115 242.055 839.945 967 1082>
LayerCount: 3
Back
Fore
SplineSet
500 1098 m 4
 624 1098 713 1047 785 967 c 5
 785 1082 l 5
 935 1082 l 5
 935 -414 l 5
 785 -414 l 5
 785 115 l 5
 713 35 624 -16 500 -16 c 4
 360 -16 246 51 185 144 c 4
 113 255 105 374 105 541 c 4
 105 708 113 827 185 938 c 4
 246 1031 360 1098 500 1098 c 4
520 964 m 4
 427 964 357 924 315 866 c 4
 260 790 255 683 255 541 c 4
 255 399 260 292 315 216 c 4
 357 158 427 118 520 118 c 4
 613 118 683 158 725 216 c 4
 780 292 785 399 785 541 c 4
 785 683 780 790 725 866 c 4
 683 924 613 964 520 964 c 4
EndSplineSet
Validated: 1
Layer: 2
EndChar
StartChar: r
Encoding: 114 114 61
GlifName: r
Width: 657
Flags: W
HStem: 0 21G<140 290> 964 134<385.823 615.954>
VStem: 140 150<0 872.771 968.388 1082>
AnchorPoint: "Bottom" 214 0 basechar 0
AnchorPoint: "Top" 445 1082 basechar 0
LayerCount: 2
Back
Fore
SplineSet
290 968.387695312 m 1
 358.010487378 1049.62034305 435.059597604 1098 545 1098 c 0
 578.153153153 1098 608.81981982 1093 637 1087 c 1
 615 955 l 1
 586.685393258 959.5 556.348314607 964 525 964 c 0
 421 964 344.972708626 910.434252598 312 831 c 0
 290 778 290 711.997321559 290 643 c 2
 290 0 l 1
 140 0 l 1
 140 1082 l 1
 290 1082 l 1
 290 968.387695312 l 1
EndSplineSet
EndChar
StartChar: s
Encoding: 115 115 48
Width: 436
VWidth: 0
Flags: W
HStem: -6 65<122.404 294.279> 418 65<142.867 305.42>
VStem: 50 70<303.738 395.448> 316 70<82.2751 178.444>
AnchorPoint: "Center" -5 0 basechar 0
AnchorPoint: "Bottom" 213 0 basechar 0
AnchorPoint: "Top" 213 477 basechar 0
LayerCount: 4
Back
SplineSet
213 483 m 0
 319.4609375 483 457.615234375 416.630859375 457.999023438 273.341796875 c 2
 458 204.5 l 2
 457.999023438 60.62890625 319.649414062 -6 213 -6 c 0
 106.350585938 -6 -31.9990234375 60.62890625 -32 204.5 c 2
 -32 272.5 l 2
 -31.9990234375 416.37109375 106.350585938 483 213 483 c 0
213 417 m 0
 141.166992188 417 38.248046875 371.44140625 38.0009765625 273.078125 c 2
 38 204.5 l 2
 38.0009765625 105.73828125 141.044921875 60 213 60 c 0
 284.833007812 60 387.751953125 105.55859375 387.999023438 203.921875 c 2
 388 272.5 l 2
 387.999023438 371.26171875 284.955078125 417 213 417 c 0
EndSplineSet
Fore
SplineSet
213 483 m 0
 289 483 346 452 371 435 c 1
 333 380 l 1
 298 406 251 418 213 418 c 0
 158 418 120 391 120 349 c 0
 120 310 142 291 219 277 c 0
 302 261 386 225 386 132 c 0
 386 45 314 -6 212 -6 c 0
 127 -6 68 32 47 48 c 1
 89 101 l 1
 118 78 165 59 212 59 c 0
 290 59 316 90 316 132 c 0
 316 173 283 198 207 212 c 0
 124 227 50 258 50 349 c 0
 50 440 140 483 213 483 c 0
EndSplineSet
Layer: 2
Layer: 3
Substitution2: "'salt' Stylistic Alternatives lookup 0-1" s.alt
EndChar
StartChar: t
Encoding: 116 116 65
Width: 353
Flags: W
HStem: -6 66<195.877 305.284> 416 62<35 115 185 295>
VStem: 115 70<71.3266 416 478 591>
AnchorPoint: "DoubleTop" -10 0 basechar 0
AnchorPoint: "Apos" 336 666 basechar 0
AnchorPoint: "Top" 5 0 basechar 0
AnchorPoint: "Center" 5 0 basechar 0
AnchorPoint: "Bottom" 231 0 basechar 0
LayerCount: 4
Back
Fore
SplineSet
185 182 m 2
 185 114 185 96 196 81 c 0
 207 66 226 60 246 60 c 0
 262 60 281 64 299 72 c 1
 325 11 l 1
 298 0 272 -6 246 -6 c 0
 202 -6 169 10 148 32 c 0
 115 67 115 100 115 182 c 2
 115 416 l 1
 35 416 l 1
 35 478 l 1
 115 478 l 1
 115 591 l 1
 185 591 l 1
 185 478 l 1
 295 478 l 1
 295 416 l 1
 185 416 l 1
 185 182 l 2
EndSplineSet
Validated: 1
Layer: 2
Layer: 3
EndChar
StartChar: u
Encoding: 117 117 65
GlifName: u
Width: 1050
Flags: W
HStem: -16 134<377.535 672.465>
VStem: 130 150<219.022 1082> 770 150<219.022 1082>
AnchorPoint: "Center" 525 1202 basechar 0
AnchorPoint: "Bottom" 525 0 basechar 0
AnchorPoint: "Top" 525 1082 basechar 0
LayerCount: 3
Back
Fore
SplineSet
130 1082 m 1
 280 1082 l 1
 280 457 l 2
 280 370 280 322 295 276 c 0
 329 170 421.604278075 118 525 118 c 0
 628.395507812 118 721 170 755 276 c 0
 770 322 770 370 770 457 c 2
 770 1082 l 1
 920 1082 l 1
 920 447 l 2
 920 366 920 292 893 219 c 0
 837 67 704 -16 525 -16 c 0
 346 -16 213 67 157 219 c 0
 130 292 130 366 130 447 c 2
 130 1082 l 1
EndSplineSet
Layer: 2
Substitution2: "'ss02' Style Set 2 lookup 1 subtable" u.alt
EndChar
StartChar: v
Encoding: 118 118 45
GlifName: v
Width: 430
Flags: W
HStem: 0 21G<174.054 255.946>
AnchorPoint: "DoubleTop" -24.6719 0 basechar 0
AnchorPoint: "Apos" -24.6719 0 basechar 0
AnchorPoint: "Bottom" -34.6719 0 basechar 0
AnchorPoint: "Center" -34.6719 0 basechar 0
AnchorPoint: "Top" 215.328 478 basechar 0
LayerCount: 4
Back
Fore
SplineSet
249 0 m 1
 181 0 l 1
 15 478 l 1
 89 478 l 1
 217 91 l 5
 343 478 l 5
 415 478 l 1
 249 0 l 1
EndSplineSet
Validated: 1
Layer: 2
Layer: 3
EndChar
StartChar: w
Encoding: 119 119 44
Width: 720
Flags: W
HStem: 0 21G<181.375 253.788 466.212 538.625>
AnchorPoint: "DoubleTop" 0 0 basechar 0
AnchorPoint: "Apos" 0 0 basechar 0
AnchorPoint: "Bottom" 0 0 basechar 0
AnchorPoint: "Center" 0 0 basechar 0
AnchorPoint: "Top" 360 477 basechar 0
LayerCount: 4
Back
Fore
SplineSet
30 477 m 1
 101 477 l 1
 218 107 l 1
 330 477 l 1
 390 477 l 1
 502 107 l 1
 619 477 l 1
 690 477 l 1
 532 0 l 1
 472 0 l 1
 360 387 l 1
 248 0 l 1
 188 0 l 1
 30 477 l 1
EndSplineSet
Validated: 1
Layer: 2
Layer: 3
EndChar
StartChar: x
Encoding: 120 120 68
GlifName: x
Width: 910
VWidth: 0
Flags: W
HStem: 0 21G<50 230.211 679.789 860>
LayerCount: 3
Back
Fore
SplineSet
860 0 m 5
 691 0 l 5
 455 421 l 5
 219 0 l 5
 50 0 l 5
 370 545 l 5
 55 1082 l 5
 224 1082 l 5
 455 669 l 5
 686 1082 l 5
 855 1082 l 5
 540 545 l 5
 860 0 l 5
EndSplineSet
Validated: 1
Layer: 2
EndChar
StartChar: y
Encoding: 121 121 70
GlifName: y
Width: 432
Flags: W
AnchorPoint: "DoubleTop" -36 0 basechar 0
AnchorPoint: "Apos" -36 0 basechar 0
AnchorPoint: "Top" 204 478 basechar 0
AnchorPoint: "Center" -46 0 basechar 0
AnchorPoint: "Bottom" -46 0 basechar 0
LayerCount: 4
Back
Fore
SplineSet
15 478 m 5
 89 478 l 5
 218 82 l 5
 342 478 l 5
 414 478 l 5
 193 -183 l 5
 120 -183 l 5
 182 -3 l 5
 15 478 l 5
EndSplineSet
Validated: 1
Layer: 2
Layer: 3
EndChar
StartChar: z
Encoding: 122 122 71
Width: 430
VWidth: 0
Flags: W
HStem: 0 66<141 375> 411 66<55 289>
VStem: 55 320<0 50 427 477>
AnchorPoint: "Center" 10 0 basechar 0
AnchorPoint: "Bottom" 217 0 basechar 0
AnchorPoint: "Top" 215 546 basechar 0
LayerCount: 4
Back
Fore
SplineSet
55 477 m 1
 375 477 l 1
 375 427 l 1
 141 66 l 1
 375 66 l 1
 375 0 l 1
 55 0 l 1
 55 50 l 1
 289 411 l 1
 55 411 l 1
 55 477 l 1
EndSplineSet
Layer: 2
Layer: 3
EndChar
StartChar: braceleft
Encoding: 123 123 75
GlifName: braceleft
Width: 663
Flags: W
VStem: 251 140<-227.307 386.359 695.641 1309.31>
LayerCount: 3
Back
Fore
SplineSet
244 541 m 1
 340 462 401 346 401 174 c 0
 401 102 391 35 391 -27 c 0
 391 -198 462 -297 553 -346 c 1
 510 -444 l 1
 350 -376 251 -241 251 -27 c 0
 251 45 261 112 261 174 c 0
 261 336 196 437 90 485 c 1
 90 597 l 1
 196 645 261 746 261 908 c 0
 261 970 251 1037 251 1109 c 0
 251 1323 350 1458 510 1526 c 1
 553 1428 l 1
 462 1379 391 1280 391 1109 c 0
 391 1047 401 980 401 908 c 0
 401 736 340 620 244 541 c 1
EndSplineSet
Validated: 1
Layer: 2
Substitution2: "'case' subtable" braceleft.case
EndChar
StartChar: bar
Encoding: 124 124 76
GlifName: bar
Width: 452
VWidth: 0
Flags: W
VStem: 156 140<-456 1538>
LayerCount: 3
Back
Fore
SplineSet
156 1538 m 5
 296 1538 l 5
 296 -456 l 5
 156 -456 l 5
 156 1538 l 5
EndSplineSet
Validated: 1
Layer: 2
EndChar
StartChar: braceright
Encoding: 125 125 79
Width: 324
VWidth: 0
Flags: W
HStem: -191 56<54 104.637> 288 50<207.698 260> 741 56<54 104.637>
VStem: 122 62<-117.433 -41 183 264.5 357 433 647 723.433>
LayerCount: 4
Back
Fore
SplineSet
40 797 m 5
 40 741 l 5
 54 741 l 6
 104 741 122 711 122 647 c 6
 122 433 l 6
 122 371 148 333 181 311 c 5
 148 287 122 245 122 183 c 6
 122 -41 l 6
 122 -105 104 -135 54 -135 c 6
 40 -135 l 5
 40 -191 l 5
 54 -191 l 6
 133 -191 184 -150 184 -41 c 6
 184 193 l 6
 184 257 215 288 260 288 c 6
 264 288 l 5
 264 338 l 5
 260 338 l 6
 215 338 184 359 184 423 c 6
 184 647 l 6
 184 756 133 797 54 797 c 6
 40 797 l 5
EndSplineSet
Layer: 2
Layer: 3
EndChar
StartChar: asciitilde
Encoding: 126 126 180
Width: 520
VWidth: 0
Flags: W
HStem: 184 65<288.958 394.242> 249 66<120.778 236.867>
LayerCount: 4
Back
Fore
SplineSet
100 209 m 1x40
 66 261 l 1
 106 299 144 315 180 315 c 0x40
 216 315 248 302 276 280 c 0
 302 260 322 249 344 249 c 0
 366 249 390 263 420 293 c 1
 454 241 l 1
 414 202 376 184 340 184 c 0x80
 308 184 276 198 244 222 c 0
 222 239 200 249 178 249 c 0
 154 249 128 237 100 209 c 1x40
EndSplineSet
Validated: 1
Layer: 2
Layer: 3
EndChar
StartChar: exclamdown
Encoding: 161 161 90
GlifName: exclamdown
Width: 260
Flags: W
HStem: 387 102<87.2266 172.773>
VStem: 79 102<395.227 480.773> 93 74<-183 248.898>
LayerCount: 2
Back
Fore
SplineSet
130 387 m 0xc0
 100 387 79 408 79 438 c 0
 79 468 100 489 130 489 c 0
 160 489 181 468 181 438 c 0
 181 408 160 387 130 387 c 0xc0
167 -183 m 1xa0
 93 -183 l 1
 93 11 l 2
 93 191 103 314 103 314 c 1
 157 314 l 1
 157 314 167 191 167 11 c 2
 167 -183 l 1xa0
EndSplineSet
EndChar
StartChar: cent
Encoding: 162 162 354
Width: 550
VWidth: 0
Flags: W
HStem: -6 66<206.252 279 329 415.809> 417 66<206.252 279 329 416.638>
VStem: 89 70<109.356 367.644> 279 50<-86 -6 60 417 483 563>
LayerCount: 4
Back
Fore
SplineSet
279 563 m 1
 329 563 l 1
 329 483 l 1
 388 483 435 467 467 442 c 1
 431 386 l 1
 406 405 370 417 329 417 c 1
 329 60 l 1
 373 60 410 73 436 95 c 1
 472 39 l 1
 439 11 391 -6 329 -6 c 1
 329 -86 l 1
 279 -86 l 1
 279 -6 l 1
 184 -6 119 44 97 124 c 0
 89 153 89 181 89 219 c 2
 89 258 l 2
 89 296 89 324 97 353 c 0
 119 433 184 483 279 483 c 1
 279 563 l 1
279 417 m 1
 227 417 190 393 172 353 c 0
 159 326 159 298 159 258 c 2
 159 219 l 2
 159 179 159 151 172 124 c 0
 190 84 227 60 279 60 c 1
 279 417 l 1
EndSplineSet
Validated: 1
Layer: 2
SplineSet
64 289 m 1024,0,1
EndSplineSet
Layer: 3
EndChar
StartChar: sterling
Encoding: 163 163 114
Width: 521
VWidth: 0
Flags: W
HStem: 0 70<60 122 196 452> 292 61<62 122 196 382> 603 70<246.894 365.692>
VStem: 122 74<70 292 353 546.018>
LayerCount: 4
Back
Fore
SplineSet
122 447 m 2
 122 611 216 673 307 673 c 0
 332 673 393 673 461 584 c 1
 404 540 l 1
 356 603 327 603 307 603 c 0
 253 603 196 563 196 447 c 2
 196 353 l 1
 382 353 l 1
 382 292 l 1
 196 292 l 1
 196 70 l 1
 452 70 l 1
 452 0 l 1
 60 0 l 1
 60 70 l 1
 122 70 l 1
 122 292 l 1
 62 292 l 1
 62 353 l 1
 122 353 l 1
 122 447 l 2
EndSplineSet
Layer: 2
Layer: 3
EndChar
StartChar: currency
Encoding: 219 164 483
Width: 626
VWidth: 0
Flags: HW
HStem: 59 70<223.491 402.509> 449 70<223.491 402.509>
VStem: 81 74<200.885 377.115> 471 74<200.885 377.115>
LayerCount: 4
Back
Fore
SplineSet
155 289 m 0
 155 187 216 129 313 129 c 0
 410 129 471 187 471 289 c 0
 471 391 410 449 313 449 c 0
 216 449 155 391 155 289 c 0
60 491 m 1
 111 542 l 1
 174.276367188 478.723632812 l 1
 211.684570312 504.431640625 258.8515625 519 313 519 c 0
 367.1484375 519 414.315429688 504.431640625 451.723632812 478.723632812 c 1
 515 542 l 1
 566 491 l 1
 503.15234375 428.15234375 l 1
 530.040039062 390.375 545 342.744140625 545 289 c 0
 545 235.255859375 530.040039062 187.625 503.15234375 149.84765625 c 1
 566 87 l 1
 515 36 l 1
 451.723632812 99.2763671875 l 1
 414.315429688 73.568359375 367.1484375 59 313 59 c 0
 258.8515625 59 211.684570312 73.568359375 174.276367188 99.2763671875 c 1
 111 36 l 1
 60 87 l 1
 122.84765625 149.84765625 l 1
 95.9599609375 187.625 81 235.255859375 81 289 c 0
 81 342.744140625 95.9599609375 390.375 122.84765625 428.15234375 c 1
 60 491 l 1
EndSplineSet
Layer: 2
Layer: 3
EndChar
StartChar: yen
Encoding: 180 165 355
Width: 551
VWidth: 0
Flags: W
HStem: 0 21G<238 312> 243 56<95 233 317 455> 368 56<85 163 387 465> 647 20G<40 128.873 423.937 511>
VStem: 238 74<0 243>
LayerCount: 4
Back
Fore
SplineSet
40 667 m 1
 119 667 l 1
 275 351 l 1
 434 667 l 1
 511 667 l 1
 387 424 l 1
 465 424 l 1
 465 368 l 1
 352 368 l 1
 317 299 l 1
 455 299 l 1
 455 243 l 1
 312 243 l 1
 312 0 l 1
 238 0 l 1
 238 243 l 1
 95 243 l 1
 95 299 l 1
 233 299 l 1
 198 368 l 1
 85 368 l 1
 85 424 l 1
 163 424 l 1
 40 667 l 1
EndSplineSet
Layer: 2
Layer: 3
EndChar
StartChar: brokenbar
Encoding: 166 166 355
GlifName: brokenbar
Width: 232
VWidth: 0
Flags: W
HStem: 0 21G<85 147> 646 20G<85 147>
VStem: 85 62<0 264 404 666>
LayerCount: 2
Back
Fore
SplineSet
85 264 m 1
 147 264 l 1
 147 0 l 1
 85 0 l 1
 85 264 l 1
85 666 m 1
 147 666 l 1
 147 404 l 1
 85 404 l 1
 85 666 l 1
EndSplineSet
EndChar
StartChar: section
Encoding: 167 167 115
Width: 469
VWidth: 0
Flags: W
HStem: -6 65<139.498 312.279> 608 65<160.15 324.348>
VStem: 68 70<300.602 417.794 496.953 586.926> 334 70<80.8587 175.25 250.892 371.391>
LayerCount: 4
Back
Fore
SplineSet
231 673 m 0
 307 673 364 643 389 626 c 1
 351 571 l 1
 316 597 269 608 231 608 c 0
 176 608 138 583 138 541 c 0
 138 502 160 485 237 471 c 0
 320 455 404 421 404 328 c 0
 404 279 385 246 358 225 c 1
 386 204 404 173 404 130 c 0
 404 43 332 -6 230 -6 c 0
 145 -6 86 31 65 47 c 1
 107 100 l 1
 136 77 183 59 230 59 c 0
 308 59 334 88 334 130 c 0
 334 171 301 194 225 208 c 0
 142 223 68 252 68 343 c 0
 68 394 90 426 116 444 c 1
 87 465 68 495 68 541 c 0
 68 632 158 673 231 673 c 0
161 422 m 1
 147 409 138 383 138 353 c 0
 138 304 160 287 237 273 c 0
 264 268 291 261 315 250 c 1
 327 265 334 291 334 318 c 0
 334 369 301 392 225 406 c 0
 203 410 181 415 161 422 c 1
EndSplineSet
Validated: 1
Layer: 2
Layer: 3
EndChar
StartChar: dieresis
Encoding: 172 168 131
Width: 374
VWidth: 0
Flags: W
HStem: 511 94<56.3292 137.671 236.329 317.671>
VStem: 50 94<517.329 598.671> 230 94<517.329 598.671>
AnchorPoint: "Top" 187 517 mark 0
LayerCount: 4
Back
Fore
SplineSet
277 605 m 0
 305 605 324 586 324 558 c 0
 324 530 305 511 277 511 c 0
 249 511 230 530 230 558 c 0
 230 586 249 605 277 605 c 0
97 605 m 0
 125 605 144 586 144 558 c 0
 144 530 125 511 97 511 c 0
 69 511 50 530 50 558 c 0
 50 586 69 605 97 605 c 0
EndSplineSet
Layer: 2
Layer: 3
EndChar
StartChar: copyright
Encoding: 169 169 73
GlifName: copyright
Width: 1524
VWidth: 0
Flags: W
HStem: -32 100<501.377 1022.62> 234 134<624.441 874.354> 1048 134<625.305 878.909> 1348 100<501.377 1022.62>
VStem: 116 112<342.459 1073.54> 414 150<431.835 982.983> 1296 112<342.459 1073.54>
LayerCount: 3
Back
Fore
SplineSet
762 1448 m 4
 1007 1448 1189 1370 1295 1223 c 4
 1407 1068 1408 860 1408 708 c 4
 1408 556 1407 348 1295 193 c 4
 1189 46 1007 -32 762 -32 c 4
 517 -32 335 46 229 193 c 4
 117 348 116 556 116 708 c 4
 116 860 117 1068 229 1223 c 4
 335 1370 517 1448 762 1448 c 4
762 1348 m 4
 556 1348 411 1288 323 1169 c 4
 232 1047 228 856 228 708 c 4
 228 560 232 369 323 247 c 4
 411 128 556 68 762 68 c 4
 968 68 1113 128 1201 247 c 4
 1292 369 1296 560 1296 708 c 4
 1296 856 1292 1047 1201 1169 c 4
 1113 1288 968 1348 762 1348 c 4
1021 355 m 1
 960 289 866 234 743 234 c 0
 602 234 506 300 457 402 c 0
 416 488 414 600 414 707 c 0
 414 822 418 927 454 1008 c 0
 499 1109 599 1182 743 1182 c 0
 850 1182 934 1141 995 1090 c 1
 905 984 l 1
 860 1021 815 1048 743 1048 c 0
 568 1048 564 882 564 707 c 0
 564 527 570 368 743 368 c 0
 825 368 874 406 920 453 c 1
 1021 355 l 1
EndSplineSet
Validated: 1
Layer: 2
EndChar
StartChar: ordfeminine
Encoding: 170 170 442
GlifName: ordfeminine
Width: 463
Flags: W
HStem: 254 66<142.746 287.748> 489 62<143.661 333> 678 66<113.67 291.251>
VStem: 40 70<350.83 457.22> 333 70<260 311 363.741 489 551 635.355>
LayerCount: 2
Back
Fore
SplineSet
218 744 m 0
 280 744 333 722 368 675 c 0
 403 628 403 571 403 500 c 2
 403 260 l 1
 333 260 l 1
 333 311 l 1
 303 275 256 254 208 254 c 0
 173 254 134 262 100 287 c 0
 66 312 40 354 40 403 c 0
 40 448 62 488 98 515 c 0
 146 551 206 551 268 551 c 2
 333 551 l 1
 333 570 332 608 311 637 c 0
 291 664 260 678 218 678 c 0
 176 678 133 665 89 647 c 1
 64 708 l 1
 111 728 161 744 218 744 c 0
268 489 m 2
 209 489 171 489 141 466 c 0
 124 453 110 431 110 403 c 0
 110 376 124 354 143 340 c 0
 162 326 187 320 213 320 c 0
 258 320 293 338 312 365 c 0
 333 395 333 432 333 489 c 1
 268 489 l 2
EndSplineSet
EndChar
StartChar: guillemotleft
Encoding: 199 171 129
Width: 545
Flags: W
LayerCount: 4
Back
Fore
SplineSet
223 437 m 5
 295 437 l 5
 136 250 l 5
 295 63 l 5
 223 63 l 5
 80 227 l 5
 80 273 l 5
 223 437 l 5
393 437 m 5
 465 437 l 5
 306 250 l 5
 465 63 l 5
 393 63 l 5
 250 227 l 5
 250 273 l 5
 393 437 l 5
EndSplineSet
Layer: 2
Layer: 3
EndChar
StartChar: logicalnot
Encoding: 172 172 421
GlifName: logicalnot
Width: 520
Flags: W
HStem: 221 58<80 380>
VStem: 380 60<70 221>
LayerCount: 2
Back
Fore
SplineSet
80 279 m 1
 440 280 l 1
 440 70 l 1
 380 70 l 1
 380 221 l 1
 80 221 l 1
 80 279 l 1
EndSplineSet
EndChar
StartChar: uni00AD
Encoding: 173 173 457
GlifName: uni00A_D_
Width: 370
Flags: W
HStem: 221 58<80 290>
VStem: 80 210<221 279>
LayerCount: 2
Back
Fore
SplineSet
80 279 m 1
 290 279 l 1
 290 221 l 1
 80 221 l 1
 80 279 l 1
EndSplineSet
EndChar
StartChar: registered
Encoding: 168 174 75
Width: 640
VWidth: 0
Flags: W
HStem: -6 60<213.732 426.268> 277 58<265 328> 481 58<265 378.359> 613 60<211.817 428.183>
VStem: 65 64<134.415 532.933> 204 61<128 277 335 481> 396 56<352.448 464.228> 511 64<134.415 532.933>
LayerCount: 4
Back
Fore
SplineSet
265 481 m 1
 265 335 l 1
 329 335 l 2
 361 335 396 357 396 410 c 0
 396 460 362 481 329 481 c 2
 265 481 l 1
204 539 m 1
 329 539 l 2
 394 539 452 498 452 410 c 0
 452 350 424 307 386 289 c 1
 459 128 l 1
 396 128 l 1
 328 277 l 1
 265 277 l 1
 265 128 l 1
 204 128 l 1
 204 539 l 1
320 673 m 0
 467 673 575 611 575 446 c 2
 575 222 l 2
 575 56 467 -6 320 -6 c 0
 173 -6 65 56 65 222 c 2
 65 446 l 2
 65 611 173 673 320 673 c 0
320 613 m 0
 210 613 129 563 129 446 c 2
 129 222 l 2
 129 104 210 54 320 54 c 0
 430 54 511 104 511 222 c 2
 511 446 l 2
 511 563 430 613 320 613 c 0
EndSplineSet
Layer: 2
Layer: 3
EndChar
StartChar: macron
Encoding: 248 175 195
Width: 370
Flags: W
HStem: 518 56<50 320>
VStem: 50 270<518 574>
AnchorPoint: "Top" 186 517 mark 0
LayerCount: 4
Back
Fore
SplineSet
50 574 m 1
 320 574 l 1
 320 518 l 1
 50 518 l 1
 50 574 l 1
EndSplineSet
Layer: 2
Layer: 3
EndChar
StartChar: degree
Encoding: 176 176 150
GlifName: degree
Width: 652
VWidth: 0
Flags: W
HStem: 993 118<239.922 412.078> 1393 118<239.922 412.078>
VStem: 80 132<1135.59 1368.41> 440 132<1135.59 1368.41>
LayerCount: 3
Back
Fore
SplineSet
326 1393 m 4
 266 1393 212 1350 212 1252 c 4
 212 1154 266 1111 326 1111 c 4
 386 1111 440 1154 440 1252 c 4
 440 1350 386 1393 326 1393 c 4
326 1511 m 4
 478 1511 572 1390 572 1252 c 4
 572 1114 478 993 326 993 c 4
 174 993 80 1114 80 1252 c 4
 80 1390 174 1511 326 1511 c 4
EndSplineSet
Validated: 1
Layer: 2
EndChar
StartChar: plusminus
Encoding: 177 177 104
GlifName: plusminus
Width: 520
Flags: W
HStem: 95 58<80 440> 294 58<80 230 290 440>
VStem: 230 60<203 294 352 443>
LayerCount: 2
Back
Fore
SplineSet
230 443 m 1
 290 443 l 1
 290 352 l 1
 440 352 l 1
 440 294 l 1
 290 294 l 1
 290 203 l 1
 230 203 l 1
 230 294 l 1
 80 294 l 1
 80 352 l 1
 230 352 l 1
 230 443 l 1
80 153 m 1
 440 153 l 1
 440 95 l 1
 80 95 l 1
 80 153 l 1
EndSplineSet
EndChar
StartChar: uni00B2
Encoding: 178 178 499
Width: 403
Flags: W
HStem: 334 57<147 343> 750 57<114.209 244.201>
VStem: 263 60<609.702 731.263>
LayerCount: 4
Back
Fore
SplineSet
263 676 m 4
 263 718 239 750 190 750 c 4
 166 750 132 746 99 717 c 4
 96 713 l 5
 60 758 l 5
 63 761 l 4
 103 799 156 807 190 807 c 4
 275 807 323 749 323 676 c 4
 323 646 318 614 278 563 c 5
 147 391 l 5
 343 391 l 5
 343 334 l 5
 62 334 l 5
 62 374 l 5
 234 599 l 5
 256 629 263 650 263 676 c 4
EndSplineSet
Validated: 1
Layer: 2
Layer: 3
EndChar
StartChar: uni00B3
Encoding: 179 179 456
GlifName: uni00B_3
Width: 364
VWidth: 0
Flags: W
HStem: 254 66<88.8048 225.463> 473 66<126 216.25> 678 66<81.0138 219.215>
VStem: 241 70<557.112 659.774> 249 70<341.094 450.316>
LayerCount: 2
Back
Fore
SplineSet
89 655 m 1xf0
 48 708 l 1
 82 733 123 744 162 744 c 0
 196 744 233 736 263 712 c 0
 290 690 311 655 311 610 c 0xf0
 311 572 296 536 260 508 c 1
 300 480 319 438 319 395 c 0
 319 348 297 311 269 289 c 0
 238 263 198 254 162 254 c 0
 114 254 72 268 40 295 c 1
 83 346 l 1
 101 330 129 320 162 320 c 0
 186 320 209 326 224 338 c 0
 238 350 249 370 249 395 c 0xe8
 249 419 239 441 223 455 c 0
 206 470 188 473 135 473 c 2
 126 473 l 1
 126 539 l 1
 135 539 l 2
 185 539 201 542 217 555 c 0
 231 567 241 588 241 610 c 0
 241 633 231 651 217 662 c 0
 204 672 184 678 162 678 c 0
 135 678 108 670 89 655 c 1xf0
EndSplineSet
EndChar
StartChar: acute
Encoding: 180 180 168
GlifName: acute
Width: 336
Flags: W
HStem: 456 210
VStem: 50 236
LayerCount: 2
Back
Fore
SplineSet
204 666 m 1
 286 666 l 1
 121 456 l 1
 50 456 l 1
 204 666 l 1
EndSplineSet
EndChar
StartChar: mu
Encoding: 181 181 122
GlifName: mu
Width: 1030
VWidth: 0
Flags: W
HStem: -16 134<387.919 686.466>
VStem: 140 150<-414 112 217.927 1082> 780 150<214.423 1082>
AnchorPoint: "DoubleTop" 10 0 basechar 0
AnchorPoint: "Apos" 10 0 basechar 0
AnchorPoint: "Center" -20 0 basechar 0
AnchorPoint: "Bottom" 502 0 basechar 0
AnchorPoint: "Top" 502 975 basechar 0
LayerCount: 3
Back
Fore
SplineSet
140 1082 m 1
 290 1082 l 1
 290 496 l 2
 290 360 290 278 341 208 c 0
 380 154 448 118 535 118 c 0
 623 118 693 153 732 208 c 0
 780 276 780 360 780 496 c 2
 780 1082 l 1
 930 1082 l 1
 930 496 l 2
 930 351 930 238 861 134 c 0
 802 45 693 -16 555 -16 c 0
 448 -16 358 29 290 112 c 1
 290 -414 l 1
 140 -414 l 1
 140 1082 l 1
EndSplineSet
Validated: 1
Layer: 2
EndChar
StartChar: paragraph
Encoding: 182 182 422
Width: 525
VWidth: 0
Flags: W
HStem: 0 21G<198 272 376 450> 596 70<273.622 376>
VStem: 60 212<363.389 558.25> 198 74<0 272.696> 376 74<0 596>
LayerCount: 4
Back
Fore
SplineSet
450 666 m 1xe8
 450 0 l 1
 376 0 l 1
 376 596 l 1
 272 596 l 1
 272 0 l 1
 198 0 l 1
 198 265 l 1xd8
 121 288 60 358 60 461 c 0
 60 535 93 592 134 624 c 0
 187 665 242 666 317 666 c 6
 450 666 l 1xe8
EndSplineSet
Validated: 1
Layer: 2
Layer: 3
EndChar
StartChar: cedilla
Encoding: 184 184 189
GlifName: cedilla
Width: 547
Flags: W
HStem: -430 124<125.157 236.975> -20 20G<202.348 332>
VStem: 244 140<-299.515 -152.686>
AnchorPoint: "Bottom" 270 0 mark 0
LayerCount: 3
Back
Fore
SplineSet
174 -306 m 0
 220 -306 244 -269 244 -228 c 0
 244 -183 220 -156 169 -138 c 1
 208 0 l 1
 332 0 l 1
 304 -97 l 1
 344 -117 384 -160 384 -229 c 0
 384 -350 297 -430 178 -430 c 0
 145 -430 115 -423 89 -416 c 1
 127 -297 l 1
 145 -304 161 -306 174 -306 c 0
EndSplineSet
Validated: 1
Layer: 2
EndChar
StartChar: uni00B9
Encoding: 185 185 454
GlifName: uni00B_9
Width: 321
Flags: W
VStem: 161 70<260 656>
LayerCount: 2
Back
Fore
SplineSet
174 738 m 1
 231 738 l 1
 231 260 l 1
 161 260 l 1
 161 656 l 1
 100 625 l 1
 70 685 l 1
 174 738 l 1
EndSplineSet
EndChar
StartChar: ordmasculine
Encoding: 186 186 410
GlifName: ordmasculine
Width: 804
Flags: W
HStem: 654 118<284.199 519.801> 1314 118<284.199 519.801>
VStem: 100 132<824.61 1261.39> 572 132<824.61 1261.39>
LayerCount: 3
Back
Fore
SplineSet
402 1314 m 4
 341 1314 298 1292 271 1254 c 4
 233 1201 232 1128 232 1043 c 4
 232 958 233 885 271 832 c 4
 298 794 341 772 402 772 c 4
 463 772 506 794 533 832 c 4
 571 885 572 958 572 1043 c 4
 572 1128 571 1201 533 1254 c 4
 506 1292 463 1314 402 1314 c 4
402 1432 m 4
 493 1432 569 1399 619 1348 c 4
 693 1272 704 1176 704 1043 c 4
 704 910 693 814 619 738 c 4
 569 687 493 654 402 654 c 4
 311 654 235 687 185 738 c 4
 111 814 100 910 100 1043 c 4
 100 1176 111 1272 185 1348 c 4
 235 1399 311 1432 402 1432 c 4
EndSplineSet
Validated: 1
Layer: 2
EndChar
StartChar: guillemotright
Encoding: 200 187 128
Width: 545
Flags: W
LayerCount: 4
Back
Fore
SplineSet
322 437 m 5
 465 273 l 5
 465 227 l 5
 322 63 l 5
 250 63 l 5
 409 250 l 5
 250 437 l 5
 322 437 l 5
152 437 m 5
 295 273 l 5
 295 227 l 5
 152 63 l 5
 80 63 l 5
 239 250 l 5
 80 437 l 5
 152 437 l 5
EndSplineSet
Layer: 2
Layer: 3
EndChar
StartChar: onequarter
Encoding: 188 188 356
GlifName: onequarter
Width: 830
VWidth: 0
Flags: W
HStem: 0 21G<200 274.795 674 744> 110 66<546 674 744 785> 646 21G<134.755 231 549.205 624>
VStem: 161 70<188 584> 674 70<0 110 176 289>
LayerCount: 2
Back
Fore
SplineSet
174 666 m 1
 231 666 l 1
 231 188 l 1
 161 188 l 1
 161 584 l 1
 100 553 l 1
 70 613 l 1
 174 666 l 1
621 478 m 1
 694 478 l 1
 546 176 l 1
 674 176 l 1
 674 289 l 1
 744 289 l 1
 744 176 l 1
 785 176 l 1
 785 110 l 1
 744 110 l 1
 744 0 l 1
 674 0 l 1
 674 110 l 1
 467 110 l 1
 467 163 l 1
 621 478 l 1
560 667 m 1
 624 667 l 1
 264 0 l 1
 200 0 l 1
 560 667 l 1
EndSplineSet
EndChar
StartChar: threequarters
Encoding: 419 190 365
Width: 824
VWidth: 0
Flags: W
HStem: 0 21G<200 274.795 674 729> 96 55<573 674 729 763> 261 56<121.302 225.715> 443 56<131 223.391> 614 56<122.066 223.347>
VStem: 241 58<331.92 428.227 515.754 596.914> 674 55<0 96 151 249>
LayerCount: 4
Back
Fore
SplineSet
61 609 m 5
 102 663 155 670 178 670 c 4
 248 670 294 616 294 556 c 4
 294 521 276 489 255 472 c 5
 281 452 299 418 299 380 c 4
 299 317 252 261 178 261 c 4
 154 261 101 267 57 324 c 5
 102 359 l 5
 130 322 159 317 178 317 c 4
 217 317 241 346 241 380 c 4
 241 407 222 443 178 443 c 6
 131 443 l 5
 131 499 l 5
 178 499 l 6
 212 499 236 525 236 556 c 4
 236 586 213 614 178 614 c 4
 159 614 132 609 106 575 c 5
 61 609 l 5
626 402 m 1
 685 402 l 1
 573 151 l 1
 674 151 l 1
 674 249 l 1
 729 249 l 1
 729 151 l 1
 763 151 l 1
 763 96 l 1
 729 96 l 1
 729 0 l 1
 674 0 l 1
 674 96 l 1
 507 96 l 1
 507 134 l 1
 626 402 l 1
560 667 m 1
 624 667 l 1
 264 0 l 1
 200 0 l 1
 560 667 l 1
EndSplineSet
Layer: 2
Layer: 3
EndChar
StartChar: questiondown
Encoding: 191 191 92
Width: 383
VWidth: 0
Flags: W
HStem: -191 70<181.699 355.106> 386 102<207.227 292.773>
VStem: 60 74<-75.5912 60.4475> 199 102<394.227 479.773> 220 62<188.795 301.972>
LayerCount: 4
Back
Fore
SplineSet
222 302 m 1xe8
 280 302 l 1
 280 302 282 263 282 243 c 0
 282 177 253 129 192 92 c 0
 157 71 134 41 134 -8 c 0
 134 -77 182 -121 262 -121 c 0
 317 -121 359 -102 382 -81 c 1
 425 -136 l 1
 391 -167 334 -191 262 -191 c 0
 136 -191 60 -119 60 -8 c 0
 60 61 91 109 142 141 c 0
 193 173 218 202 220 254 c 2
 222 302 l 1xe8
250 488 m 0
 280 488 301 467 301 437 c 0
 301 407 280 386 250 386 c 0
 220 386 199 407 199 437 c 0xf0
 199 467 220 488 250 488 c 0
EndSplineSet
Validated: 1
Layer: 2
Layer: 3
EndChar
StartChar: AE
Encoding: 174 198 41
Width: 792
Flags: W
HStem: 0 69<493 727> 165 70<237 422> 308 69<493 694> 597 70<493 717>
VStem: 422 71<69 165 235 308 377 588>
LayerCount: 4
Back
Fore
SplineSet
114 0 m 1
 35 0 l 1
 389 667 l 1
 717 667 l 1
 717 597 l 1
 493 597 l 1
 493 377 l 1
 694 377 l 1
 694 308 l 1
 493 308 l 1
 493 69 l 1
 727 69 l 1
 727 0 l 1
 422 0 l 1
 422 165 l 1
 201 165 l 1
 114 0 l 1
422 588 m 1
 237 235 l 1
 422 235 l 1
 422 588 l 1
EndSplineSet
Layer: 2
Layer: 3
EndChar
StartChar: Eth
Encoding: 208 208 345
GlifName: E_th
Width: 1237
Flags: W
HStem: 0 140<376 819.172> 652 140<60 220 376 616> 1276 140<376 819.172>
VStem: 220 156<140 652 792 1276> 971 156<323.645 1092.36>
LayerCount: 3
Back
Fore
SplineSet
60 652 m 5
 60 792 l 5
 220 792 l 5
 220 1416 l 5
 579 1416 l 6
 656 1416 729 1416 808 1393 c 4
 938 1355 1023 1258 1068 1156 c 4
 1127 1022 1127 853 1127 708 c 4
 1127 563 1127 394 1068 260 c 4
 1023 158 938 61 808 23 c 4
 729 0 656 0 579 0 c 6
 220 0 l 5
 220 652 l 5
 60 652 l 5
376 792 m 5
 616 792 l 5
 616 652 l 5
 376 652 l 5
 376 140 l 5
 579 140 l 6
 653 140 744 140 804 175 c 4
 971 271 971 497 971 708 c 4
 971 919 971 1145 804 1241 c 4
 744 1276 653 1276 579 1276 c 6
 376 1276 l 5
 376 792 l 5
EndSplineSet
Validated: 1
Layer: 2
EndChar
StartChar: multiply
Encoding: 215 215 360
GlifName: multiply
Width: 520
Flags: W
HStem: 94 312
VStem: 104 312
LayerCount: 2
Back
Fore
SplineSet
146 94 m 1
 104 136 l 1
 219 250 l 1
 104 364 l 1
 146 406 l 1
 260 291 l 1
 374 406 l 1
 416 364 l 1
 301 250 l 1
 416 136 l 1
 374 94 l 1
 260 209 l 1
 146 94 l 1
EndSplineSet
EndChar
StartChar: Oslash
Encoding: 216 216 42
GlifName: O_slash
Width: 1258
VWidth: 0
Flags: W
HStem: -19 140<452.207 803.055> 1295 140<452.945 804.725> 1460 20G<1005 1049.94>
VStem: 130 156<333.181 1104.26> 970 156<311.742 1082.08>
LayerCount: 3
Back
Fore
SplineSet
241 -64 m 1
 129 4 l 1
 231 173 l 1
 133 316 130 531 130 708 c 0
 130 856 130 1038 196 1180 c 0
 265 1329 412 1435 628 1435 c 0
 754 1435 856 1399 933 1340 c 1
 1017 1480 l 1
 1129 1412 l 1
 1026 1241 l 1
 1124 1104 1126 882 1126 708 c 0
 1126 560 1126 378 1060 236 c 0
 991 87 844 -19 628 -19 c 0
 503 -19 401 16 324 75 c 1
 241 -64 l 1
628 1295 m 0
 483 1295 387 1229 340 1127 c 0
 287 1012 286 850 286 708 c 0
 286 581 287 439 325 328 c 1
 856 1212 l 1
 803 1264 727 1295 628 1295 c 0
932 1086 m 1
 401 203 l 1
 454 152 530 121 628 121 c 0
 773 121 869 187 916 289 c 0
 969 404 970 566 970 708 c 0
 970 834 969 975 932 1086 c 1
EndSplineSet
Validated: 1
Layer: 2
EndChar
StartChar: Thorn
Encoding: 222 222 362
Width: 522
VWidth: 0
Flags: W
HStem: 0 21G<75 148> 128 70<149 343.812> 468 70<149 343.812> 647 20G<75 149>
VStem: 75 74<0 128 198 468 538 667> 393 74<247.852 418.148>
LayerCount: 4
Back
Fore
SplineSet
262 538 m 2
 380 538 467 477 467 333 c 0
 467 189 380 128 262 128 c 2
 148 128 l 1
 148 0 l 1
 75 0 l 1
 75 667 l 1
 149 667 l 1
 149 538 l 1
 262 538 l 2
262 198 m 2
 343 198 393 237 393 333 c 0
 393 429 343 468 262 468 c 2
 149 468 l 1
 149 198 l 1
 262 198 l 2
EndSplineSet
Validated: 1
Layer: 2
Layer: 3
EndChar
StartChar: germandbls
Encoding: 223 223 363
Width: 505
VWidth: 0
Flags: W
HStem: -6 66<211.915 342.944> 339 66<224 284.11> 607 66<165.41 295.288>
VStem: 65 70<0 577.133> 327 70<447.094 575.429> 385 70<102.319 299.182>
LayerCount: 4
Back
Fore
SplineSet
195 5 m 5xf4
 216 68 l 5
 233 63 251 60 269 60 c 4
 307 60 339 73 358 95 c 4
 385 126 385 160 385 194 c 6
 385 205 l 6xf4
 385 240 385 272 361 302 c 4
 332 339 278 339 240 339 c 6
 224 339 l 5
 224 339 224 405 224 405 c 5
 282 405 327 455 327 514 c 4
 327 547 312 573 292 588 c 4
 275 600 253 607 230 607 c 4
 209 607 177 601 156 576 c 4
 135 551 135 521 135 495 c 6
 135 0 l 5
 65 0 l 5
 65 495 l 6
 65 548 76 589 104 620 c 4
 132 651 176 673 230 673 c 4
 259 673 296 667 332 642 c 4
 368 617 397 571 397 514 c 4xf8
 397 465 376 420 347 391 c 5
 377 379 406 361 427 328 c 4
 455 284 455 240 455 205 c 6
 455 194 l 6
 455 158 455 103 414 55 c 4
 383 19 333 -6 269 -6 c 4
 243 -6 218 -2 195 5 c 5xf4
EndSplineSet
Layer: 2
Layer: 3
EndChar
StartChar: aring
Encoding: 229 229 152
GlifName: aring
Width: 1020
VWidth: 0
Flags: W
HStem: -16 134<325.376 616.88> 0 21G<720 870> 527 124<327.926 720> 964 134<406.546 563.1> 1292 106<407.491 562.509>
VStem: 100 150<193.031 451.983> 276 118<1108.71 1280.06> 576 118<1109.04 1280.06> 720 150<0 115 226.409 527 651 879.435>
LayerCount: 3
Back
SplineSet
250 321 m 4xbc
 250 214 322 118 465 118 c 4
 568 118 665 166 701 279 c 4
 720 339 720 404 720 527 c 5
 575 527 l 6
 481 527 431 527 385 513 c 4
 297 486 250 411 250 321 c 4xbc
870 651 m 6
 870 0 l 5
 720 0 l 5x7c
 720 115 l 5
 651 36 564 -16 445 -16 c 4
 240 -16 100 131 100 321 c 4
 100 461 183 584 335 630 c 4
 404 651 473 651 569 651 c 6
 720 651 l 5
 720 743 720 787 704 829 c 4
 669 922 581 964 485 964 c 4
 392 964 297 927 222 891 c 5
 165 1015 l 5
 255 1056 362 1098 485 1098 c 4
 657 1098 805 1014 854 851 c 4
 870 798 870 740 870 651 c 6
485 1292 m 4
 433 1292 394 1260 394 1195 c 4
 394 1130 433 1098 485 1098 c 4
 537 1098 576 1130 576 1195 c 4
 576 1260 537 1292 485 1292 c 4
485 1398 m 4
 610 1398 694 1307 694 1195 c 4
 694 1083 610 992 485 992 c 4
 360 992 276 1083 276 1195 c 4
 276 1307 360 1398 485 1398 c 4
EndSplineSet
Fore
SplineSet
485 1398 m 0xbf80
 610 1398 694 1307 694 1195 c 0
 694 1146 675 1102 641 1066 c 1
 742 1039 822 957 854 851 c 0
 870 798 870 740 870 651 c 2
 870 0 l 1
 720 0 l 1x7f80
 720 115 l 1
 651 36 564 -16 445 -16 c 0
 240 -16 100 131 100 321 c 0
 100 461 183 584 335 630 c 0
 404 651 473 651 569 651 c 2
 720 651 l 1
 720 743 720 787 704 829 c 0
 669 922 581 964 485 964 c 0
 392 964 297 927 222 891 c 1
 165 1015 l 1
 214 1035 267 1061 325 1071 c 1
 294 1105 276 1148 276 1195 c 0
 276 1307 360 1398 485 1398 c 0xbf80
485 1292 m 0
 433 1292 394 1260 394 1195 c 0
 394 1130 433 1098 485 1098 c 0
 537 1098 576 1130 576 1195 c 0
 576 1260 537 1292 485 1292 c 0
250 321 m 0
 250 214 322 118 465 118 c 0xbf80
 568 118 665 166 701 279 c 0
 720 339 720 404 720 527 c 1
 575 527 l 2
 481 527 431 527 385 513 c 0
 297 486 250 411 250 321 c 0
EndSplineSet
Validated: 1
Layer: 2
Substitution2: "'ss01' subtable" aring.alt
EndChar
StartChar: ae
Encoding: 230 230 111
GlifName: ae
Width: 1570
VWidth: 0
Flags: W
HStem: -16 134<299.219 580.923 937.328 1307.09> 509 124<831 1320> 527 124<301.777 686> 964 134<265.361 597.95 937.246 1211.59>
VStem: 80 150<187.449 456.103> 686 144<235.331 509 651 847.602> 1320 150<633 847.41>
LayerCount: 3
Back
Fore
SplineSet
230 321 m 0xbe
 230 255 256 199 293 167 c 0
 329 135 381 118 435 118 c 0
 520 118 589 153 626 207 c 0
 681 286 686 358 686 527 c 1
 505 527 l 0
 410 527 349 524 294 477 c 0
 256.81077058 445.220113041 230 388 230 321 c 0xbe
686 651 m 1
 686 766 680 813 646 868 c 0
 608 931 537 964 455 964 c 0
 358.616 964 272.272 924 204 892 c 1
 145 1015 l 1
 227 1057 346 1098 455 1098 c 0
 599 1098 713 1036 766 929 c 1
 821 1029 932 1098 1073 1098 c 0
 1224 1098 1343 1018 1403 920 c 0
 1461 825 1470 727 1470 579 c 2
 1470 509 l 1
 830 509 l 1xde
 830 394 834 296 882 221 c 0
 922 157 994 118 1095 118 c 0
 1202 118 1305 159 1372 191 c 1
 1431 68 l 1
 1346 28 1226 -16 1095 -16 c 0
 939 -16 824 49 759 159 c 1
 696 49 581 -16 435 -16 c 0
 348 -16 256 11 187 73 c 0
 125 129 80 213 80 321 c 0
 80 423 123 508 185 562 c 0
 286 651 412 651 505 651 c 0
 686 651 l 1
831 633 m 1
 1320 633 l 1
 1320 719 1305 808 1266 864 c 0
 1225 923 1161 964 1073 964 c 0
 983 964 919 918 883 863 c 0
 844 804 832 721 831 633 c 1
EndSplineSet
Layer: 2
EndChar
StartChar: eth
Encoding: 240 240 364
Width: 485
VWidth: 0
Flags: W
HStem: -6 66<169.401 310.599> 418 66<170.026 310.814>
VStem: 55 70<108.117 370.608> 355 70<108.117 370.313>
AnchorPoint: "DoubleTop" 0 0 basechar 0
AnchorPoint: "Center" 0 0 basechar 0
AnchorPoint: "Top" 0 0 basechar 0
AnchorPoint: "Apos" 488 667 basechar 0
AnchorPoint: "Bottom" 230 0 basechar 0
LayerCount: 4
Back
Fore
SplineSet
240 418 m 4
 217 418 181 412 157 385 c 4
 125 349 125 295 125 239 c 4
 125 183 125 129 157 93 c 4
 181 66 217 60 240 60 c 4
 263 60 299 66 323 93 c 4
 355 129 355 183 355 239 c 4
 355 295 355 349 323 385 c 4
 299 412 263 418 240 418 c 4
235 484 m 4
 277 484 314 467 344 439 c 5
 332 498 307 549 276 589 c 5
 189 541 l 5
 163 587 l 5
 238 628 l 5
 214 648 187 664 159 674 c 5
 177 723 l 5
 220 709 259 687 292 658 c 5
 381 707 l 5
 407 661 l 5
 331 620 l 5
 395 535 425 420 425 239 c 4
 425 184 425 120 390 68 c 4
 357 19 300 -6 240 -6 c 4
 180 -6 123 19 90 68 c 4
 55 120 55 184 55 239 c 4
 55 310 55 372 102 427 c 4
 131 461 178 484 235 484 c 4
EndSplineSet
Validated: 1
Layer: 2
Layer: 3
EndChar
StartChar: divide
Encoding: 247 247 88
GlifName: divide
Width: 1100
Flags: W
HStem: 136 188<468.891 631.109> 474 134<140 960> 758 188<468.891 631.109>
VStem: 456 188<148.891 311.109 770.891 933.109>
CounterMasks: 1 e0
LayerCount: 2
Back
Fore
SplineSet
550 324 m 4
 605 324 644 285 644 230 c 4
 644 175 605 136 550 136 c 4
 495 136 456 175 456 230 c 4
 456 285 495 324 550 324 c 4
140 608 m 5
 960 608 l 5
 960 474 l 5
 140 474 l 5
 140 608 l 5
550 946 m 4
 605 946 644 907 644 852 c 4
 644 797 605 758 550 758 c 4
 495 758 456 797 456 852 c 4
 456 907 495 946 550 946 c 4
EndSplineSet
EndChar
StartChar: oslash
Encoding: 191 248 124
Width: 490
VWidth: 0
Flags: W
HStem: -6 64<173.298 317.516> 419 64<172.484 316.702>
VStem: 55 68<117.832 367.723> 367 68<109.277 359.168>
AnchorPoint: "Bottom" 5 0 basechar 0
AnchorPoint: "Center" 5 0 basechar 0
AnchorPoint: "Top" 250 546 basechar 0
LayerCount: 4
Back
SplineSet
387 507 m 5
 445 507 l 5
 103 -30 l 5
 45 -30 l 5
 387 507 l 5
EndSplineSet
Fore
SplineSet
435 258 m 2
 435 219 l 2
 435 180.631835938 434.647460938 152.936523438 426.731445312 124 c 0
 404.713867188 43.517578125 339.631835938 -6 245 -6 c 0
 202.39372598 -6 166.77734375 6.0380859375 137.384765625 24.419921875 c 1
 103 -30 l 1
 45 -30 l 1
 99.9638671875 56.7333984375 l 1
 83.6455078125 75.953125 70.5814646513 97.26859923 63.2685546875 124 c 0
 55.3525390625 152.936523438 55 180.631835938 55 219 c 2
 55 258 l 2
 55 296.368164062 55.3526620146 324.063271591 63.2688535136 352.999994145 c 0
 85.2864208027 433.482665141 150.367736235 483 245 483 c 0
 287.606466915 483 323.22265625 470.961914062 352.615234375 452.580078125 c 1
 387 507 l 1
 445 507 l 1
 390.036132812 420.266601562 l 1
 406.354492188 401.046875 419.418253909 379.73142724 426.731143278 353.000005855 c 0
 434.647334777 324.063283302 435 296.368164062 435 258 c 2
367 219 m 2
 367 258 l 2
 367 297.655273438 366.674804688 325.658203125 354.329101562 353 c 0
 353.319449048 355.236155543 352.245195597 357.427672113 351.107690189 359.572601261 c 2
 172.565387335 79.2298625702 l 1
 191.963093695 65.692677581 216.534481719 58 245 58 c 0
 297.109375 58 336.168945312 83.779296875 354.329101562 124 c 0
 366.674804688 151.341796875 367 179.344726562 367 219 c 2
317.434612665 397.77013743 m 1
 298.036906305 411.307322419 273.465518281 419 245 419 c 0
 192.890625 419 153.831054688 393.220703125 135.670898438 353 c 0
 123.325195312 325.658203125 123 297.655273438 123 258 c 2
 123 219 l 2
 123 179.344726562 123.325195312 151.341796875 135.670898438 124 c 0
 136.680550952 121.763844457 137.754804403 119.572327887 138.892309811 117.427398739 c 2
 317.434612665 397.77013743 l 1
EndSplineSet
Validated: 1048577
Layer: 2
Layer: 3
EndChar
StartChar: thorn
Encoding: 254 254 364
GlifName: thorn
Width: 490
Flags: W
HStem: -6 66<179.319 320.56> 418 66<179.319 320.56> 646 20G<65 135>
VStem: 65 70<-183 55 107.175 370.825 423 666> 365 70<106.975 371.025>
LayerCount: 2
Back
Fore
SplineSet
250 418 m 0
 212 418 183 404 165 383 c 0
 135 348 135 293 135 239 c 0
 135 185 135 130 165 95 c 0
 183 74 212 60 250 60 c 0
 288 60 317 74 335 95 c 0
 365 130 365 185 365 239 c 0
 365 293 365 348 335 383 c 0
 317 404 288 418 250 418 c 0
255 484 m 0
 314 484 361 460 390 425 c 0
 435 371 435 305 435 239 c 0
 435 173 435 107 390 53 c 0
 361 18 314 -6 255 -6 c 0
 206 -6 162 17 135 55 c 1
 135 -183 l 1
 65 -183 l 1
 65 666 l 1
 135 666 l 1
 135 423 l 1
 162 461 206 484 255 484 c 0
EndSplineSet
EndChar
StartChar: amacron
Encoding: 257 257 205
GlifName: amacron
Width: 1020
VWidth: 0
Flags: W
HStem: -16 134<325.376 616.88> 527 124<327.926 720> 964 134<286.747 632.331> 1252 134<200 770>
VStem: 100 150<193.031 451.983> 720 150<0 115 226.409 527 651 879.435>
LayerCount: 3
Back
Fore
SplineSet
200 1386 m 1
 770 1386 l 1
 770 1252 l 1
 200 1252 l 1
 200 1386 l 1
EndSplineSet
Refer: 489 97 N 1 0 0 1 0 0 3
Validated: 1
Layer: 2
Substitution2: "'ss01' subtable" amacron.alt
EndChar
StartChar: Aogonek
Encoding: 260 260 367
Width: 610
VWidth: 0
UnlinkRmOvrlpSave: 1
Flags: W
HStem: -193 56<468.449 550.546> 0 21G<35 117.909> 165 70<190 420> 647 20G<265.864 344.136>
VStem: 409 56<-134.268 -47.7>
LayerCount: 4
Back
Fore
SplineSet
305 571 m 1
 190 235 l 1
 420 235 l 1
 305 571 l 1
273 667 m 1
 337 667 l 1
 575 0 l 1
 527 -13 465 -41 465 -100 c 0
 465 -121 480 -137 501 -137 c 0
 513 -137 526 -132 540 -123 c 1
 570 -171 l 1
 551 -182 528 -193 501 -193 c 0
 449 -193 409 -152 409 -100 c 0
 409 -48 452 -16 498 4 c 1
 442 165 l 1
 168 165 l 1
 111 0 l 1
 35 0 l 1
 273 667 l 1
EndSplineSet
Layer: 2
Layer: 3
EndChar
StartChar: dcroat
Encoding: 273 273 372
Width: 517
VWidth: 0
Flags: W
HStem: -6 66<170.026 310.809> 418 66<170.026 310.809> 546 62<239 355 425 487> 646 20G<355 425>
VStem: 55 70<107.392 370.608> 355 70<0 51 107.312 370.688 427 546 608 666>
LayerCount: 4
Back
Fore
SplineSet
235 484 m 0
 283 484 324 462 355 427 c 1
 355 546 l 1
 239 546 l 1
 239 608 l 1
 355 608 l 1
 355 666 l 1
 425 666 l 1
 425 608 l 1
 487 608 l 1
 487 546 l 1
 425 546 l 1
 425 0 l 1
 355 0 l 1
 355 51 l 1
 324 16 283 -6 235 -6 c 0
 178 -6 131 17 102 51 c 0
 55 106 55 168 55 239 c 0
 55 310 55 372 102 427 c 0
 131 461 178 484 235 484 c 0
240 418 m 0
 217 418 181 412 157 385 c 0
 125 349 125 295 125 239 c 0
 125 183 125 129 157 93 c 0
 181 66 217 60 240 60 c 0
 263 60 299 66 323 93 c 0
 355 129 355 183 355 239 c 0
 355 295 355 349 323 385 c 0
 299 412 263 418 240 418 c 0
EndSplineSet
Validated: 1
Layer: 2
Layer: 3
EndChar
StartChar: Hbar
Encoding: 294 294 373
GlifName: H_bar
Width: 710
VWidth: 0
Flags: W
HStem: 0 21G<134 205 503 574> 310 66<205 503> 544 62<75 134 205 503 574 635> 646 20G<134 205 503 574>
VStem: 134 71<0 310 376 544 606 666> 503 71<0 310 376 544 606 666>
LayerCount: 2
Back
Fore
SplineSet
134 666 m 1
 205 666 l 1
 205 606 l 1
 503 606 l 1
 503 666 l 1
 574 666 l 1
 574 606 l 1
 635 606 l 1
 635 544 l 1
 574 544 l 1
 574 0 l 1
 503 0 l 1
 503 310 l 1
 205 310 l 1
 205 0 l 1
 134 0 l 1
 134 544 l 1
 75 544 l 1
 75 606 l 1
 134 606 l 1
 134 666 l 1
205 544 m 1
 205 376 l 1
 503 376 l 1
 503 544 l 1
 205 544 l 1
EndSplineSet
EndChar
StartChar: hbar
Encoding: 295 295 375
Width: 530
VWidth: 0
Flags: W
HStem: 0 21G<110 180 400 470> 418 66<221.859 357.952> 546 62<30 110 180 290> 646 20G<110 180>
VStem: 110 70<0 375.445 433 546 608 666> 400 70<0 373.432>
LayerCount: 4
Back
Fore
SplineSet
295 484 m 4
 354 484 404 458 434 417 c 4
 470 368 470 310 470 239 c 6
 470 0 l 5
 400 0 l 5
 400 239 l 6
 400 300 400 344 377 377 c 4
 356 407 321 418 290 418 c 4
 259 418 224 407 203 377 c 4
 180 344 180 300 180 239 c 6
 180 0 l 5
 110 0 l 5
 110 546 l 5
 30 546 l 5
 30 608 l 5
 110 608 l 5
 110 666 l 5
 180 666 l 5
 180 608 l 5
 290 608 l 5
 290 546 l 5
 180 546 l 5
 180 433 l 5
 210 464 249 484 295 484 c 4
EndSplineSet
Validated: 1
Layer: 2
Layer: 3
EndChar
StartChar: iogonek
Encoding: 303 303 377
Width: 210
VWidth: 0
UnlinkRmOvrlpSave: 1
Flags: W
HStem: -189 56<38.4486 120.546> 550 94<64.5618 145.438>
VStem: -21 56<-130.268 -43.7704> 58 94<556.897 637.103> 70 70<-2.8851 478>
LayerCount: 4
Back
Fore
SplineSet
105 644 m 0xf0
 132 644 152 625 152 597 c 0
 152 569 132 550 105 550 c 0
 78 550 58 569 58 597 c 0
 58 625 78 644 105 644 c 0xf0
140 0 m 1xe8
 94 -12 35 -39 35 -96 c 0
 35 -117 50 -133 71 -133 c 0
 83 -133 96 -128 110 -119 c 1
 140 -167 l 1
 121 -178 98 -189 71 -189 c 0
 19 -189 -21 -148 -21 -96 c 0
 -21 -44 24 -12 70 7 c 1
 70 478 l 1
 140 478 l 1
 140 0 l 1xe8
EndSplineSet
Layer: 2
Layer: 3
EndChar
StartChar: dotlessi
Encoding: 305 305 156
GlifName: dotlessi
Width: 210
VWidth: 0
Flags: W
HStem: 0 21G<70 140>
VStem: 70 70<0 478>
AnchorPoint: "Center" -2 0 basechar 0
AnchorPoint: "Apos" -2 0 basechar 0
AnchorPoint: "DoubleTop" -2 0 basechar 0
AnchorPoint: "Bottom" 105 0 basechar 0
AnchorPoint: "Top" 105 477 basechar 0
LayerCount: 4
Back
Fore
SplineSet
70 478 m 5
 140 478 l 5
 140 0 l 1
 70 0 l 1
 70 478 l 5
EndSplineSet
Validated: 1
Layer: 2
Layer: 3
EndChar
StartChar: IJ
Encoding: 437 306 384
Width: 652
VWidth: 0
Flags: W
HStem: -6 70<317.811 454.411> 647 20G<85 159 503 577>
VStem: 85 74<0 667> 503 74<118.264 667>
LayerCount: 4
Back
Fore
SplineSet
503 667 m 1
 577 667 l 1
 577 200 l 1
 577 59 481 -6 392 -6 c 0
 364 -6 283 -6 211 88 c 1
 268 132 l 1
 320 64 370 64 392 64 c 0
 444 64 503 107 503 200 c 1
 503 667 l 1
159 667 m 1
 159 0 l 1
 85 0 l 1
 85 667 l 1
 159 667 l 1
EndSplineSet
Layer: 2
Layer: 3
EndChar
StartChar: ij
Encoding: 307 307 378
GlifName: ij
Width: 394
VWidth: 0
Flags: W
HStem: -189 66<133.716 242.609> 0 21G<70 140> 550 94<64.5618 145.671 248.562 329.438>
VStem: 58 94<556.897 637.103> 70 70<0 477> 242 94<556.897 637.103> 254 70<-101.295 478>
LayerCount: 2
Back
Fore
SplineSet
254 478 m 1xea
 324 478 l 1
 324 -21 l 2
 324 -83 324 -116 291 -151 c 0
 270 -173 237 -189 193 -189 c 0
 167 -189 141 -183 114 -172 c 1
 140 -111 l 1
 158 -119 177 -123 193 -123 c 0
 213 -123 232 -117 243 -102 c 0
 254 -87 254 -69 254 -21 c 2
 254 478 l 1xea
289 644 m 0
 316 644 336 625 336 597 c 0
 336 569 316 550 289 550 c 0
 262 550 242 569 242 597 c 0xe4
 242 625 262 644 289 644 c 0
105 644 m 0
 133 644 152 625 152 597 c 0
 152 569 133 550 105 550 c 0
 78 550 58 569 58 597 c 0xf0
 58 625 78 644 105 644 c 0
70 477 m 1xe8
 140 477 l 1
 140 0 l 1
 70 0 l 1
 70 477 l 1xe8
EndSplineSet
EndChar
StartChar: kgreenlandic
Encoding: 245 312 381
GlifName: kgreenlandic
Width: 955
Flags: W
HStem: 0 21G<140 290 720.327 915>
VStem: 140 150<0 287 489 1082>
AnchorPoint: "Bottom" 469 0 basechar 0
LayerCount: 3
Back
Fore
SplineSet
140 1082 m 1
 290 1082 l 1
 290 489 l 1
 729 1082 l 1
 905 1082 l 1
 504 547 l 1
 915 0 l 1
 735 0 l 1
 410 443 l 1
 290 287 l 1
 290 0 l 1
 140 0 l 1
 140 1082 l 1
EndSplineSet
Layer: 2
EndChar
StartChar: Lcaron
Encoding: 307 317 251
Width: 520
VWidth: 0
Flags: W
HStem: 0 70<159 465> 653 14G<85 159 279.5 304.5>
VStem: 85 74<70 667> 241 102<579.194 664.877>
LayerCount: 4
Back
Fore
SplineSet
292 673 m 0
 317 673 343 657 343 622 c 0
 343 616 342 599 334 576 c 2
 289 456 l 1
 244 456 l 1
 273 574 l 1
 255 580 241 596 241 622 c 0
 241 657 267 673 292 673 c 0
85 667 m 1
 159 667 l 1
 159 70 l 1
 465 70 l 1
 465 0 l 1
 85 0 l 1
 85 667 l 1
EndSplineSet
Layer: 2
Layer: 3
EndChar
StartChar: ldot
Encoding: 310 320 254
Width: 360
VWidth: 0
Flags: W
HStem: 0 21G<75 145> 282 102<216.227 301.773> 647 20G<75 145>
VStem: 75 70<0 667> 208 102<290.227 375.773>
LayerCount: 4
Back
Fore
SplineSet
75 667 m 1
 145 667 l 1
 145 0 l 1
 75 0 l 1
 75 667 l 1
259 384 m 4
 289 384 310 363 310 333 c 4
 310 303 289 282 259 282 c 4
 229 282 208 303 208 333 c 4
 208 363 229 384 259 384 c 4
EndSplineSet
Layer: 2
Layer: 3
EndChar
StartChar: Lslash
Encoding: 321 321 362
GlifName: L_slash
Width: 1057
VWidth: 0
Flags: W
HStem: 0 140<413 977> 1396 20G<257 413>
VStem: 257 156<140 623 892 1416>
LayerCount: 3
Back
Fore
SplineSet
565 998 m 1
 641 890 l 1
 413 731 l 1
 413 140 l 1
 977 140 l 1
 977 0 l 1
 257 0 l 1
 257 623 l 1
 141 542 l 1
 65 650 l 1
 257 784 l 1
 257 1416 l 1
 413 1416 l 1
 413 892 l 1
 565 998 l 1
EndSplineSet
Validated: 1
Layer: 2
EndChar
StartChar: lslash
Encoding: 322 322 363
GlifName: lslash
Width: 656
VWidth: 0
Flags: W
HStem: -16 134<414.125 501.64>
VStem: 258 150<132.663 640 899 1496>
LayerCount: 3
Back
Fore
SplineSet
117 542 m 5
 45 646 l 5
 258 794 l 5
 258 1496 l 5
 408 1496 l 5
 408 899 l 5
 539 990 l 5
 611 886 l 5
 408 745 l 5
 408 191 l 6
 408 169 408 146 419 132 c 4
 427 122 438 118 454 118 c 4
 468 118 484 120 500 124 c 5
 524 -4 l 5
 497 -12 467 -16 432 -16 c 4
 376 -16 328 11 296 50 c 4
 258 96 258 158 258 191 c 6
 258 640 l 5
 117 542 l 5
EndSplineSet
Validated: 1
Layer: 2
Substitution2: "'ss03' subtable" lslash.alt
EndChar
StartChar: Eng
Encoding: 330 330 365
GlifName: E_ng
Width: 1246
VWidth: 0
Flags: W
HStem: -433 140<753.587 918.767> 0 21G<156 312>
VStem: 156 156<0 1136> 934 156<-253.824 -2 280 1416>
LayerCount: 3
Back
Fore
SplineSet
934 1416 m 1
 1090 1416 l 1
 1090 -121 l 2
 1090 -223 1085 -268 1056 -319 c 0
 1015 -391 938 -433 837 -433 c 0
 797 -433 754 -425 713 -408 c 1
 764 -277 l 1
 787 -287 814 -293 840 -293 c 0
 873 -293 902 -281 918 -255 c 0
 933 -230 934 -199 934 -121 c 2
 934 -2 l 1
 312 1136 l 1
 312 0 l 1
 156 0 l 1
 156 1416 l 1
 313 1416 l 1
 934 280 l 1
 934 1416 l 1
EndSplineSet
Validated: 1
Layer: 2
EndChar
StartChar: eng
Encoding: 331 331 384
Width: 485
VWidth: 0
Flags: HW
HStem: -191 66<231.15 340.283> 0 21G<45 115> 417 66<170.335 305.895>
VStem: 45 70<0 358.787 417 477> 355 70<-108.729 361.55>
LayerCount: 4
Back
Fore
SplineSet
293 -125 m 0
 336.198242188 -125 355 -92.89453125 355 -47 c 2
 355 258 l 2
 355 297.655273438 354.922851562 325.872070312 344.671875 353 c 0
 329.47265625 393.223632812 297.109375 417 245 417 c 0
 192.890625 417 160.52734375 393.223632812 145.328125 353 c 0
 135.077148438 325.872070312 135 297.655273438 135 258 c 2
 135 0 l 1
 65 0 l 1
 65 477 l 1
 135 477 l 1
 135 432.325195312 l 1
 160.708984375 464.55859375 199.786132812 483 255 483 c 0
 340.008789062 483 398.021484375 433.483398438 417.641601562 353 c 0
 424.74609375 323.853515625 425 296.368164062 425 258 c 2
 425 -47 l 2
 425 -136.948242188 377.264648438 -191 293 -191 c 0
 259 -191 231 -182 207 -164 c 1
 243 -108 l 1
 259 -120 275 -125 293 -125 c 0
EndSplineSet
Layer: 2
Layer: 3
EndChar
StartChar: OE
Encoding: 338 338 192
GlifName: O_E_
Width: 1630
VWidth: 0
Flags: W
HStem: -19 140<405.956 729.152> 0 140<911 1510> 652 140<1026 1440> 1276 140<911 1510> 1295 140<405.956 729.152>
VStem: 110 156<278.996 1137> 870 156<279.347 652 792 1137.45>
LayerCount: 3
Back
Fore
SplineSet
568 1295 m 0xae
 430 1295 345 1230 306 1128 c 0
 266 1024 266 855 266 708 c 0
 266 561 266 392 306 288 c 0
 345 186 430 121 568 121 c 0
 706 121 791 186 830 288 c 0
 870 392 870 561 870 708 c 0
 870 855 870 1024 830 1128 c 0
 791 1230 706 1295 568 1295 c 0xae
1026 652 m 1
 1025 451 1016 261 911 140 c 1
 1510 140 l 1
 1510 0 l 1
 701 0 l 1x76
 661 -12 616 -19 568 -19 c 0
 359 -19 217 89 159 242 c 0
 110 371 110 546 110 708 c 0
 110 870 110 1045 159 1174 c 0
 217 1327 359 1435 568 1435 c 0xae
 616 1435 661 1428 701 1416 c 1
 1510 1416 l 1
 1510 1276 l 1
 911 1276 l 1x36
 1012 1162 1024 984 1026 792 c 1
 1440 792 l 5
 1440 652 l 5
 1026 652 l 1
EndSplineSet
Validated: 1
Layer: 2
EndChar
StartChar: oe
Encoding: 339 339 102
Width: 740
VWidth: 0
Flags: W
HStem: -6 64<168.31 292.64 447.455 608.647> 220 60<401 619> 419 64<168.31 293.132 445.177 573.274>
VStem: 55 68<105.732 371.268> 337 64<113.273 220 280 368.807> 619 66<280 367.801>
LayerCount: 4
Back
Fore
SplineSet
123 288 m 2
 123 189 l 2
 123 111 164 58 230 58 c 0
 296 58 337 111 337 189 c 2
 337 288 l 2
 337 366 296 419 230 419 c 0
 164 419 123 366 123 288 c 2
55 288 m 2
 55 406 122 483 230 483 c 0
 291 483 341 453 369 401 c 1
 393 454 438 483 510 483 c 0
 633 483 685 399 685 258 c 2
 685 220 l 1
 401 220 l 1
 401 121 438 56 515 56 c 0
 554 56 592 67 629 92 c 1
 663 39 l 1
 618 7 572 -6 515 -6 c 0
 444 -6 397 24 370 79 c 1
 343 25 293 -6 230 -6 c 0
 122 -6 55 71 55 189 c 2
 55 288 l 2
619 280 m 1
 617 363 580 421 510 421 c 0
 440 421 403 363 401 280 c 1
 619 280 l 1
EndSplineSet
Validated: 1
Layer: 2
Layer: 3
EndChar
StartChar: Tbar
Encoding: 358 358 385
Width: 560
VWidth: 0
Flags: W
HStem: 0 21G<243 317> 272 62<148 243 317 412> 596 70<55 243 317 505>
VStem: 243 74<0 272 334 596>
LayerCount: 4
Back
Fore
SplineSet
55 666 m 5
 505 666 l 5
 505 596 l 5
 317 596 l 5
 317 334 l 1
 412 334 l 1
 412 272 l 1
 317 272 l 1
 317 0 l 1
 243 0 l 1
 243 272 l 1
 148 272 l 1
 148 334 l 1
 243 334 l 1
 243 596 l 5
 55 596 l 5
 55 666 l 5
EndSplineSet
Validated: 1
Layer: 2
Layer: 3
EndChar
StartChar: tbar
Encoding: 445 359 386
Width: 410
VWidth: 0
Flags: W
HStem: 0 66<241.424 342> 262 56<45 164 230 365> 415 62<102 164 230 322>
VStem: 164 66<78.4111 262 318 415 477 571>
LayerCount: 4
Back
Fore
SplineSet
230 477 m 1
 322 477 l 1
 322 415 l 1
 230 415 l 1
 230 318 l 1
 365 318 l 1
 365 262 l 1
 230 262 l 1
 230 130 l 2
 230 85 257 66 282 66 c 2
 342 66 l 1
 342 0 l 1
 282 0 l 2
 223 0 164 41 164 130 c 2
 164 262 l 1
 45 262 l 1
 45 318 l 1
 164 318 l 1
 164 415 l 1
 102 415 l 1
 102 477 l 1
 164 477 l 1
 164 571 l 1
 230 571 l 1
 230 477 l 1
EndSplineSet
Validated: 1
Layer: 2
Layer: 3
EndChar
StartChar: longs
Encoding: 383 383 470
GlifName: longs
Width: 525
Flags: W
HStem: 0 21G<140 290> 1378 134<324.63 543.272>
VStem: 140 150<0 1344.23>
LayerCount: 3
Back
Fore
SplineSet
140 1143 m 6
 140 1248 140 1325 195 1403 c 4
 240 1466 318 1512 425 1512 c 4
 471 1512 520 1504 565 1495 c 5
 538 1363 l 5
 505 1371 460 1378 425 1378 c 4
 375 1378 343 1361 321 1330 c 4
 290 1286 290 1234 290 1143 c 6
 290 0 l 5
 140 0 l 5
 140 1143 l 6
EndSplineSet
Validated: 1
Layer: 2
EndChar
StartChar: uni018F
Encoding: 399 399 373
GlifName: uni018F_
Width: 1196
VWidth: 0
Flags: W
HStem: -19 140<425.071 770.929> 602 140<267 929> 1295 140<400.598 769.549>
VStem: 110 157<303.884 602> 929 157<302.86 602 742 1109.25>
LayerCount: 3
Back
Fore
SplineSet
598 1435 m 0
 807 1435 954 1334 1025 1178 c 0
 1082 1053 1086 876 1086 708 c 0
 1086 543 1083 367 1025 238 c 0
 957 86 812 -19 598 -19 c 0
 384 -19 239 85 171 238 c 0
 111 373 110 544 110 742 c 1
 930 742 l 1
 929 882 923 1025 880 1125 c 0
 834 1230 743 1295 598 1295 c 0
 478 1295 384 1251 304 1194 c 1
 224 1314 l 1
 319 1381 444 1435 598 1435 c 0
929 602 m 1
 267 602 l 1
 270 476 280 373 316 291 c 0
 362 186 453 121 598 121 c 0
 743 121 834 186 880 291 c 0
 916 374 926 486 929 602 c 1
EndSplineSet
Validated: 1
Layer: 2
EndChar
StartChar: florin
Encoding: 402 402 120
GlifName: florin
Width: 575
Flags: W
HStem: -428 134<4.65113 173.635> 958 124<40 190 340 540> 1378 134<374.602 593.292>
VStem: 190 150<-252.784 958 1082 1344.23>
LayerCount: 3
Back
Fore
SplineSet
190 1143 m 6
 190 1248 190 1325 245 1403 c 4
 289.615234375 1466.27246094 368 1512 475 1512 c 4
 520.694335938 1512 570.27734375 1504.44433594 615 1495 c 5
 588 1363 l 5
 554.518554688 1370.5 509.52734375 1378 475 1378 c 4
 425 1378 393.271484375 1361.46972656 371 1330 c 4
 340 1286.19726562 340 1234 340 1143 c 6
 340 1082 l 5
 540 1082 l 5
 540 958 l 5
 340 958 l 5
 340 -119 l 6
 340 -206 340 -256 307 -315 c 4
 268 -385 191 -428 95 -428 c 4
 48.904296875 -428 9.5322265625 -419.857421875 -26 -409 c 5
 12 -279 l 5
 36.474609375 -287.077148438 65.205078125 -294 95 -294 c 4
 134 -294 158 -280 173 -254 c 4
 188 -228 190 -206 190 -119 c 6
 190 958 l 5
 40 958 l 5
 40 1082 l 5
 190 1082 l 5
 190 1143 l 6
EndSplineSet
Layer: 2
EndChar
StartChar: Ohorn
Encoding: 416 416 724
Width: 1280
VWidth: 0
Flags: HW
HStem: 0 21G<180 336 944 1100> 652 140<336 944> 1396 20G<180 336 944 1100>
VStem: 180 156<0 652 792 1416> 944 156<0 652 792 1416>
LayerCount: 3
Back
Fore
SplineSet
180 1416 m 5
 1100 1416 l 5
 1100 0 l 5
 180 0 l 5
 180 1416 l 5
EndSplineSet
Layer: 2
EndChar
StartChar: uni01A9
Encoding: 425 425 369
GlifName: uni01A_9
Width: 510
VWidth: 0
Flags: W
HStem: 0 70<147 450> 596 70<147 449>
LayerCount: 2
Back
Fore
SplineSet
299 328 m 1
 147 70 l 1
 450 70 l 1
 450 0 l 1
 60 0 l 1
 60 50 l 1
 232 342 l 1
 60 616 l 1
 60 666 l 1
 449 666 l 1
 449 596 l 1
 147 596 l 1
 299 358 l 1
 299 328 l 1
EndSplineSet
EndChar
StartChar: Uhorn
Encoding: 431 431 726
Width: 1320
VWidth: 0
Flags: W
HStem: -19 140<454.716 781.284> 1113 110<1076 1184.33> 1396 20G<160 316 920 1076>
VStem: 160 156<260.535 1416> 920 156<260.535 1113 1223 1416> 1230 140<1275.11 1550>
AnchorPoint: "Bottom" 618 0 basechar 0
AnchorPoint: "Top" 618 1416 basechar 0
LayerCount: 3
Back
Fore
SplineSet
160 1416 m 5
 316 1416 l 5
 316 515 l 6
 316 430 316 369 336 310 c 4
 385 166 516 121 618 121 c 4
 720 121 851 166 900 310 c 4
 920 369 920 430 920 515 c 6
 920 1416 l 5
 1076 1416 l 5
 1076 1223 l 5
 1126 1223 1165 1243 1190 1273 c 4
 1227 1318 1230 1357 1230 1425 c 6
 1230 1550 l 5
 1370 1550 l 5
 1370 1425 l 6
 1370 1347 1365 1282 1307 1212 c 4
 1259 1154 1176 1113 1076 1113 c 5
 1076 515 l 6
 1076 425 1076 349 1050 270 c 4
 982 63 804 -19 618 -19 c 4
 432 -19 254 63 186 270 c 4
 160 349 160 425 160 515 c 6
 160 1416 l 5
EndSplineSet
Validated: 1
Layer: 2
EndChar
StartChar: uhorn
Encoding: 432 432 725
Width: 1184
VWidth: 0
Flags: W
HStem: -16 134<397.605 692.395> 779 110<940 1048.33> 1062 20G<150 300 790 940>
VStem: 150 150<219.022 1082> 790 150<219.022 779 889 1082> 1094 140<941.105 1216>
AnchorPoint: "Top" 540 1082 basechar 0
AnchorPoint: "Bottom" 540 0 basechar 0
LayerCount: 3
Back
Fore
SplineSet
150 1082 m 5
 300 1082 l 5
 300 457 l 6
 300 370 300 322 315 276 c 4
 349 170 442 118 545 118 c 4
 648 118 741 170 775 276 c 4
 790 322 790 370 790 457 c 6
 790 1082 l 5
 940 1082 l 5
 940 889 l 5
 990 889 1029 909 1054 939 c 4
 1091 984 1094 1023 1094 1091 c 6
 1094 1216 l 5
 1234 1216 l 5
 1234 1091 l 6
 1234 1013 1229 948 1171 878 c 4
 1123 820 1040 779 940 779 c 5
 940 447 l 6
 940 366 940 292 913 219 c 4
 857 67 724 -16 545 -16 c 4
 366 -16 233 67 177 219 c 4
 150 292 150 366 150 447 c 6
 150 1082 l 5
EndSplineSet
Validated: 1
Layer: 2
EndChar
StartChar: uni01C6
Encoding: 447 454 395
Width: 845
VWidth: 0
Flags: W
HStem: 0 66<161.159 318.458 556 790> 417 66<169.782 312.006 470 704> 647 20G<355 425>
VStem: 55 70<105.809 371.191> 355 70<0 45 105.518 371.482 432 667>
LayerCount: 4
Back
Fore
SplineSet
425 667 m 1
 425 0 l 1
 355 0 l 1
 355 45 l 1
 328 12 288 -6 230 -6 c 0
 145 -6 84 44 63 124 c 0
 55 153 55 181 55 219 c 2
 55 258 l 2
 55 296 55 324 63 353 c 0
 84 433 145 483 230 483 c 0
 288 483 328 465 355 432 c 1
 355 667 l 1
 425 667 l 1
240 417 m 0
 188 417 153 393 136 353 c 0
 125 326 125 298 125 258 c 2
 125 219 l 2
 125 179 125 151 136 124 c 0
 153 84 188 60 240 60 c 0
 292 60 326 83 343 123 c 0
 355 151 355 179 355 219 c 2
 355 258 l 2
 355 298 355 326 343 354 c 0
 326 394 292 417 240 417 c 0
351 736 m 1
 256 857 l 1
 322 857 l 1
 390 780 l 1
 458 857 l 1
 524 857 l 1
 429 736 l 1
 351 736 l 1
556 66 m 1
 790 66 l 1
 790 0 l 1
 470 0 l 1
 470 50 l 1
 704 411 l 1
 470 411 l 1
 470 477 l 1
 790 477 l 1
 790 427 l 1
 556 66 l 1
EndSplineSet
Validated: 1
Layer: 2
Layer: 3
EndChar
StartChar: uni01C7
Encoding: 454 455 402
Width: 946
VWidth: 0
Flags: W
HStem: 0 70<159 465 602.589 753.656> 647 20G<85 159 797 871>
VStem: 85 74<70 667> 797 74<118.264 667>
LayerCount: 4
Back
Fore
SplineSet
797 667 m 1
 871 667 l 1
 871 200 l 1
 871 59 775 -6 686 -6 c 0
 658 -6 577 -6 505 88 c 1
 562 132 l 1
 614 64 664 64 686 64 c 0
 738 64 797 107 797 200 c 1
 797 667 l 1
85 667 m 1
 159 667 l 1
 159 70 l 1
 465 70 l 1
 465 0 l 1
 85 0 l 1
 85 667 l 1
EndSplineSet
Layer: 2
Layer: 3
EndChar
StartChar: uni01C8
Encoding: 455 456 403
Width: 665
VWidth: 0
Flags: W
HStem: -190 62<436 504.346> 0 70<159 465> 540 94<508.562 589.671> 647 20G<85 159>
VStem: 85 74<70 667> 502 94<546.897 627.103> 516 70<-117.855 477>
LayerCount: 4
Back
Fore
SplineSet
549 634 m 0xfc
 577 634 596 615 596 587 c 0
 596 559 577 540 549 540 c 0
 522 540 502 559 502 587 c 0
 502 615 522 634 549 634 c 0xfc
586 -60 m 2xfa
 586 -149 525 -190 466 -190 c 2
 436 -190 l 1
 436 -128 l 1
 466 -128 l 2
 491 -128 516 -109 516 -60 c 2
 516 477 l 1
 586 477 l 1
 586 -60 l 2xfa
85 667 m 1
 159 667 l 1
 159 70 l 1
 465 70 l 1
 465 0 l 1
 85 0 l 1
 85 667 l 1
EndSplineSet
Layer: 2
Layer: 3
EndChar
StartChar: uni01C9
Encoding: 456 457 398
Width: 345
VWidth: 0
Flags: W
HStem: -190 62<125 193.346> 0 21G<65 135> 540 94<198.562 279.671> 647 20G<65 135>
VStem: 65 70<0 667> 192 94<546.897 627.103> 205 70<-117.855 477>
LayerCount: 4
Back
Fore
SplineSet
239 634 m 0xfc
 267 634 286 615 286 587 c 0
 286 559 267 540 239 540 c 0
 212 540 192 559 192 587 c 0
 192 615 212 634 239 634 c 0xfc
275 -60 m 2xfa
 275 -149 214 -190 155 -190 c 2
 125 -190 l 1
 125 -128 l 1
 155 -128 l 2
 180 -128 205 -109 205 -60 c 2
 205 477 l 1
 275 477 l 1
 275 -60 l 2xfa
65 667 m 1
 135 667 l 1
 135 0 l 1
 65 0 l 1
 65 667 l 1
EndSplineSet
Validated: 1
Layer: 2
Layer: 3
EndChar
StartChar: uni01CA
Encoding: 457 458 399
Width: 1007
VWidth: 0
Flags: W
HStem: -6 70<672.811 809.411> 647 20G<85 159.577 449 521 858 932>
VStem: 85 72<0 520> 449 72<147 667> 858 74<118.264 667>
LayerCount: 4
Back
Fore
SplineSet
858 667 m 1
 932 667 l 1
 932 200 l 1
 932 59 836 -6 747 -6 c 0
 719 -6 638 -6 566 88 c 1
 623 132 l 1
 675 64 725 64 747 64 c 0
 799 64 858 107 858 200 c 1
 858 667 l 1
85 667 m 1
 148 667 l 1
 449 147 l 1
 449 667 l 1
 521 667 l 1
 521 0 l 1
 458 0 l 1
 157 520 l 1
 157 0 l 1
 85 0 l 1
 85 667 l 1
EndSplineSet
Layer: 2
Layer: 3
EndChar
StartChar: uni01CB
Encoding: 452 459 400
Width: 722
VWidth: 0
Flags: W
HStem: -190 62<502 570.346> 0 21G<75 147 436.423 511> 540 94<575.562 656.671> 647 20G<75 149.577 439 511>
VStem: 75 72<0 520> 439 72<147 667> 569 94<546.897 627.103> 582 70<-117.855 477>
LayerCount: 4
Back
Fore
SplineSet
616 634 m 0xfe
 644 634 663 615 663 587 c 0
 663 559 644 540 616 540 c 0
 589 540 569 559 569 587 c 0
 569 615 589 634 616 634 c 0xfe
652 -60 m 2xfd
 652 -149 591 -190 532 -190 c 2
 502 -190 l 1
 502 -128 l 1
 532 -128 l 2
 557 -128 582 -109 582 -60 c 2
 582 477 l 1
 652 477 l 1
 652 -60 l 2xfd
75 667 m 1
 138 667 l 1
 439 147 l 1
 439 667 l 1
 511 667 l 1
 511 0 l 1
 448 0 l 1
 147 520 l 1
 147 0 l 1
 75 0 l 1
 75 667 l 1
EndSplineSet
Validated: 1
Layer: 2
Layer: 3
EndChar
StartChar: uni01CC
Encoding: 460 460 401
Width: 657
VWidth: 0
Flags: W
HStem: -191 66<392.15 501.283> 0 21G<65 135 375 445> 417 66<190.335 325.895> 540 94<510.562 591.671>
VStem: 65 70<0 358.787 417 477> 375 70<0 361.55> 504 94<546.897 627.103> 516 70<-108.729 477>
LayerCount: 4
Back
Fore
SplineSet
586 -47 m 22xfd
 586 -68 585 -83 580 -101 c 4
 565 -157 518 -191 454 -191 c 4
 420 -191 392 -182 368 -164 c 5
 404 -108 l 5
 420 -120 436 -125 454 -125 c 4
 479 -125 498 -113 508 -93 c 4
 515 -79 516 -66 516 -47 c 6
 516 477 l 5
 586 477 l 5
 586 -47 l 22xfd
270 483 m 0
 366 483 445 417 445 273 c 2
 445 0 l 1
 375 0 l 1
 375 272 l 2
 375 371 322 417 260 417 c 0
 198 417 135 371 135 273 c 2
 135 0 l 1
 65 0 l 1
 65 477 l 1
 135 477 l 1
 135 417 l 1
 167 461 216 483 270 483 c 0
551 634 m 0
 579 634 598 615 598 587 c 0
 598 559 579 540 551 540 c 0
 524 540 504 559 504 587 c 0xfe
 504 615 524 634 551 634 c 0
EndSplineSet
Validated: 1
Layer: 2
Layer: 3
EndChar
StartChar: uni01D5
Encoding: 469 469 736
Width: 1236
VWidth: 0
HStem: -19 140<454.716 781.284> 1396 20G<160 316 920 1076> 1581 188<345.891 508.109 727.891 890.109> 1891 134<333 903>
VStem: 160 156<260.535 1416> 920 156<260.535 1416>
LayerCount: 5
Back
Fore
SplineSet
333 2025 m 1
 903 2025 l 1
 903 1891 l 1
 333 1891 l 1
 333 2025 l 1
EndSplineSet
Refer: 139 220 N 1 0 0 1 0 0 3
Layer: 2
Layer: 3
Layer: 4
EndChar
StartChar: uni01D6
Encoding: 470 470 737
Width: 1090
VWidth: 0
HStem: -16 134<397.605 692.395> 1062 20G<150 300 790 940> 1247 188<272.891 435.109 654.891 817.109> 1557 134<260 830>
VStem: 150 150<219.022 1082> 790 150<219.022 1082>
LayerCount: 5
Back
Fore
SplineSet
260 1691 m 1
 830 1691 l 1
 830 1557 l 1
 260 1557 l 1
 260 1691 l 1
EndSplineSet
Refer: 135 252 N 1 0 0 1 0 0 3
Layer: 2
Layer: 3
Layer: 4
EndChar
StartChar: uni01D8
Encoding: 472 472 739
Width: 1090
VWidth: 0
HStem: -16 134<397.605 692.395> 1062 20G<150 300 790 940> 1247 188<272.891 435.109 654.891 817.109>
VStem: 150 150<219.022 1082> 790 150<219.022 1082>
LayerCount: 5
Back
Fore
SplineSet
789 1831 m 1
 624 1557 l 1
 466 1557 l 1
 620 1831 l 1
 789 1831 l 1
EndSplineSet
Refer: 135 252 N 1 0 0 1 0 0 3
Layer: 2
Layer: 3
Layer: 4
EndChar
StartChar: uni01DC
Encoding: 476 476 741
Width: 1100
VWidth: 0
Flags: W
HStem: -16 134<398.283 691.717> 1062 20G<150 300 790 940> 1247 188<272.891 435.109 654.891 817.109>
VStem: 150 150<221.022 1082> 260 188<1259.89 1422.11> 642 188<1259.89 1422.11> 790 150<221.022 1082>
LayerCount: 3
Back
Fore
SplineSet
301 1831 m 1xe0
 470 1831 l 1
 624 1557 l 1
 466 1557 l 1
 301 1831 l 1xe0
EndSplineSet
Refer: 135 252 N 1 0 0 1 0 0 3
Validated: 1
Layer: 2
EndChar
StartChar: uni01DD
Encoding: 477 477 546
GlifName: uni01D_D_
Width: 490
Flags: W
HStem: -6 66<172.319 317.681> 193 62<126 364> 418 66<127.3 317.715>
VStem: 55 71<106.798 193> 364 71<106.605 193 255 371.752>
AnchorPoint: "DoubleTop" 0 0 basechar 0
AnchorPoint: "Apos" 0 0 basechar 0
AnchorPoint: "Center" 5 0 basechar 0
AnchorPoint: "Bottom" 250 0 basechar 0
AnchorPoint: "Top" 245 477 basechar 0
LayerCount: 4
Back
Fore
SplineSet
245 60 m 0
 285 60 320 75 340 103 c 0
 358 128 364 167 364 193 c 1
 126 193 l 1
 126 167 132 128 150 103 c 0
 170 75 205 60 245 60 c 0
235 484 m 4
 311 484 368 456 400 409 c 0
 435 358 435 300 435 239 c 0
 435 183 435 120 400 69 c 0
 365 18 306 -6 245 -6 c 0
 184 -6 125 18 90 69 c 0
 55 120 55 183 55 255 c 9
 365 255 l 1
 365 286 365 341 340 375 c 0
 316 408 275 418 235 418 c 0
 192 418 150 409 113 390 c 1
 84 450 l 1
 135 475 189 484 235 484 c 4
EndSplineSet
Validated: 1
Layer: 2
Layer: 3
EndChar
StartChar: uni01F1
Encoding: 460 497 402
Width: 1002
VWidth: 0
Flags: W
HStem: 0 70<159 372.672 609 942> 597 70<159 372.672 532 844>
VStem: 85 74<70 597> 440 74<136.489 528.141>
LayerCount: 4
Back
Fore
SplineSet
532 667 m 1
 932 667 l 1
 932 617 l 1
 609 70 l 1
 942 70 l 1
 942 0 l 1
 522 0 l 1
 522 50 l 1
 844 597 l 1
 532 597 l 1
 532 667 l 1
159 597 m 1
 159 70 l 1
 279 70 l 18
 369 70 440 110 440 228 c 2
 440 440 l 2
 440 557 369 597 279 597 c 10
 159 597 l 1
85 667 m 1
 279 667 l 2
 406 667 514 605 514 440 c 2
 514 238 l 2
 514 72 406 0 279 0 c 10
 85 0 l 1
 85 667 l 1
EndSplineSet
Validated: 1
Layer: 2
Layer: 3
EndChar
StartChar: uni01F2
Encoding: 461 498 409
Width: 938
VWidth: 0
Flags: W
HStem: 0 66<159 364.02 649 883> 411 66<563 797> 597 70<159 372.672>
VStem: 85 74<70 597> 440 74<136.489 528.141>
LayerCount: 4
Back
Fore
SplineSet
649 66 m 1
 883 66 l 1
 883 0 l 1
 563 0 l 1
 563 50 l 1
 797 411 l 1
 563 411 l 1
 563 477 l 1
 883 477 l 1
 883 427 l 1
 649 66 l 1
159 597 m 1
 159 70 l 1
 279 70 l 18
 369 70 440 110 440 228 c 2
 440 440 l 2
 440 557 369 597 279 597 c 10
 159 597 l 1
85 667 m 1
 279 667 l 2
 406 667 514 605 514 440 c 2
 514 238 l 2
 514 72 406 0 279 0 c 10
 85 0 l 1
 85 667 l 1
EndSplineSet
Layer: 2
Layer: 3
EndChar
StartChar: uni01F3
Encoding: 462 499 404
Width: 865
VWidth: 0
Flags: W
HStem: 0 66<173.854 326.457 576 810> 417 66<181.684 319.665 490 724> 647 20G<375 443>
VStem: 55 70<120.972 355.551> 375 68<0 59 118.213 358.524 417 667>
LayerCount: 4
Back
Fore
SplineSet
375 667 m 1
 443 667 l 1
 443 0 l 1
 375 0 l 1
 375 59 l 1
 343 15 294 -6 240 -6 c 0
 143 -6 55 61 55 204 c 2
 55 272 l 2
 55 416 143 483 240 483 c 0
 294 483 343 461 375 417 c 1
 375 667 l 1
250 417 m 0
 188 417 125 371 125 273 c 2
 125 204 l 2
 125 106 188 60 250 60 c 0
 312 60 375 106 375 204 c 2
 375 272 l 2
 375 371 312 417 250 417 c 0
576 66 m 1
 810 66 l 1
 810 0 l 1
 490 0 l 1
 490 50 l 1
 724 411 l 1
 490 411 l 1
 490 477 l 1
 810 477 l 1
 810 427 l 1
 576 66 l 1
EndSplineSet
Validated: 1
Layer: 2
Layer: 3
EndChar
StartChar: uni0228
Encoding: 552 552 551
Width: 500
VWidth: 0
HStem: -182.7 52<187.462 276.453> 0 70<149 231.02 275.127 435> 308 70<149 385> 596 70<149 435>
VStem: 75 74<70 308 378 596> 289 56<-123.545 -66.799>
LayerCount: 4
Back
Fore
SplineSet
192 -121.700195312 m 1
 206 -127.700195312 221 -130.700195312 233 -130.700195312 c 0
 242 -130.700195312 255 -130.700195312 269 -123.700195312 c 0
 281 -116.700195312 289 -106.700195312 289 -93.7001953125 c 0
 289 -83.7001953125 284 -73.7001953125 273 -67.7001953125 c 0
 265 -63.7001953125 257 -63.7001953125 248 -63.7001953125 c 2
 211 -63.7001953125 l 1
 231.020061384 0 l 1
 75 0 l 1
 75 666 l 1
 435 666 l 1
 435 596 l 1
 149 596 l 1
 149 378 l 1
 385 378 l 1
 385 308 l 1
 149 308 l 1
 149 70 l 1
 435 70 l 1
 435 0 l 1
 275.127085093 0 l 1
 266 -30.7001953125 l 1
 287 -30.7001953125 303 -30.7001953125 322 -43.7001953125 c 0
 337 -54.7001953125 345 -72.7001953125 345 -92.7001953125 c 0
 345 -120.700195312 330 -142.700195312 314 -156.700195312 c 0
 296 -171.700195312 267 -182.700195312 233 -182.700195312 c 0
 215 -182.700195312 195 -179.700195312 176 -171.700195312 c 1
 192 -121.700195312 l 1
EndSplineSet
Validated: 524289
Layer: 2
Layer: 3
EndChar
StartChar: uni0229
Encoding: 553 553 549
GlifName: uni0229
Width: 480
VWidth: 0
HStem: -189 52<177.462 266.453> -5 65<171.462 222 265 352.534> 219 62<126 354> 418 66<170.993 309.007>
VStem: 55 70<106.967 219 281 370.641> 279 56<-129.845 -73.0988> 354 71<281 372.151>
LayerCount: 2
Back
Fore
SplineSet
182 -128 m 1
 196 -134 211 -137 223 -137 c 0
 232 -137 245 -137 259 -130 c 0
 271 -123 279 -113 279 -100 c 0
 279 -90 274 -80 263 -74 c 0
 255 -70 247 -70 238 -70 c 2
 201 -70 l 1
 222 -5 l 1
 162 1 118 28 90 68 c 0
 58 115 55 168 55 240 c 0
 55 310 58 362 90 410 c 0
 122 458 179 484 240 484 c 0
 301 484 358 458 390 410 c 0
 422 362 425 310 425 240 c 2
 425 219 l 1
 125 219 l 1
 125 181 127 133 150 102 c 0
 170 75 204 60 250 60 c 0
 291 60 332 70 369 89 c 1
 398 29 l 1
 358 9 311 -4 265 -6 c 1
 256 -37 l 1
 277 -37 293 -37 312 -50 c 0
 327 -61 335 -79 335 -99 c 0
 335 -127 320 -149 304 -163 c 0
 286 -178 257 -189 223 -189 c 0
 205 -189 185 -186 166 -178 c 1
 182 -128 l 1
240 418 m 0
 202 418 169 403 150 376 c 0
 131 349 127 314 126 281 c 1
 354 281 l 1
 353 314 349 349 330 376 c 0
 311 403 278 418 240 418 c 0
EndSplineSet
EndChar
StartChar: uni0237
Encoding: 567 567 417
Width: 209
VWidth: 0
Flags: W
HStem: -191 66<-55.8497 53.283>
VStem: 68 70<-108.729 477>
LayerCount: 4
Back
Fore
SplineSet
138 -47 m 18
 138 -68 137 -83 132 -101 c 0
 117 -157 70 -191 6 -191 c 0
 -28 -191 -56 -182 -80 -164 c 1
 -44 -108 l 1
 -28 -120 -12 -125 6 -125 c 0
 31 -125 50 -113 60 -93 c 0
 67 -79 68 -66 68 -47 c 2
 68 477 l 1
 138 477 l 1
 138 -47 l 18
EndSplineSet
Validated: 1
Layer: 2
Layer: 3
EndChar
StartChar: uni0259
Encoding: 601 601 396
Width: 490
Flags: W
HStem: -6 66<170.269 319.731> 193 62<125 365> 417 66<130.57 318.614>
VStem: 55 70<106.057 193> 365 70<106.057 193 255 371.64>
AnchorPoint: "DoubleTop" 0 0 basechar 0
AnchorPoint: "Apos" 0 0 basechar 0
AnchorPoint: "Center" 5 0 basechar 0
AnchorPoint: "Bottom" 250 0 basechar 0
AnchorPoint: "Top" 245 477 basechar 0
LayerCount: 4
Back
Fore
SplineSet
125 193 m 1
 125 162 127 126 153 97 c 0
 173 75 205 60 245 60 c 0
 285 60 317 75 337 97 c 0
 363 126 365 162 365 193 c 1
 125 193 l 1
235 483 m 0
 308 483 359 458 392 421 c 0
 435 372 435 317 435 279 c 2
 435 199 l 2
 435 161 435 106 392 56 c 0
 362 21 310 -6 245 -6 c 0
 180 -6 128 21 98 56 c 0
 55 106 55 161 55 199 c 2
 55 255 l 1
 365 255 l 1
 365 279 l 2
 365 312 365 350 336 381 c 0
 312 406 277 417 235 417 c 0
 193 417 150 407 113 387 c 1
 79 445 l 1
 127 470 181 483 235 483 c 0
EndSplineSet
Validated: 1
Layer: 2
Layer: 3
EndChar
StartChar: circumflex
Encoding: 246 710 143
Width: 398
Flags: W
HStem: 546 121
VStem: 50 298
AnchorPoint: "Top" 199 477 mark 0
LayerCount: 4
Back
Fore
SplineSet
199 619 m 1
 120 546 l 1
 50 546 l 1
 181 667 l 1
 217 667 l 1
 348 546 l 1
 278 546 l 1
 199 619 l 1
EndSplineSet
Layer: 2
Layer: 3
EndChar
StartChar: caron
Encoding: 255 711 198
Width: 398
Flags: W
HStem: 546 121
VStem: 50 298
AnchorPoint: "Top" 199 477 mark 0
LayerCount: 4
Back
Fore
SplineSet
199 609 m 1
 130 546 l 1
 50 546 l 1
 181 667 l 1
 217 667 l 1
 348 546 l 1
 268 546 l 1
 199 609 l 1
EndSplineSet
Validated: 1
Layer: 2
Layer: 3
EndChar
StartChar: breve
Encoding: 249 728 194
Width: 378
VWidth: 0
Flags: W
HStem: 540 50<122.758 255.492> 647 20G<50 98 281 328>
VStem: 50 48<614.672 667> 281 47<615.197 667>
AnchorPoint: "Top" 189 477 mark 0
LayerCount: 4
Back
Fore
SplineSet
50 667 m 0
 98 667 l 0
 98 621 134 590 189 590 c 0
 244 590 281 621 281 667 c 0
 328 667 l 0
 328 590 266 540 189 540 c 0
 112 540 50 590 50 667 c 0
EndSplineSet
Layer: 2
Layer: 3
EndChar
StartChar: dotaccent
Encoding: 250 729 196
Width: 194
VWidth: 0
Flags: W
HStem: 511 94<56.5618 137.671>
VStem: 50 94<517.897 598.103>
AnchorPoint: "Top" 97.5 517 mark 0
LayerCount: 4
Back
Fore
SplineSet
97 605 m 0
 125 605 144 586 144 558 c 0
 144 530 125 511 97 511 c 0
 70 511 50 530 50 558 c 0
 50 586 70 605 97 605 c 0
EndSplineSet
Layer: 2
Layer: 3
EndChar
StartChar: ring
Encoding: 730 730 196
GlifName: ring
Width: 658
VWidth: 0
Flags: W
HStem: 1012 106<251.491 406.509> 1312 106<251.491 406.509>
VStem: 120 118<1129.94 1300.06> 420 118<1129.94 1300.06>
AnchorPoint: "Center" 329 1082 mark 0
LayerCount: 3
Back
Fore
SplineSet
329 1312 m 0
 277 1312 238 1280 238 1215 c 0
 238 1150 277 1118 329 1118 c 0
 381 1118 420 1150 420 1215 c 0
 420 1280 381 1312 329 1312 c 0
329 1418 m 0
 454 1418 538 1327 538 1215 c 0
 538 1103 454 1012 329 1012 c 0
 204 1012 120 1103 120 1215 c 0
 120 1327 204 1418 329 1418 c 0
EndSplineSet
Validated: 1
Layer: 2
EndChar
StartChar: ogonek
Encoding: 731 731 371
GlifName: ogonek
Width: 544
VWidth: 0
Flags: W
HStem: -430 124<235.59 398.997>
VStem: 100 124<-297.881 -104.663>
AnchorPoint: "Bottom" 351 0 mark 0
LayerCount: 3
Back
Fore
SplineSet
224 -216 m 0
 224 -267 254 -306 305 -306 c 0
 333 -306 361 -293 379 -281 c 1
 444 -391 l 1
 406 -413 360 -430 305 -430 c 0
 175 -430 100 -340 100 -237 c 0
 100 -81 252 6 374 52 c 1
 426 0 l 1
 343 -30 224 -100 224 -216 c 0
EndSplineSet
Validated: 1
Layer: 2
EndChar
StartChar: tilde
Encoding: 247 732 183
Width: 392
Flags: W
HStem: 511 50<214.443 285.265> 570 50<107.219 176.475>
VStem: 50 50<517 563.061> 292 50<567.728 613>
AnchorPoint: "Top" 196 517 mark 0
LayerCount: 4
Back
SplineSet
74.55859375 534.018554688 m 21
 74.55859375 614.01953125 159.37109375 635.696289062 196 582 c 4
 232.62890625 528.303710938 317.44140625 549.98046875 317.44140625 629.981445312 c 1028
EndSplineSet
Fore
SplineSet
143 570 m 0
 116 570 100 549 100 517 c 1
 50 517 l 1
 50 572 85 620 141 620 c 0
 169 620 198 606 217 579 c 0
 226 566 238 561 251 561 c 0
 272 561 292 578 292 613 c 1
 342 613 l 1
 342 549 296 511 249 511 c 0
 221 511 194 523 175 551 c 0
 167 564 155 570 143 570 c 0
EndSplineSet
Layer: 2
Layer: 3
EndChar
StartChar: hungarumlaut
Encoding: 253 733 199
Width: 413
Flags: W
HStem: 517 131
VStem: 50 313
AnchorPoint: "Top" 176 517 mark 0
LayerCount: 4
Back
Fore
SplineSet
363 648 m 25
 257 517 l 1
 196 517 l 1
 291 648 l 25
 363 648 l 25
217 648 m 25
 111 517 l 1
 50 517 l 1
 145 648 l 25
 217 648 l 25
EndSplineSet
Layer: 2
Layer: 3
EndChar
StartChar: gravecomb
Encoding: 485 768 428
Width: 257
Flags: W
HStem: 546 121
VStem: 50 157
AnchorPoint: "Top" 156 477 mark 0
LayerCount: 4
Back
Fore
SplineSet
50 667 m 25
 132 667 l 25
 207 546 l 1
 136 546 l 1
 50 667 l 25
EndSplineSet
Layer: 2
Layer: 3
EndChar
StartChar: acutecomb
Encoding: 486 769 429
Width: 252
Flags: W
HStem: 546 121
VStem: 50 152
AnchorPoint: "DoubleTop" 86 546 mark 0
AnchorPoint: "Top" 96 477 mark 0
LayerCount: 4
Back
Fore
SplineSet
202 667 m 25
 116 546 l 5
 50 546 l 5
 125 667 l 25
 202 667 l 25
EndSplineSet
Layer: 2
Layer: 3
EndChar
StartChar: uni0302
Encoding: 521 770 481
Width: 398
Flags: W
HStem: 517 131
VStem: 50 298
AnchorPoint: "Top" 199 517 mark 0
LayerCount: 4
Back
Fore
SplineSet
199 595 m 1
 120 517 l 1
 50 517 l 1
 181 648 l 1
 217 648 l 1
 348 517 l 1
 278 517 l 1
 199 595 l 1
EndSplineSet
Layer: 2
Layer: 3
EndChar
StartChar: tildecomb
Encoding: 771 771 470
Width: 392
Flags: W
HStem: 550 50<214.443 285.265> 609 50<107.219 176.475>
VStem: 50 50<556 602.061> 292 50<606.728 652>
AnchorPoint: "Top" 196 477 mark 0
LayerCount: 4
Back
Fore
SplineSet
143 609 m 0
 116 609 100 588 100 556 c 1
 50 556 l 1
 50 611 85 659 141 659 c 0
 169 659 198 645 217 618 c 0
 226 605 238 600 251 600 c 0
 272 600 292 617 292 652 c 1
 342 652 l 1
 342 588 296 550 249 550 c 0
 221 550 194 562 175 590 c 0
 167 603 155 609 143 609 c 0
EndSplineSet
Validated: 1
Layer: 2
Layer: 3
EndChar
StartChar: uni0304
Encoding: 523 772 482
Width: 370
Flags: W
HStem: 518 56<50 320>
VStem: 50 270<518 574>
AnchorPoint: "Top" 186 517 mark 0
LayerCount: 4
Back
Fore
SplineSet
50 574 m 1
 320 574 l 1
 320 518 l 5
 50 518 l 5
 50 574 l 1
EndSplineSet
Layer: 2
Layer: 3
EndChar
StartChar: hookabovecomb
Encoding: 777 777 755
Width: 616
VWidth: 0
Flags: W
HStem: 1209 98<280 336.384> 1446 98<221.451 340.137>
VStem: 358 110<1314.23 1434.71>
AnchorPoint: "Top" 309 1082 mark 0
LayerCount: 3
Back
Fore
SplineSet
193 1530 m 5
 218 1538 248 1544 277 1544 c 4
 343 1544 393 1518 425 1481 c 4
 453.73804917 1447.77163065 468 1407 468 1366 c 4
 468 1310 443 1268 407 1241 c 4
 370.35685603 1213.51764202 328 1209 280 1209 c 5
 280 1307 l 5
 309 1307 323.877315146 1308.34940648 337 1319 c 4
 350 1329.55102041 358 1347.65306122 358 1371 c 4
 358 1392.5625 347.90451063 1417.70776596 329 1431 c 4
 317 1439.4375 302 1446 277 1446 c 4
 259 1446 242 1443 223 1436 c 5
 193 1530 l 5
EndSplineSet
Validated: 1
Layer: 2
EndChar
StartChar: uni030F
Encoding: 469 783 417
Width: 413
Flags: W
HStem: 517 131
VStem: 50 313
AnchorPoint: "Top" 237 517 mark 0
LayerCount: 4
Back
Fore
SplineSet
50 648 m 25
 122 648 l 25
 217 517 l 1
 156 517 l 1
 50 648 l 25
196 648 m 25
 268 648 l 25
 363 517 l 1
 302 517 l 1
 196 648 l 25
EndSplineSet
Layer: 2
Layer: 3
EndChar
StartChar: uni0311
Encoding: 785 785 413
GlifName: uni0311
Width: 348
VWidth: 0
Flags: W
HStem: 620 52<120.652 227.348>
VStem: 50 56<546 606.418> 242 56<546 606.418>
AnchorPoint: "Top" 173 478 mark 0
LayerCount: 2
Back
Fore
SplineSet
298 546 m 1
 242 546 l 1
 242 594 222 620 174 620 c 0
 126 620 106 594 106 546 c 1
 50 546 l 1
 50 623 95 672 174 672 c 0
 253 672 298 623 298 546 c 1
EndSplineSet
EndChar
StartChar: uni0312
Encoding: 545 786 479
Width: 202
VWidth: 0
Flags: W
HStem: 552 167<104 119.516>
VStem: 50 102<558.318 636.49>
AnchorPoint: "Top" 97.5 477 mark 0
LayerCount: 4
Back
Fore
SplineSet
101 552 m 4
 76 552 50 563 50 598 c 4
 50 604 50.0849609375 621.953125 59 638 c 6
 104 719 l 5
 149 719 l 5
 120 641 l 5
 138 635 152 624 152 598 c 4
 152 563 126 552 101 552 c 4
EndSplineSet
Layer: 2
Layer: 3
EndChar
StartChar: uni031B
Encoding: 795 795 759
Width: 535
Flags: W
HStem: 1031 110<120 228.683>
VStem: 275 140<1193.11 1468>
AnchorPoint: "hook" 121 1117 mark 0
LayerCount: 3
Back
Fore
SplineSet
120 1141 m 0
 170.560546875 1141 209.905273438 1160.41601562 235 1191 c 0
 271.922851562 1236 275 1275 275 1343 c 2
 275 1468 l 1
 415 1468 l 1
 415 1343 l 2
 415 1265 410 1200 352 1130 c 0
 304.041992188 1072.12011719 220 1031 120 1031 c 0
 120 1141 l 0
EndSplineSet
Validated: 1
Layer: 2
EndChar
StartChar: dotbelowcomb
Encoding: 803 803 435
GlifName: dotbelowcomb
Width: 194
VWidth: 0
Flags: W
HStem: -167 94<56.5618 137.438>
VStem: 50 94<-160.103 -79.8974>
AnchorPoint: "Bottom" 97 0 mark 0
LayerCount: 2
Back
Fore
SplineSet
97 -73 m 0
 124 -73 144 -92 144 -120 c 0
 144 -148 124 -167 97 -167 c 0
 70 -167 50 -148 50 -120 c 0
 50 -92 70 -73 97 -73 c 0
EndSplineSet
EndChar
StartChar: uni0326
Encoding: 555 806 487
Width: 202
Flags: W
HStem: -121 217<82.4844 98>
VStem: 50 102<2.13565 87.877>
AnchorPoint: "Bottom" 101 159 mark 0
LayerCount: 4
Back
Fore
SplineSet
101 96 m 4
 126 96 152 80 152 45 c 0
 152 39 151 23 143 0 c 2
 98 -121 l 1
 53 -121 l 1
 82 -3 l 1
 64 3 50 19 50 45 c 4
 50 80 76 96 101 96 c 4
EndSplineSet
Layer: 2
Layer: 3
EndChar
StartChar: tonos
Encoding: 900 900 491
GlifName: tonos
Width: 213
Flags: W
HStem: 546 120<85 116>
VStem: 50 113
AnchorPoint: "Top" 87 478 mark 0
LayerCount: 2
Back
Fore
SplineSet
163 666 m 25
 116 546 l 1
 50 546 l 1
 85 666 l 25
 163 666 l 25
EndSplineSet
EndChar
StartChar: dieresistonos
Encoding: 901 901 608
Width: 850
VWidth: 0
Flags: W
HStem: 1247 168<108.705 259.295 590.705 741.295>
VStem: 100 168<1255.7 1406.3> 582 168<1255.7 1406.3>
AnchorPoint: "Top" 425 1082 mark 0
LayerCount: 3
Back
Fore
SplineSet
569 1660 m 5
 483 1436 l 5
 357 1436 l 5
 409 1660 l 5
 569 1660 l 5
666 1415 m 4
 715 1415 750 1380 750 1331 c 4
 750 1282 715 1247 666 1247 c 4
 617 1247 582 1282 582 1331 c 4
 582 1380 617 1415 666 1415 c 4
184 1415 m 4
 233 1415 268 1380 268 1331 c 4
 268 1282 233 1247 184 1247 c 4
 135 1247 100 1282 100 1331 c 4
 100 1380 135 1415 184 1415 c 4
EndSplineSet
Validated: 1
Layer: 2
EndChar
StartChar: Epsilontonos
Encoding: 904 904 601
Width: 1242
VWidth: 0
Flags: W
HStem: 0 140<498 1122> 652 140<498 1042> 1276 140<498 1122>
VStem: 342 156<140 652 792 1276>
LayerCount: 2
Back
Fore
SplineSet
342 1416 m 5
 1122 1416 l 5
 1122 1276 l 5
 498 1276 l 5
 498 792 l 5
 1042 792 l 5
 1042 652 l 5
 498 652 l 5
 498 140 l 5
 1122 140 l 5
 1122 0 l 5
 342 0 l 5
 342 1416 l 5
252 1543 m 25
 156 1269 l 1
 30 1269 l 1
 82 1543 l 25
 252 1543 l 25
EndSplineSet
EndChar
StartChar: Etatonos
Encoding: 905 905 602
Width: 1422
VWidth: 0
Flags: W
HStem: 0 21G<342 498 1106 1262> 652 140<498 1106>
VStem: 342 156<0 652 792 1416> 1106 156<0 652 792 1416>
LayerCount: 2
Back
Fore
SplineSet
342 1416 m 5
 498 1416 l 5
 498 792 l 5
 1106 792 l 5
 1106 1416 l 5
 1262 1416 l 5
 1262 0 l 5
 1106 0 l 5
 1106 652 l 5
 498 652 l 5
 498 0 l 5
 342 0 l 5
 342 1416 l 5
252 1543 m 25
 156 1269 l 1
 30 1269 l 1
 82 1543 l 25
 252 1543 l 25
EndSplineSet
EndChar
StartChar: Iotatonos
Encoding: 906 906 603
Width: 658
VWidth: 0
Flags: W
HStem: 0 21G<342 498>
VStem: 342 156<0 1416>
LayerCount: 4
Back
Fore
SplineSet
498 1416 m 5
 498 0 l 5
 342 0 l 5
 342 1416 l 5
 498 1416 l 5
252 1543 m 25
 156 1269 l 1
 30 1269 l 1
 82 1543 l 25
 252 1543 l 25
EndSplineSet
Layer: 2
Layer: 3
EndChar
StartChar: Omicrontonos
Encoding: 908 908 604
Width: 1316
VWidth: 0
Flags: W
HStem: -19 140<532.945 883.055> 1295 140<532.945 883.055>
VStem: 210 156<311.742 1104.26> 1050 156<311.742 1104.26>
LayerCount: 2
Back
Fore
SplineSet
708 1435 m 4
 924 1435 1071 1329 1140 1180 c 4
 1206 1038 1206 856 1206 708 c 4
 1206 560 1206 378 1140 236 c 4
 1071 87 924 -19 708 -19 c 4
 492 -19 345 87 276 236 c 4
 210 378 210 560 210 708 c 4
 210 856 210 1038 276 1180 c 4
 345 1329 492 1435 708 1435 c 4
708 1295 m 4
 563 1295 467 1229 420 1127 c 4
 367 1012 366 850 366 708 c 4
 366 566 367 404 420 289 c 4
 467 187 563 121 708 121 c 4
 853 121 949 187 996 289 c 4
 1049 404 1050 566 1050 708 c 4
 1050 850 1049 1012 996 1127 c 4
 949 1229 853 1295 708 1295 c 4
252 1543 m 25
 156 1269 l 1
 30 1269 l 1
 82 1543 l 25
 252 1543 l 25
EndSplineSet
EndChar
StartChar: Upsilontonos
Encoding: 910 910 605
Width: 1386
VWidth: 0
Flags: W
HStem: 0 21G<787 943>
VStem: 787 156<0 506>
LayerCount: 4
Back
Fore
SplineSet
364 1416 m 5
 533 1416 l 5
 865 672 l 5
 1197 1416 l 5
 1366 1416 l 5
 943 506 l 5
 943 0 l 5
 787 0 l 5
 787 506 l 5
 364 1416 l 5
252 1543 m 25
 156 1269 l 1
 30 1269 l 1
 82 1543 l 25
 252 1543 l 25
EndSplineSet
Layer: 2
Layer: 3
EndChar
StartChar: Omegatonos
Encoding: 911 911 606
Width: 1324
VWidth: 0
Flags: W
HStem: 0 141<196 408 1002 1214> 1269 274<82 156> 1295 140<527.178 882.822>
VStem: 30 222 217 156<367.347 1131.71> 1037 156<367.347 1131.71>
LayerCount: 2
Back
Fore
SplineSet
705 1435 m 0xac
 864 1435 995 1373 1074 1280 c 0
 1180 1156 1193 1008 1193 843 c 0
 1193 453 1177 303 1002 141 c 1
 1214 141 l 1
 1214 0 l 1
 789 0 l 1
 789 109 l 1
 1032 248 1037 504 1037 843 c 0
 1037 963 1032 1102 952 1194 c 0
 899 1255 812 1295 705 1295 c 0
 598 1295 511 1255 458 1194 c 0
 378 1102 373 963 373 843 c 0
 373 504 378 248 621 109 c 1
 621 0 l 1
 196 0 l 1
 196 141 l 1
 408 141 l 1
 233 303 217 453 217 843 c 0
 217 1008 230 1156 336 1280 c 0
 415 1373 546 1435 705 1435 c 0xac
EndSplineSet
Refer: 454 900 N 1 0 0 1 -82 47 2
EndChar
StartChar: Gamma
Encoding: 915 915 424
GlifName: G_amma
Width: 950
Flags: W
HStem: 0 21G<160 316> 1276 140<316 880>
VStem: 160 156<0 1276>
LayerCount: 3
Back
Fore
SplineSet
160 0 m 5
 160 1416 l 5
 880 1416 l 5
 880 1276 l 5
 316 1276 l 5
 316 0 l 5
 160 0 l 5
EndSplineSet
Validated: 1
Layer: 2
EndChar
StartChar: uni0394
Encoding: 916 916 465
GlifName: uni0394
Width: 528
Flags: W
HStem: 0 70<113.5 414.5> 646 20G<222.574 305.426>
LayerCount: 4
Back
Fore
SplineSet
229 666 m 1
 299 666 l 1
 513 0 l 1
 15 0 l 1
 229 666 l 1
414.5 70 m 1
 264 560 l 1
 113.5 70 l 1
 414.5 70 l 1
EndSplineSet
Layer: 2
Layer: 3
EndChar
StartChar: Epsilon
Encoding: 917 917 466
Width: 500
VWidth: 0
Flags: W
HStem: 0 70<149 435> 308 70<149 385> 596 70<149 435>
VStem: 75 74<70 308 378 596>
AnchorPoint: "DoubleTop" 0 0 basechar 0
AnchorPoint: "Apos" 0 0 basechar 0
AnchorPoint: "Center" 0 0 basechar 0
AnchorPoint: "Bottom" 255 0 basechar 0
AnchorPoint: "Top" 255 666 basechar 0
LayerCount: 4
Back
Fore
SplineSet
75 666 m 1
 435 666 l 1
 435 596 l 1
 149 596 l 1
 149 378 l 1
 385 378 l 1
 385 308 l 1
 149 308 l 1
 149 70 l 1
 435 70 l 1
 435 0 l 1
 75 0 l 1
 75 666 l 1
EndSplineSet
Validated: 1
Layer: 2
Layer: 3
EndChar
StartChar: Zeta
Encoding: 918 918 467
Width: 540
VWidth: 0
Flags: W
HStem: 0 70<147 480> 596 70<70 382>
AnchorPoint: "DoubleTop" 0 0 basechar 0
AnchorPoint: "Apos" 0 0 basechar 0
AnchorPoint: "Center" 5 0 basechar 0
AnchorPoint: "Bottom" 270 0 basechar 0
AnchorPoint: "Top" 270 667 basechar 0
LayerCount: 4
Back
Fore
SplineSet
70 666 m 5
 470 666 l 5
 470 616 l 5
 147 70 l 1
 480 70 l 1
 480 0 l 1
 60 0 l 1
 60 50 l 1
 382 596 l 5
 70 596 l 5
 70 666 l 5
EndSplineSet
Validated: 1
Layer: 2
Layer: 3
EndChar
StartChar: Theta
Encoding: 920 920 444
GlifName: T_heta
Width: 1256
Flags: W
HStem: -19 140<452.945 803.055> 652 140<464 792> 1295 140<452.945 803.055>
VStem: 130 156<311.742 1104.26> 970 156<311.742 1104.26>
LayerCount: 3
Back
Fore
SplineSet
464 792 m 5
 792 792 l 5
 792 652 l 5
 464 652 l 5
 464 792 l 5
EndSplineSet
Refer: 16 79 S 1 0 0 1 0 0 2
Layer: 2
EndChar
StartChar: Xi
Encoding: 926 926 442
GlifName: X_i
Width: 989
VWidth: 0
Flags: W
HStem: 0 140<126 863> 652 140<187 802> 1276 140<126 863>
AnchorPoint: "DoubleTop" -27 0 basechar 0
AnchorPoint: "Apos" -27 0 basechar 0
AnchorPoint: "Center" -27 0 basechar 0
AnchorPoint: "Bottom" 495 0 basechar 0
AnchorPoint: "Top" 495 1364 basechar 0
LayerCount: 3
Back
Fore
SplineSet
187 792 m 1
 802 792 l 5
 802 652 l 5
 187 652 l 1
 187 792 l 1
126 140 m 1
 863 140 l 1
 863 0 l 1
 126 0 l 1
 126 140 l 1
126 1416 m 1
 863 1416 l 1
 863 1276 l 1
 126 1276 l 1
 126 1416 l 1
EndSplineSet
Layer: 2
EndChar
StartChar: Pi
Encoding: 928 928 439
GlifName: P_i
Width: 1216
VWidth: 0
Flags: W
HStem: 0 21G<160 316 904 1060> 1276 140<316 904>
VStem: 160 156<0 1276> 904 156<0 1276>
LayerCount: 3
Back
Fore
SplineSet
160 1416 m 1
 1060 1416 l 5
 1060 0 l 5
 904 0 l 5
 904 1276 l 5
 316 1276 l 1
 316 0 l 1
 160 0 l 1
 160 1416 l 1
EndSplineSet
Layer: 2
EndChar
StartChar: Phi
Encoding: 934 934 474
GlifName: P_hi
Width: 640
VWidth: 0
Flags: W
HStem: 0 21G<283 357> 99 70<199.453 283 357 440.547> 497 70<199.453 283 357 440.547> 646 20G<283 357>
VStem: 55 74<240.994 425.006> 283 74<0 100.854 169 497 565.146 666> 511 74<240.994 425.006>
CounterMasks: 1 0e
AnchorPoint: "DoubleTop" 7 0 basechar 0
AnchorPoint: "Apos" 7 0 basechar 0
AnchorPoint: "Center" 7 0 basechar 0
AnchorPoint: "Bottom" 307 0 basechar 0
AnchorPoint: "Top" 307 666 basechar 0
LayerCount: 2
Back
Fore
SplineSet
357 99 m 1
 357 0 l 1
 283 0 l 1
 283 99 l 1
 228 103 181 114 139 145 c 0
 86 184 55 251 55 333 c 0
 55 415 86 482 139 521 c 0
 181 552 228 563 283 567 c 1
 283 666 l 1
 357 666 l 1
 357 567 l 1
 412 563 459 552 501 521 c 0
 554 482 585 415 585 333 c 0
 585 251 554 184 501 145 c 0
 459 114 412 103 357 99 c 1
511 333 m 0
 511 397 488 443 453 468 c 0
 425 488 391 495 357 497 c 1
 357 169 l 1
 391 171 425 178 453 198 c 0
 488 223 511 269 511 333 c 0
129 333 m 0
 129 269 152 223 187 198 c 0
 215 178 249 171 283 169 c 1
 283 497 l 1
 249 495 215 488 187 468 c 0
 152 443 129 397 129 333 c 0
EndSplineSet
EndChar
StartChar: Chi
Encoding: 935 935 472
GlifName: C_hi
Width: 570
Flags: W
HStem: 0 21G<45 138.246 431.754 525> 647 20G<50 143.25 426.75 520>
LayerCount: 4
Back
Fore
SplineSet
50 666 m 5
 132 666 l 5
 285 396 l 5
 438 666 l 5
 520 666 l 5
 332 338 l 5
 525 0 l 5
 443 0 l 5
 285 280 l 5
 127 0 l 5
 45 0 l 5
 238 338 l 5
 50 666 l 5
EndSplineSet
Validated: 1
Layer: 2
Layer: 3
EndChar
StartChar: Psi
Encoding: 936 936 496
Width: 600
VWidth: 0
Flags: W
HStem: 0 21G<263 337> 126 70<199.372 263 337 400.628> 647 20G<65 139 263 337 461 535>
VStem: 65 74<256.529 667> 263 74<0 126 196 667> 461 74<256.529 667>
CounterMasks: 1 1c
LayerCount: 4
Back
Fore
SplineSet
139 667 m 1
 139 359 l 2
 139 260 171 207 263 196 c 1
 263 366 263 497 263 667 c 1
 337 667 l 1
 337 497 337 366 337 196 c 1
 429 207 461 260 461 359 c 2
 461 667 l 1
 535 667 l 1
 535 359 l 2
 535 215 473 126 337 126 c 1
 337 0 l 1
 263 0 l 1
 263 126 l 1
 127 126 65 215 65 359 c 2
 65 667 l 1
 139 667 l 1
EndSplineSet
Validated: 1
Layer: 2
Layer: 3
EndChar
StartChar: uni03A9
Encoding: 937 937 430
GlifName: uni03A_9
Width: 584
Flags: W
HStem: 0 70<65 149 435 519> 602 70<208.139 375.861>
VStem: 65 74<173.063 529.966> 445 74<173.063 529.966>
AnchorPoint: "DoubleTop" -8 0 basechar 0
AnchorPoint: "Apos" -8 0 basechar 0
AnchorPoint: "Center" -8 0 basechar 0
AnchorPoint: "Bottom" 292 0 basechar 0
AnchorPoint: "Top" 292 666 basechar 0
LayerCount: 2
Back
Fore
SplineSet
292 672 m 1
 376 672 446 634 483 573 c 1
 519 514 519 451 519 333 c 0
 519 219 507 144 435 70 c 1
 519 70 l 1
 519 0 l 1
 325 0 l 1
 325 58 l 1
 365 80 400 117 421 166 c 0
 445 223 445 293 445 333 c 0
 445 435 445 495 419 538 c 1
 395 578 348 602 292 602 c 1
 236 602 189 578 165 538 c 1
 139 495 139 435 139 333 c 0
 139 293 139 223 163 166 c 0
 184 117 219 80 259 58 c 1
 259 0 l 1
 65 0 l 1
 65 70 l 1
 149 70 l 1
 77 144 65 219 65 333 c 0
 65 451 65 514 101 573 c 1
 138 634 208 672 292 672 c 1
EndSplineSet
EndChar
StartChar: alpha
Encoding: 945 945 377
GlifName: alpha
Width: 1083
VWidth: 0
Flags: W
HStem: -16 134<370.326 670.055 949.264 1030.69> 964 134<370.326 668.885>
VStem: 105 150<242.001 839.999> 785 150<241.242 840.758 967 1082>
AnchorPoint: "Top" 500 1082 basechar 0
LayerCount: 3
Back
Fore
SplineSet
800 135 m 5
 736.317069972 43.5397201386 643.392156863 -16 500 -16 c 4
 356 -16 248 52 185 144 c 4
 105 261 105 408 105 541 c 4
 105 674 105 821 185 938 c 4
 248 1030 356 1098 500 1098 c 4
 627 1098 715 1053 785 967 c 5
 785 1082 l 5
 935 1082 l 5
 935 223 l 6
 935 172 939 154 957 137 c 4
 973 121 994 117 1009 117 c 4
 1019 117 1028 119 1028 119 c 5
 1053 -6 l 5
 1031 -14 1010 -16 990 -16 c 4
 900.163043478 -16 819.468188026 34.6711409396 800 135 c 5
520 964 m 4
 427 964 356 923 315 865 c 4
 256 782 255 664 255 541 c 4
 255 418 256 300 315 217 c 4
 356 159 427 118 520 118 c 4
 613 118 684 159 725 217 c 4
 784 300 785 418 785 541 c 4
 785 664 784 782 725 865 c 4
 684 923 613 964 520 964 c 4
EndSplineSet
Layer: 2
EndChar
StartChar: beta
Encoding: 946 946 378
GlifName: beta
Width: 1120
Flags: W
HStem: -16 134<357.725 725.653> 720 134<502 681.888> 1298 134<391.517 667.903>
VStem: 160 150<-414 35 164.747 1212.89> 750 150<924.126 1214.99> 860 150<255.021 586.222>
LayerCount: 3
Back
SplineSet
514 720 m 5
 502 720 l 4
 501 720 503 854 502 854 c 4
 514 854 l 4
 514 720 l 5
310 34.8662109375 m 5
 310 -414 l 5
 160 -414 l 5
 160 1011 l 4
 160 1059.6015625 160.215820312 1113.19433594 174.0390625 1168.93261719 c 4
 187.896484375 1224.80859375 215.11328125 1279.16699219 258.228515625 1323.78222656 c 4
 293.498046875 1360.27929688 337.091796875 1387.96191406 384.3671875 1405.92480469 c 4
 431.31640625 1423.76367188 481.033203125 1432 530.018554688 1432 c 4
 578.997070312 1432 628.708984375 1423.76074219 675.659179688 1405.89355469 c 4
 722.9609375 1387.89257812 766.416992188 1360.19042969 801.653320312 1323.90429688 c 4
 835.793945312 1288.74707031 860.586914062 1247.38671875 876.583984375 1203.72949219 c 4
 892.659179688 1159.859375 900.002929688 1114.19042969 900.002929688 1068.57617188 c 4
 900.002929688 1022.44238281 892.427734375 975.594726562 875.311523438 930.7890625 c 4
 857.888671875 885.1796875 830.393554688 842.010742188 791.702148438 806.71875 c 4
 790.45703125 805.583007812 788.948242188 804.234375 787.557617188 803.008789062 c 5
 815.071289062 788.860351562 841.291992188 771.547851562 864.75390625 751.456054688 c 4
 914.173828125 709.133789062 950.923828125 656.134765625 974.79296875 598.9453125 c 4
 998.779296875 541.475585938 1010.00390625 480.462890625 1010.00390625 419.315429688 c 4
 1010.00390625 314.731445312 976.127929688 206.935546875 901.435546875 124.000976562 c 4
 859.403320312 77.3310546875 806.220703125 40.8974609375 747.16796875 17.3720703125 c 4
 688.291015625 -6.0830078125 626.7265625 -16 564.955078125 -16 c 5
 495.625 -15.9248046875 429.126953125 -3.29296875 366.919921875 15.546875 c 4
 347.959960938 21.2890625 328.678710938 27.869140625 310 34.8662109375 c 5
310 182.770507812 m 5
 344.520507812 166.82421875 379.65234375 153.180664062 415.080078125 142.452148438 c 4
 465.724609375 127.115234375 516.462890625 118.052734375 565.044921875 118 c 5
 608.301757812 118 648.909179688 124.950195312 686.07421875 139.754882812 c 4
 723.044921875 154.482421875 757.424804688 177.864257812 784.564453125 207.999023438 c 4
 832.844726562 261.607421875 860.00390625 340.11328125 860.00390625 419.315429688 c 4
 860.00390625 465.821289062 851.412109375 510.998046875 834.244140625 552.131835938 c 4
 817.409179688 592.467773438 791.798828125 628.306640625 760.951171875 654.723632812 c 4
 730.330078125 680.947265625 692.682617188 699.315429688 652.942382812 708.924804688 c 4
 643.709960938 711.157226562 634.146484375 712.971679688 624.220703125 714.4296875 c 4
 591.493164062 719.23828125 554.776367188 720 515 720 c 4
 502 720 l 4
 503 720 501 854 502 854 c 4
 514 854 l 4
 553.092773438 854 586.008789062 855.3671875 612.515625 862.165039062 c 4
 639.099609375 868.982421875 664.3515625 882.065429688 684.538085938 900.479492188 c 4
 704.9765625 919.123046875 722.213867188 944.911132812 733.350585938 974.06640625 c 4
 744.455078125 1003.13671875 750.002929688 1035.62109375 750.002929688 1068.57617188 c 4
 750.002929688 1101.36328125 744.713867188 1132.87890625 734.02734375 1162.04199219 c 4
 723.609375 1190.47265625 707.692382812 1216.17382812 688.346679688 1236.09570312 c 4
 668.431640625 1256.60351562 643.556640625 1272.45800781 616.870117188 1282.61425781 c 4
 589.841796875 1292.90039062 560.194335938 1298 530.018554688 1298 c 4
 499.810546875 1298 470.150390625 1292.90234375 443.076171875 1282.61523438 c 4
 416.341796875 1272.45703125 391.51953125 1256.65332031 371.771484375 1236.21777344 c 4
 348.01171875 1211.63183594 329.795898438 1177.47851562 320.48828125 1139.94824219 c 4
 311.146484375 1102.28027344 310 1058.6328125 310 1011 c 4
 310 182.770507812 l 5
EndSplineSet
Fore
SplineSet
310 35 m 1xf4
 310 -414 l 1
 160 -414 l 1
 160 981 l 2
 160 1101 160 1222 258 1324 c 0
 319 1388 414 1432 530 1432 c 0
 743 1432 900 1283 900 1069 c 0xf8
 900 954 856 863 773 803 c 1
 917 737 1010 603 1010 419 c 0
 1010 172 829 -16 565 -16 c 0
 473 -16 383 7 310 35 c 1xf4
310 183 m 1
 380 150 473 118 565 118 c 0
 746 118 860 245 860 419 c 0xf4
 860 521 818 606 761 655 c 0
 697 710 620 720 502 720 c 1
 502 854 l 1
 590 854 639 859 684 900 c 0
 723 935 750 996 750 1069 c 0
 750 1204 663 1298 530 1298 c 0
 462 1298 408 1273 372 1236 c 0
 310 1173 310 1087 310 981 c 2
 310 183 l 1
EndSplineSet
Validated: 1
Layer: 2
EndChar
StartChar: gamma
Encoding: 947 947 403
GlifName: gamma
Width: 430
Flags: W
VStem: 180 70<-183 0>
LayerCount: 4
Back
Fore
SplineSet
180 0 m 1
 15 478 l 1
 89 478 l 1
 216 89 l 1
 342 478 l 1
 415 478 l 1
 250 0 l 1
 250 -183 l 1
 180 -183 l 1
 180 0 l 1
EndSplineSet
Layer: 2
Layer: 3
EndChar
StartChar: delta
Encoding: 948 948 483
GlifName: delta
Width: 1030
Flags: W
HStem: -16 134<361.546 668.401> 1298 134<406.549 754.898>
VStem: 100 150<234.327 727.415> 221 150<1046.59 1260.96> 780 150<234.358 728.647>
LayerCount: 3
Back
SplineSet
323.326171875 937.12109375 m 1
 314.999023438 943.943359375 306.86328125 951.353515625 299.342773438 959.098632812 c 0
 246.458007812 1013.56738281 220.999023438 1085.06738281 220.999023438 1155.734375 c 0
 220.999023438 1193.18066406 228.002929688 1231.14257812 243.474609375 1267.13671875 c 0
 259.193359375 1303.70214844 283.498046875 1337.27539062 316.080078125 1364.19140625 c 0
 347.401367188 1390.06640625 383.987304688 1407.71484375 421.494140625 1418.21582031 c 0
 458.776367188 1428.65429688 495.693359375 1431.98925781 530.264648438 1432 c 0
 577.421875 1432 622.60546875 1425.97851562 665.459960938 1417.36621094 c 0
 708.37109375 1408.74316406 749.895507812 1397.13867188 790.08984375 1383.81542969 c 1
 737.91015625 1258.18457031 l 1
 702.686523438 1269.859375 667.5234375 1279.60351562 632.540039062 1286.6328125 c 0
 597.216796875 1293.73144531 562.900390625 1298 530.319335938 1298 c 0
 506.572265625 1297.9921875 485.137695312 1295.60742188 466.3515625 1290.34765625 c 0
 447.999023438 1285.20996094 431.319335938 1276.87792969 417.919921875 1265.80859375 c 0
 404.005859375 1254.31445312 391.60546875 1237.94238281 383.505859375 1219.10253906 c 0
 375.354492188 1200.13769531 370.999023438 1178.11132812 370.999023438 1155.734375 c 0
 370.999023438 1113.74902344 387.440429688 1072.87207031 412.657226562 1046.90039062 c 0
 426.359375 1032.78710938 443.997070312 1021.00683594 464.125976562 1011.87109375 c 0
 468.615234375 1009.83398438 473.278320312 1007.89257812 478.12109375 1006.03222656 c 0
 495.3125 999.427734375 514.814453125 993.877929688 536.2421875 988.513671875 c 0
 583.234375 976.747070312 638.657226562 965.95703125 695.588867188 941.134765625 c 0
 752.98828125 916.109375 805.991210938 877.926757812 845.01171875 826.684570312 c 0
 885.1953125 773.9140625 906.625976562 713.670898438 917.525390625 654.943359375 c 0
 928.293945312 596.916992188 929.997070312 540.052734375 930 485.715820312 c 0
 930 430 928.241210938 371.859375 917.74609375 312.672851562 c 0
 907.084960938 252.545898438 886.040039062 190.53125 845.489257812 135.950195312 c 0
 807.495117188 84.8095703125 755.3515625 45.0263671875 696.413085938 19.732421875 c 0
 638.157226562 -5.267578125 575.705078125 -15.990234375 514.866210938 -16 c 0
 454.15234375 -16 391.75 -5.2958984375 333.561523438 19.669921875 c 0
 274.586914062 44.9755859375 222.4375 84.8056640625 184.475585938 135.997070312 c 0
 143.973632812 190.612304688 123.008789062 252.626953125 112.369140625 312.713867188 c 0
 101.66796875 373.15234375 99.998046875 432.108398438 99.998046875 489.282226562 c 0
 99.998046875 542.474609375 101.750976562 598.184570312 112.298828125 654.990234375 c 0
 123.227539062 713.846679688 144.860351562 774.025390625 185.002929688 826.704101562 c 0
 221.526367188 874.631835938 270.4765625 911.498046875 323.326171875 937.12109375 c 1
513.352539062 855.154296875 m 0
 505.208007812 853.60546875 497.106445312 851.958007812 489.301757812 850.232421875 c 0
 457.474609375 843.19921875 428.077148438 834.37890625 401.568359375 822.461914062 c 0
 364.828125 805.9453125 332.194335938 781.736328125 308.997070312 751.295898438 c 0
 285.034179688 719.849609375 268.657226562 678.196289062 260.27734375 633.063476562 c 0
 251.915039062 588.03125 249.998046875 539.689453125 249.998046875 489.282226562 c 0
 249.998046875 434.548828125 251.83203125 382.755859375 260.52734375 333.649414062 c 0
 268.883789062 286.458984375 285.131835938 242.895507812 309.524414062 210.001953125 c 0
 332.244140625 179.366210938 363.862304688 155.325195312 398.506835938 140.459960938 c 0
 433.85546875 125.291992188 473.794921875 118 514.866210938 118 c 0
 556.048828125 118.006835938 596.018554688 125.307617188 631.459960938 140.517578125 c 0
 666.125 155.39453125 697.760742188 179.427734375 720.510742188 210.048828125 c 0
 744.940429688 242.932617188 761.231445312 286.475585938 769.59375 333.63671875 c 0
 778.088867188 381.549804688 780 432.657226562 780 485.715820312 c 0
 779.997070312 537.381835938 778.108398438 586.885742188 769.544921875 633.026367188 c 0
 761.149414062 678.268554688 744.8671875 719.95703125 720.98828125 751.315429688 c 0
 698.172851562 781.275390625 665.958984375 804.946289062 629.797851562 820.711914062 c 0
 597.439453125 834.8203125 558.139648438 844.267578125 513.352539062 855.154296875 c 0
EndSplineSet
Fore
SplineSet
250 486 m 0xe8
 250 421 250.243055236 303.152965975 298 227 c 0
 335 168 403 118 515 118 c 0
 627 118 694.45925407 168.342584484 732 227 c 0
 780 302 780 421 780 486 c 0
 780 588.361702128 774.289946864 695.004129193 706 769 c 0
 654 825.344827586 545 855 513 855 c 0
 480 855 338.381089742 820.563635548 289 720 c 0
 253 646.686695279 250 567.347639485 250 486 c 0xe8
100 486 m 0
 100 712.535545024 155.038461538 848.857819905 365 909 c 1
 283.490566038 955.808943089 221 1040.46341463 221 1154 c 0
 221 1317 343.596273292 1432 523 1432 c 0
 613.844221106 1432 702.055276382 1413.2 785 1385 c 1
 744 1256 l 1
 667.352601156 1282 593.738788593 1298 523 1298 c 0
 390.217745218 1298 371 1200 371 1154 c 0xd8
 371 1108 388.95872965 1019.8058489 531 990 c 0
 711 952.228915663 789.098433866 901.372973097 846 825 c 0
 914 733.730769231 930 625.411242604 930 486 c 0
 930 342 914.507682285 229.368528442 845 136 c 0
 778 46 662 -16 515 -16 c 0
 368 -16 252.474555989 46.355232757 185 136 c 0
 115 229 100 342 100 486 c 0
EndSplineSet
Layer: 2
SplineSet
258.489972477 947.354522764 m 1
 210.150751782 1007.34899494 185.999023438 1081.63890054 185.999023438 1155.734375 c 0
 185.999023438 1199.49887472 194.197315018 1244.14040846 212.431127804 1286.55940972 c 0
 231.028437531 1329.82226627 259.525185749 1368.89621963 296.944157573 1399.80671519 c 0
 332.875066115 1429.4882262 373.471958832 1448.7878803 414.266593319 1460.20911808 c 0
 454.734922074 1471.53907164 493.993744222 1474.98856214 530.257313757 1474.99999453 c 0
 579.668851067 1474.99999453 626.569091539 1468.70636352 670.671047544 1459.84417322 c 0
 714.89049705 1450.95830407 757.519398999 1439.03284789 798.608061438 1425.41399371 c 1
 729.391938562 1216.58600629 l 1
 695.063315363 1227.96424265 661.004352891 1237.38877731 627.328952456 1244.15582678 c 0
 593.247939855 1251.00433071 560.669348585 1255 530.309331403 1255 c 1
 508.293713699 1254.99305939 489.169071264 1252.72007025 473.579109806 1248.35533504 c 0
 458.515113644 1244.13788134 445.846073923 1237.45464733 437.055842427 1230.19328481 c 0
 427.977797687 1222.69423157 419.769790954 1211.82318612 414.549340946 1199.67887153 c 0
 409.159654975 1187.14034771 405.999023438 1171.7926905 405.999023438 1155.734375 c 0
 405.999023438 1126.05916892 417.815194131 1097.24321885 434.919952949 1079.62663392 c 0
 444.448949233 1069.81244922 458.359426766 1060.13616897 475.615835852 1052.30503914 c 0
 493.249906187 1044.30265008 515.83902781 1037.43602257 542.718173581 1030.70585364 c 0
 588.915597223 1019.13843965 645.796347046 1008.29209993 706.656615283 981.756521881 c 0
 768.123165558 954.956983171 826.349740719 913.63997226 870.51519942 855.641502612 c 0
 915.953905546 795.970317658 939.765648628 728.303891069 951.688416448 664.05703083 c 0
 963.361633996 601.157633222 964.996750759 541.152383539 965 485.715820312 c 0
 965 428.898485049 963.296294434 367.770884438 951.980502254 303.949657387 c 0
 940.373542009 238.48856912 917.105134569 169.056055362 871.298756843 107.400232165 c 0
 828.396015775 49.6521817293 770.902063846 6.32849375337 707.317466892 -20.9595870793 c 0
 644.67517033 -47.8428341059 578.742172572 -58.9901055976 514.866210938 -59 c 0
 451.118267539 -59 385.235163529 -47.8714400515 322.659384151 -21.0217955795 c 0
 259.023298712 6.2833578398 201.520226834 49.6604986493 158.644443939 107.476754406 c 0
 112.886306888 169.179827978 89.7120373651 238.612104817 78.1332177943 304.002081436 c 0
 66.606340399 369.099198315 64.998046875 431.097763514 64.998046875 489.282226562 c 0
 64.998046875 543.628984756 66.6913189996 602.469814716 78.1367702839 664.109498077 c 0
 90.1130511372 728.607086824 114.144244935 796.142535309 159.508296907 855.672347266 c 0
 187.556206789 892.478602099 221.893221859 923.056030277 258.489972477 947.354522764 c 1
512.711535981 811.545913057 m 0
 505.091511941 810.047545096 497.578301796 808.4646966 490.32989912 806.807940783 c 0
 461.587081159 800.238240814 435.650621695 792.184746969 412.956536474 781.982497406 c 0
 380.148891857 767.23372415 352.63000494 746.129888367 334.491703093 722.327652734 c 0
 315.749592774 697.73297359 301.77238678 663.436569825 294.439401591 623.945189423 c 0
 286.975227659 583.746746715 284.998046875 538.534629435 284.998046875 489.282226562 c 0
 284.998046875 435.559367719 286.892882985 386.808560814 294.763266581 342.361199814 c 0
 302.180268259 300.474584053 316.218746419 264.328491378 335.355556061 238.523245594 c 0
 353.161948747 214.512046634 379.426794848 194.017494603 409.408975224 181.152654955 c 0
 440.369566566 167.868267953 476.829858336 161 514.866210938 161 c 0
 553.011700303 161.005908746 589.501022614 167.882372356 620.555579983 181.209587079 c 0
 650.574183786 194.092425475 676.859074819 214.583809613 694.701243157 238.599767835 c 0
 713.875303271 264.408236416 727.94312821 300.53287836 735.359341496 342.358936363 c 0
 743.032991214 385.638428705 745 433.760242623 745 485.715820312 c 0
 744.997036133 536.283506625 743.040658309 582.645570302 735.381896052 623.913672295 c 0
 728.010359822 663.635829526 714.109131711 697.900584689 695.48480058 722.358497388 c 0
 677.814472657 745.563327765 650.824443401 766.097938045 618.730103467 780.091134369 c 0
 591.193208677 792.097447224 555.260731928 801.238624294 512.711535981 811.545913057 c 0
EndSplineSet
EndChar
StartChar: epsilon
Encoding: 949 949 493
GlifName: epsilon
Width: 423
VWidth: 0
Flags: W
HStem: -6 66<153.157 356.217> 212 66<150.164 310> 418 66<153.779 357.204>
VStem: 55 70<85.0434 187.098 300.856 393.336>
AnchorPoint: "DoubleTop" 0 0 basechar 0
AnchorPoint: "Apos" 0 0 basechar 0
AnchorPoint: "Center" 0 0 basechar 0
AnchorPoint: "Bottom" 225 0 basechar 0
AnchorPoint: "Top" 225 478 basechar 0
LayerCount: 4
Back
Fore
SplineSet
225 -6 m 0
 176 -6 138 5 108 29 c 0
 75 55 55 93 55 136 c 0
 55 183 79 221 119 244 c 1
 80 265 57 301 57 346 c 0
 57 389 78 427 109 450 c 0
 140 474 178 484 225 484 c 0
 274 484 323 476 370 462 c 1
 353 398 l 1
 311 411 268 418 225 418 c 0
 213 418 181 418 156 401 c 0
 141 391 127 372 127 346 c 0
 127 324 137 305 156 293 c 0
 179 278 213 278 275 278 c 2
 310 278 l 1
 310 212 l 1
 276 212 l 2
 213 212 177 212 151 191 c 0
 133 177 125 156 125 136 c 0
 125 111 137 91 155 78 c 0
 173 65 198 60 225 60 c 0
 269 60 314 69 357 84 c 1
 378 21 l 1
 328 3 275 -6 225 -6 c 0
EndSplineSet
Layer: 2
Layer: 3
EndChar
StartChar: zeta
Encoding: 950 950 562
GlifName: zeta
Width: 431
Flags: W
HStem: 600 66<60 275.17>
VStem: 54.998 70<108.308 280.115> 311.001 70<-107.081 -22.4614>
LayerCount: 4
Back
Fore
SplineSet
371.454101562 -122.698242188 m 5
 304.545898438 -103.301757812 l 5
 308.638671875 -90.7509765625 311.000976562 -78.8193359375 311.000976562 -67.6279296875 c 4
 311.000976562 -57.642578125 308.911132812 -48.1494140625 305.1875 -40.6181640625 c 4
 301.475585938 -33.11328125 295.546875 -26.48046875 288.6953125 -21.8798828125 c 4
 282.33984375 -17.611328125 274.055664062 -14.2138671875 264.290039062 -11.7548828125 c 4
 254.375976562 -9.2578125 242.671875 -7.60546875 229.393554688 -5.5732421875 c 4
 206.333984375 -2.044921875 180.586914062 2.8720703125 155.286132812 14.896484375 c 4
 130.086914062 26.8720703125 107.978515625 44.736328125 91.3642578125 67.025390625 c 4
 65.45703125 101.782226562 54.998046875 143.602539062 54.998046875 183.880859375 c 4
 54.998046875 233.630859375 69.9013671875 280.475585938 89.130859375 322.453125 c 4
 108.499023438 364.733398438 132.841796875 403.493164062 157.922851562 440.337890625 c 4
 195.209960938 495.115234375 235.879882812 548.984375 275.169921875 600 c 5
 60 600 l 5
 60 666 l 5
 372 666 l 5
 372.274414062 613.548828125 l 5
 318.685546875 544.299804688 265.248046875 475.814453125 216.833007812 404.689453125 c 4
 192.6953125 369.23046875 170.452148438 333.524414062 153.392578125 296.283203125 c 4
 136.440429688 259.276367188 124.998046875 220.986328125 124.998046875 183.880859375 c 4
 124.998046875 154.18359375 133.046875 125.887695312 148.635742188 104.974609375 c 4
 158.529296875 91.701171875 171.930664062 80.8955078125 186.791992188 73.8330078125 c 4
 201.551757812 66.818359375 219.822265625 62.7548828125 240.606445312 59.57421875 c 4
 252.99609375 57.6787109375 267.086914062 55.8544921875 282.352539062 52.0107421875 c 4
 297.768554688 48.12890625 314.103515625 42.0869140625 329.3046875 31.87890625 c 4
 346.0859375 20.609375 359.721679688 5.2861328125 368.62890625 -12.7255859375 c 4
 377.413085938 -30.4892578125 381.000976562 -49.3916015625 381.000976562 -67.6279296875 c 4
 381.000976562 -87.4619140625 376.927734375 -105.9140625 371.454101562 -122.698242188 c 5
EndSplineSet
Validated: 1
Layer: 2
Layer: 3
EndChar
StartChar: eta
Encoding: 951 951 485
Width: 485
VWidth: 0
Flags: W
HStem: 0 21G<65 135> 418 66<176.816 313.543>
VStem: 65 70<0 375.445 429 478> 355 70<-183 373.065>
AnchorPoint: "DoubleTop" 0 0 basechar 0
AnchorPoint: "Center" 0 0 basechar 0
AnchorPoint: "Apos" 85 667 basechar 0
AnchorPoint: "Bottom" 245 0 basechar 0
AnchorPoint: "Top" 250 478 basechar 0
LayerCount: 4
Back
Fore
SplineSet
65 478 m 1
 135 478 l 1
 135 429 l 1
 167 472 213 484 250 484 c 0
 306 484 359 461 391 414 c 0
 425 364 425 309.995815467 425 239 c 2
 425 -183 l 1
 355 -183 l 1
 355 239 l 2
 355 299.996404838 355 344 332 377 c 0
 311 407 276 418 245 418 c 0
 214 418 179 407 158 377 c 0
 135 344 135 300 135 239 c 2
 135 0 l 1
 65 0 l 1
 65 478 l 1
EndSplineSet
Validated: 1
Layer: 2
Layer: 3
EndChar
StartChar: theta
Encoding: 952 952 461
GlifName: theta
Width: 1050
VWidth: 0
Flags: W
HStem: -16 134<380.147 669.853> 657 130<280 770> 1298 134<380.147 669.853>
VStem: 130 150<230.927 657 787 1185.07> 770 150<230.927 657 787 1185.07>
LayerCount: 3
Back
Fore
SplineSet
525 1298 m 0
 445 1298 339 1271 301 1125 c 0
 284 1061 281 903 280 787 c 1
 770 787 l 1
 769 903 766 1061 749 1125 c 0
 711 1271 605 1298 525 1298 c 0
525 1432 m 0
 722 1432 856 1317 895 1156 c 0
 920 1053 920 830 920 708 c 0
 920 586 920 363 895 260 c 0
 856 99 722 -16 525 -16 c 0
 328 -16 194 99 155 260 c 0
 130 363 130 586 130 708 c 0
 130 830 130 1053 155 1156 c 0
 194 1317 328 1432 525 1432 c 0
280 657 m 1
 280 541 283 361 301 291 c 0
 339 145 445 118 525 118 c 0
 605 118 711 145 749 291 c 0
 767 361 770 541 770 657 c 1
 280 657 l 1
EndSplineSet
Validated: 1
Layer: 2
EndChar
StartChar: iota
Encoding: 953 953 459
GlifName: iota
Width: 470
VWidth: 0
Flags: W
HStem: 0 21G<160 310> 1062 20G<160 310>
VStem: 160 150<0 1082>
LayerCount: 3
Back
Fore
SplineSet
310 0 m 1
 160 0 l 1
 160 1082 l 1
 310 1082 l 1
 310 0 l 1
EndSplineSet
Validated: 1
Layer: 2
EndChar
StartChar: lambda
Encoding: 955 955 458
GlifName: lambda
Width: 947
Flags: W
HStem: 0 21G<40 203.824 746.324 907>
AnchorPoint: "DoubleTop" 0 0 basechar 0
AnchorPoint: "Apos" 0 0 basechar 0
AnchorPoint: "Top" 492 979 basechar 0
AnchorPoint: "Center" -20 0 basechar 0
AnchorPoint: "Bottom" -20 0 basechar 0
LayerCount: 3
Back
Fore
SplineSet
452 1496 m 5
 907 0 l 5
 752 0 l 5
 500 888 l 5
 197 0 l 5
 40 0 l 5
 432 1084 l 5
 307 1496 l 5
 452 1496 l 5
EndSplineSet
Validated: 1
Layer: 2
EndChar
StartChar: xi
Encoding: 958 958 486
GlifName: xi
Width: 940
Flags: W
HStem: 724 134<383.725 728> 1298 134<373.383 763.331>
VStem: 120 150<244.005 612.207> 150 150<939.776 1223.2> 710 140<-219.719 -30.7439>
LayerCount: 3
Back
SplineSet
568 858 m 1
 648 858 l 1
 648 724 l 1
 568 724 l 0
 567 724 568 858 568 858 c 1
293.180664062 793.331054688 m 1
 279.1484375 803.36328125 270.712890625 810.419921875 259.607421875 820.870117188 c 0
 221.907226562 856.345703125 194.438476562 899.135742188 176.56640625 944.559570312 c 0
 158.546875 990.353515625 149.994140625 1038.50097656 149.994140625 1087.01171875 c 0
 149.994140625 1127.43066406 156.068359375 1168.50292969 169.885742188 1208.22949219 c 0
 184.05078125 1248.95019531 206.37109375 1287.66796875 237.397460938 1320.90722656 c 0
 275.622070312 1361.859375 324.396484375 1391.20996094 376.427734375 1408.79785156 c 0
 427.83984375 1426.17675781 480.239257812 1432 529.788085938 1432 c 0
 586.084960938 1431.98828125 640.728515625 1424.56542969 692.969726562 1413.04882812 c 0
 751.880859375 1400.06054688 807.30859375 1381.92285156 860.323242188 1363.39550781 c 0
 909.849609375 1346.08789062 958.711914062 1327.97949219 1007.14160156 1309.73535156 c 1
 948.858398438 1186.26464844 l 1
 900.971679688 1204.30371094 853.3125 1221.95800781 805.676757812 1238.60449219 c 0
 754.88671875 1256.35351562 705.501953125 1272.265625 657.030273438 1282.95117188 c 0
 613.873046875 1292.46582031 571.217773438 1297.99121094 529.752929688 1298 c 0
 493.456054688 1298 459.423828125 1293.58007812 429.51171875 1283.46972656 c 0
 400.076171875 1273.51953125 373.057617188 1257.00683594 352.602539062 1235.09179688 c 0
 335.791015625 1217.08203125 321.998046875 1193.9609375 313.129882812 1168.46484375 c 0
 304.35546875 1143.24023438 299.994140625 1115.36621094 299.994140625 1087.01171875 c 0
 299.994140625 1052.5234375 306.046875 1019.57324219 318.078125 988.99609375 c 0
 329.739257812 959.360351562 347.350585938 932.9296875 368.392578125 913.129882812 c 0
 391.778320312 891.124023438 421.598632812 875.544921875 453.23828125 867.479492188 c 0
 456.713867188 866.592773438 460.256835938 865.784179688 463.881835938 865.043945312 c 0
 493.348632812 859.03125 528.364257812 858 568 858 c 0
 648 858 l 1
 648 857.107421875 649 724 648 724 c 0
 568 724 l 0
 527.854492188 724 491.719726562 722.89453125 460.857421875 716.916015625 c 0
 453.639648438 715.518554688 446.698242188 713.870117188 440 711.9375 c 0
 404.658203125 701.7421875 371.109375 682.041015625 345.272460938 654.7421875 c 0
 320.073242188 628.115234375 300.241210938 592.6484375 287.858398438 553.500976562 c 0
 275.603515625 514.759765625 269.993164062 472.666015625 269.993164062 429.822265625 c 0
 269.993164062 374.05078125 279.047851562 321.157226562 299.356445312 274.319335938 c 0
 318.924804688 229.186523438 350.721679688 190.977539062 387.506835938 167.57421875 c 0
 424.682617188 143.923828125 473.150390625 131.719726562 528.030273438 126.401367188 c 0
 581.793945312 121.190429688 658.85546875 124.340820312 736.436523438 88.5205078125 c 0
 779.763671875 68.5146484375 819.216796875 35.1669921875 841.052734375 -10.8515625 c 0
 854.969726562 -40.181640625 860.109375 -70.4716796875 860 -99.228515625 c 0
 859.748046875 -165.436523438 834.498046875 -222.206054688 811.971679688 -269.318359375 c 1
 674.028320312 -216.681640625 l 1
 694.98828125 -172.845703125 709.869140625 -133.37109375 710 -98.7724609375 c 0
 710.052734375 -84.939453125 707.288085938 -72.2958984375 702.947265625 -63.1484375 c 0
 696.708984375 -50.0009765625 683.69140625 -37.966796875 667.563476562 -30.51953125 c 0
 632.791015625 -14.46484375 581.264648438 -13.5439453125 511.854492188 -6.8173828125 c 0
 443.560546875 -0.19921875 367.729492188 15.6494140625 300.493164062 58.4248046875 c 0
 235.237304688 99.9404296875 188.024414062 160.09375 159.483398438 225.918945312 c 0
 130.897460938 291.84765625 119.993164062 361.380859375 119.993164062 429.822265625 c 0
 119.993164062 482.959960938 126.822265625 537.1796875 143.510742188 589.938476562 c 0
 160.637695312 644.083984375 188.666992188 696.817382812 230.727539062 741.258789062 c 0
 249.155273438 760.729492188 270.483398438 778.36328125 293.180664062 793.331054688 c 1
EndSplineSet
Fore
SplineSet
524 1432 m 0xd8
 650 1432 751 1401 855 1365 c 1
 812 1237 l 1
 730 1265 632 1298 524 1298 c 0
 447 1298 391 1277 353 1235 c 0
 320 1199 300 1143 300 1085 c 0xd8
 300 1012 326 951 369 913 c 0
 431 858 503 858 608 858 c 2
 728 858 l 1
 728 724 l 1
 608 724 l 2
 493 724 414 724 346 655 c 0
 296 604 270 522 270 427 c 0
 270 356 286 284 323 231 c 0
 410 105 559 133 646 116 c 0
 759 95 850 32 850 -79 c 0
 850 -150 815 -212 786 -264 c 1
 676 -213 l 1
 696 -170 710 -133 710 -99 c 0
 710 -22 628 -15 538 -9 c 0
 402 0 280 38 195 161 c 0
 154 221 120 309 120 427 c 0xe8
 120 595 181 721 313 793 c 1
 209 852 150 954 150 1085 c 0
 150 1168 175 1251 234 1317 c 0
 300 1390 397 1432 524 1432 c 0xd8
EndSplineSet
Validated: 1
Layer: 2
EndChar
StartChar: omicron
Encoding: 959 959 484
GlifName: omicron
Width: 490
Flags: W
HStem: -6 66<172.319 317.681> 418 66<172.319 317.681>
VStem: 55 70<108.461 369.539> 365 70<108.461 369.539>
AnchorPoint: "DoubleTop" 0 0 basechar 0
AnchorPoint: "Apos" 0 0 basechar 0
AnchorPoint: "Center" 0 0 basechar 0
AnchorPoint: "Bottom" 245 0 basechar 0
AnchorPoint: "Top" 245 478 basechar 0
LayerCount: 2
Back
Fore
SplineSet
245 418 m 0
 205 418 170 403 150 375 c 0
 125 340 125 293 125 239 c 0
 125 185 125 138 150 103 c 0
 170 75 205 60 245 60 c 0
 285 60 320 75 340 103 c 0
 365 138 365 185 365 239 c 0
 365 293 365 340 340 375 c 0
 320 403 285 418 245 418 c 0
245 484 m 0
 306 484 365 460 400 409 c 0
 435 358 435 297 435 239 c 0
 435 181 435 120 400 69 c 0
 365 18 306 -6 245 -6 c 0
 184 -6 125 18 90 69 c 0
 55 120 55 181 55 239 c 0
 55 297 55 358 90 409 c 0
 125 460 184 484 245 484 c 0
EndSplineSet
EndChar
StartChar: pi
Encoding: 960 960 380
GlifName: pi
Width: 1200
VWidth: 0
Flags: W
HStem: 0 21G<240 390 810 960> 948 134<100 240 390 810 960 1100>
VStem: 240 150<0 948> 810 150<0 948>
LayerCount: 3
Back
Fore
SplineSet
100 1082 m 1
 1100 1082 l 1
 1100 948 l 1
 960 948 l 1
 960 0 l 17
 810 0 l 9
 810 948 l 1
 390 948 l 1
 390 0 l 1
 240 0 l 1
 240 948 l 1
 100 948 l 1
 100 1082 l 1
EndSplineSet
Validated: 1
Layer: 2
EndChar
StartChar: rho
Encoding: 961 961 488
Width: 485
Flags: W
HStem: -6 66<174.071 315.854> 418 66<174.401 315.599>
VStem: 60 70<-183 51 107.312 370.688> 360 70<108.117 369.883>
AnchorPoint: "DoubleTop" -5 0 basechar 0
AnchorPoint: "Center" -5 0 basechar 0
AnchorPoint: "Top" -5 0 basechar 0
AnchorPoint: "Apos" 483 667 basechar 0
AnchorPoint: "Bottom" 250 0 basechar 0
LayerCount: 4
Back
Fore
SplineSet
245 418 m 0
 222 418 186 412 162 385 c 0
 130 349 130 295 130 239 c 0
 130 183 130 129 162 93 c 0
 186 66 222 60 245 60 c 0
 268 60 304 66 328 93 c 0
 360 129 360 183 360 239 c 0
 360 295 360 349 328 385 c 0
 304 412 268 418 245 418 c 0
245 484 m 0
 305 484 362 459 395 410 c 0
 430 358 430 294 430 239 c 0
 430 184 430 120 396 68 c 0
 364 19 308 -6 250 -6 c 0
 211 -6 163 6 130 51 c 1
 130 -183 l 1
 60 -183 l 1
 60 209 l 0
 60 294 60 358 95 410 c 0
 128 459 185 484 245 484 c 0
EndSplineSet
Validated: 1
Layer: 2
Layer: 3
EndChar
StartChar: sigma1
Encoding: 962 962 484
GlifName: sigma1
Width: 898
Flags: W
HStem: 964 134<370.2 692.61>
VStem: 105 150<247.167 839.539> 655 140<-219.719 -30.1822>
LayerCount: 3
Back
SplineSet
756.981445312 -269.297851562 m 1
 619.018554688 -216.702148438 l 1
 639.96484375 -172.854492188 654.850585938 -133.36328125 655.000976562 -98.7421875 c 0
 655.060546875 -84.9169921875 652.296875 -72.294921875 647.96875 -63.193359375 c 0
 641.765625 -50.1455078125 628.736328125 -38.0625 612.293945312 -30.39453125 c 0
 581.368164062 -15.97265625 535.94140625 -12.435546875 475.796875 -4.21484375 c 0
 416.3515625 3.9091796875 350.04296875 18.794921875 289.651367188 55.703125 c 0
 245.930664062 82.4228515625 209.470703125 118.001953125 182.022460938 158.974609375 c 0
 154.689453125 199.776367188 137.19140625 244.067382812 126.1328125 288.231445312 c 0
 103.90234375 377.024414062 104.999023438 463.9375 104.999023438 545.490234375 c 0
 104.999023438 602.982421875 105.438476562 662.692382812 112.938476562 723.860351562 c 0
 120.719726562 787.325195312 137.321289062 853.748046875 173.91015625 914.673828125 c 0
 208.075195312 971.564453125 258.076171875 1019.69726562 319.39453125 1051.79492188 c 0
 380.379882812 1083.71875 448.451171875 1098 514.916015625 1098 c 0
 582.276367188 1097.99121094 646.676757812 1083.6796875 705.6328125 1061.92578125 c 0
 755.865234375 1043.38964844 801.75390625 1019.91015625 844.85546875 995.756835938 c 1
 765.14453125 882.243164062 l 1
 725.697265625 904.348632812 686.91015625 923.852539062 648.3671875 938.075195312 c 0
 603.549804688 954.612304688 558.190429688 963.994140625 514.89453125 964 c 0
 472.380859375 964 430.795898438 954.799804688 395.23046875 936.181640625 c 0
 359.943359375 917.7109375 328.063476562 887.916015625 306.08984375 851.326171875 c 0
 282.329101562 811.760742188 268.530273438 762.154296875 262.045898438 709.26953125 c 0
 255.645507812 657.059570312 254.999023438 602.241210938 254.999023438 545.490234375 c 0
 254.999023438 463.247070312 255.205078125 386.620117188 272.515625 317.479492188 c 0
 280.849609375 284.196289062 293.6328125 253.314453125 310.735351562 227.78515625 c 0
 327.72265625 202.426757812 349.946289062 181.2109375 374.348632812 166.297851562 c 0
 407.205078125 146.216796875 449.6484375 134.916992188 498.48046875 128.244140625 c 0
 546.61328125 121.665039062 613.588867188 120.16015625 681.706054688 88.39453125 c 0
 724.599609375 68.3916015625 764.12109375 35.2734375 786.03125 -10.806640625 c 0
 799.9921875 -40.1708984375 805.123046875 -70.4912109375 804.999023438 -99.2587890625 c 0
 804.713867188 -165.440429688 779.486328125 -222.1875 756.981445312 -269.297851562 c 1
EndSplineSet
Fore
SplineSet
731 -264 m 1
 621 -213 l 1
 641 -170 655 -133 655 -99 c 0
 655 -20 569 -15 483 -5 c 0
 362 8 252 54 182 159 c 0
 108 270 105 401 105 542 c 0
 105 691 112 811 174 915 c 0
 236 1018 354 1098 515 1098 c 0
 644 1098 752 1048 838 999 c 1
 772 878 l 1
 700 920 613 964 515 964 c 0
 416 964 346 917 306 851 c 0
 260 774 255 672 255 542 c 0
 255 419 257 310 310 229 c 0
 381 121 514 130 591 116 c 0
 708 94 795 32 795 -79 c 0
 795 -150 760 -212 731 -264 c 1
EndSplineSet
Validated: 1
Layer: 2
EndChar
StartChar: sigma
Encoding: 394 963 449
GlifName: sigma
Width: 1080
Flags: W
HStem: -16 134<370.875 689.125> 948 134<690 1000> 964 134<370.875 689.125>
VStem: 105 150<243.661 838.339> 805 150<243.661 838.339>
LayerCount: 3
Back
Fore
SplineSet
1000 1082 m 5xd8
 1000 948 l 5
 690 948 l 5
 540 1082 l 5
 1000 1082 l 5xd8
EndSplineSet
Refer: 52 111 N 1 0 0 1 0 0 2
Layer: 2
EndChar
StartChar: tau
Encoding: 964 964 462
GlifName: tau
Width: 916
VWidth: 0
Flags: W
HStem: 948 134<80 383 533 836>
VStem: 383 150<2 948>
LayerCount: 3
Back
Fore
SplineSet
383 2 m 1
 383 948 l 1
 80 948 l 1
 80 1082 l 1
 836 1082 l 1
 836 948 l 1
 533 948 l 1
 533 2 l 1
 383 2 l 1
EndSplineSet
Validated: 1
Layer: 2
EndChar
StartChar: phi
Encoding: 966 966 561
GlifName: phi
Width: 431
Flags: W
HStem: 126 260<73 315>
VStem: 73 242<126 386>
LayerCount: 2
Back
Fore
SplineSet
73 386 m 1
 315 386 l 1
 315 126 l 1
 73 126 l 1
 73 386 l 1
EndSplineSet
EndChar
StartChar: psi
Encoding: 968 968 488
GlifName: psi
Width: 1390
VWidth: 0
Flags: W
HStem: -14 135<453.464 620 770 936.536> 1062 20G<140 290 620 770 1100 1250>
VStem: 140 150<305.877 1082> 620 150<-414 -14 121 1082> 1100 150<305.877 1082>
CounterMasks: 1 38
LayerCount: 3
Back
SplineSet
770 1031 m 4
 770 -360 l 5
 620 -360 l 5
 620 -13.9892578125 l 5
 544.359375 -9.4853515625 463.005859375 3.919921875 387.6484375 42.9658203125 c 4
 331.053710938 72.2890625 283.012695312 114.09375 246.498046875 163.577148438 c 4
 210.206054688 212.760742188 186.186523438 267.361328125 170.364257812 322.309570312 c 4
 141.481445312 422.6171875 140 523.448242188 140 618 c 4
 140 1031 l 4
 140 1048.9609375 150.236328125 1067.75976562 161.618164062 1078.0625 c 4
 372.618164062 1269.06152344 l 4
 400.251953125 1294.07714844 445.463867188 1293.76464844 472.666015625 1274.45019531 c 4
 741.666015625 1083.45019531 l 4
 759.448242188 1070.82519531 770 1051.13476562 770 1031 c 4
620 120.3671875 m 5
 620 998.666992188 l 5
 432.06640625 1132.10644531 l 5
 290 1003.50683594 l 5
 290 618 l 4
 290 524.951171875 292.610351562 435.658203125 315.635742188 355.690429688 c 4
 328.282226562 311.768554688 346.938476562 270.932617188 371.736328125 237.327148438 c 4
 396.311523438 204.0234375 428.147460938 176.889648438 462.90625 158.880859375 c 4
 508.018554688 135.505859375 558.733398438 124.784179688 620 120.3671875 c 5
EndSplineSet
Fore
SplineSet
620 -14 m 1
 432 -6 292 70 214 214 c 0
 140 350 140 507 140 648 c 2
 140 1082 l 1
 290 1082 l 1
 290 648 l 2
 290 508 291 381 349 273 c 0
 406 168 503 127 620 121 c 1
 620 1082 l 1
 770 1082 l 1
 770 121 l 1
 887 127 984 168 1041 273 c 0
 1099 381 1100 508 1100 648 c 2
 1100 1082 l 1
 1250 1082 l 1
 1250 648 l 2
 1250 507 1250 350 1176 214 c 0
 1098 70 958 -6 770 -14 c 1
 770 -414 l 1
 620 -414 l 1
 620 -14 l 1
EndSplineSet
Validated: 1
Layer: 2
EndChar
StartChar: omega
Encoding: 969 969 469
GlifName: omega
Width: 1578
VWidth: 0
Flags: W
HStem: -16 134<351.631 621.567 956.433 1226.37>
VStem: 110 150<214.605 903.541> 714 150<216.015 774> 1318 150<214.605 903.541>
CounterMasks: 1 70
AnchorPoint: "Top" 789 1083 basechar 0
LayerCount: 3
Back
SplineSet
864 638 m 5
 864 468 l 4
 864 414.196289062 864.432617188 356.455078125 854.009765625 296.416015625 c 4
 843.502929688 235.899414062 821.241210938 174.142578125 779.526367188 120.685546875 c 4
 745.543945312 77.13671875 700.702148438 41.986328125 649.286132812 18.5361328125 c 4
 598.294921875 -4.7216796875 542.559570312 -16 487.225585938 -16 c 4
 431.671875 -16 375.830078125 -4.646484375 324.754882812 18.6669921875 c 4
 273.413085938 42.103515625 228.623046875 77.1572265625 194.58203125 120.546875 c 4
 159.553710938 165.1953125 137.776367188 215.931640625 125.439453125 266.96484375 c 4
 113.182617188 317.66796875 110 367.935546875 110 415.932617188 c 4
 110.00390625 535.99609375 124.76171875 652.78125 137.364257812 766.595703125 c 4
 149.365234375 874.96875 163.583984375 982.819335938 178.576171875 1090.28613281 c 5
 327.423828125 1073.71484375 l 5
 312.515625 966.849609375 298.453125 860.124023438 286.635742188 753.404296875 c 4
 273.904296875 638.434570312 260.00390625 526.064453125 260 415.928710938 c 4
 260 373.364257812 263.038085938 332.573242188 272.060546875 295.250976562 c 4
 281.012695312 258.211914062 296.518554688 224.092773438 317.41796875 197.454101562 c 4
 337.6953125 171.608398438 364.297851562 151.096679688 393.008789062 137.991210938 c 4
 422.12890625 124.69921875 454.509765625 118 487.225585938 118 c 4
 519.768554688 118 552.11328125 124.668945312 581.075195312 137.879882812 c 4
 609.749023438 150.95703125 636.301757812 171.46484375 656.473632812 197.315429688 c 4
 681.112304688 228.888671875 697.838867188 271.203125 705.78125 316.953125 c 4
 713.807617188 363.180664062 714 413.948242188 714 468 c 4
 714 638 l 5
 864 638 l 5
714 638 m 5
 864 638 l 5
 864 468 l 4
 864 413.948242188 864.192382812 363.180664062 872.21875 316.953125 c 4
 880.161132812 271.203125 896.887695312 228.888671875 921.526367188 197.315429688 c 4
 941.698242188 171.46484375 968.250976562 150.95703125 996.924804688 137.879882812 c 4
 1025.88671875 124.668945312 1058.23144531 118 1090.77441406 118 c 4
 1123.49023438 118 1155.87109375 124.69921875 1184.99121094 137.991210938 c 4
 1213.70214844 151.096679688 1240.3046875 171.608398438 1260.58203125 197.454101562 c 4
 1281.48144531 224.092773438 1296.98730469 258.211914062 1305.93945312 295.250976562 c 4
 1314.96191406 332.573242188 1318 373.364257812 1318 415.928710938 c 4
 1317.99609375 526.064453125 1304.09570312 638.434570312 1291.36425781 753.404296875 c 4
 1279.546875 860.124023438 1265.484375 966.849609375 1250.57617188 1073.71484375 c 5
 1399.42382812 1090.28613281 l 5
 1414.41601562 982.819335938 1428.63476562 874.96875 1440.63574219 766.595703125 c 4
 1453.23828125 652.78125 1467.99609375 535.99609375 1468 415.932617188 c 4
 1468 367.935546875 1464.81738281 317.66796875 1452.56054688 266.96484375 c 4
 1440.22363281 215.931640625 1418.44628906 165.1953125 1383.41796875 120.546875 c 4
 1349.37695312 77.1572265625 1304.58691406 42.103515625 1253.24511719 18.6669921875 c 4
 1202.16992188 -4.646484375 1146.328125 -16 1090.77441406 -16 c 4
 1035.44042969 -16 979.705078125 -4.7216796875 928.713867188 18.5361328125 c 4
 877.297851562 41.986328125 832.456054688 77.13671875 798.473632812 120.685546875 c 4
 756.758789062 174.142578125 734.497070312 235.899414062 723.990234375 296.416015625 c 4
 713.567382812 356.455078125 714 414.196289062 714 468 c 4
 714 638 l 5
EndSplineSet
Fore
SplineSet
714 774 m 1
 864 774 l 1
 864 468 l 2
 864 466 864 464 864 462 c 0
 864 410 864 361 872 317 c 0
 880 271 897 229 922 197 c 0
 942 171 968 151 997 138 c 0
 1026 125 1058 118 1091 118 c 0
 1124 118 1156 125 1185 138 c 0
 1214 151 1241 171 1261 197 c 0
 1282 224 1297 258 1306 295 c 0
 1315 332 1318 373 1318 416 c 0
 1318 526 1304 638 1291 753 c 0
 1279 860 1266 967 1251 1074 c 1
 1399 1090 l 1
 1414 983 1429 875 1441 767 c 0
 1454 653 1468 536 1468 416 c 0
 1468 368 1465 318 1453 267 c 0
 1441 216 1418 166 1383 121 c 0
 1349 78 1304 42 1253 19 c 0
 1202 -4 1147 -16 1091 -16 c 0
 955 -16 849 47 789 143 c 1
 729 47 623 -16 487 -16 c 0
 431 -16 376 -4 325 19 c 0
 274 42 229 78 195 121 c 0
 160 166 137 216 125 267 c 0
 113 318 110 368 110 416 c 0
 110 536 124 653 137 767 c 0
 149 875 164 983 179 1090 c 1
 327 1074 l 1
 312 967 299 860 287 753 c 0
 274 638 260 526 260 416 c 0
 260 373 263 332 272 295 c 0
 281 258 296 224 317 197 c 0
 337 171 364 151 393 138 c 0
 422 125 454 118 487 118 c 0
 520 118 552 125 581 138 c 0
 610 151 636 171 656 197 c 0
 681 229 698 271 706 317 c 0
 714 361 714 410 714 462 c 0
 714 464 714 466 714 468 c 2
 714 774 l 1
EndSplineSet
Validated: 1
Layer: 2
EndChar
StartChar: uni0402
Encoding: 1026 1026 667
Width: 1343
Flags: W
HStem: 0 140<671 947.375> 760 140<531 947.375> 1276 140<40 375 531 866>
VStem: 375 156<0 760 900 1276> 1085 156<278.316 621.684>
LayerCount: 3
Back
Fore
SplineSet
671 140 m 5
 727 140 l 17
 808 140 904 140 983 208 c 0
 1042 259 1085 344 1085 450 c 0
 1085 556 1042 641 983 692 c 0
 904 760 808 760 727 760 c 2
 531 760 l 1
 531 0 l 1
 375 0 l 1
 375 1276 l 1
 40 1276 l 1
 40 1416 l 1
 866 1416 l 1
 866 1276 l 1
 531 1276 l 1
 531 900 l 1
 727 900 l 2
 810 900 925 900 1036 833 c 0
 1155 761 1241 625 1241 450 c 0
 1241 275 1155 139 1036 67 c 0
 925 0 810 0 727 0 c 9
 671 0 l 5
 671 140 l 5
EndSplineSet
Validated: 1
Layer: 2
EndChar
StartChar: uni0404
Encoding: 1028 1028 670
Width: 1114
Flags: W
HStem: -19 140<445.071 823.011> 652 140<224 870> 1295 140<446.451 815.402>
VStem: 130 156<307.452 1109.37>
LayerCount: 3
Back
Fore
SplineSet
224 792 m 5
 870 792 l 5
 870 652 l 5
 224 652 l 5
 224 792 l 5
EndSplineSet
Refer: 15 67 S 1 0 0 1 0 0 2
Layer: 2
EndChar
StartChar: uni0409
Encoding: 1033 1033 674
Width: 1940
VWidth: 0
Flags: W
HStem: -14 140<103.94 269.999 1150 1532.67> 730 140<1150 1556.93> 1276 140<576 994>
VStem: 420 156<921.687 1276> 994 156<140 730 870 1276> 1684 156<267.94 602.06>
LayerCount: 3
Back
Fore
SplineSet
80 -8 m 5
 104 131 l 5
 124 128 143 126 161 126 c 4
 268 126 307 208 336 292 c 4
 410 505 420 1018 420 1416 c 5
 1150 1416 l 5
 1150 870 l 5
 1341 870 l 6
 1429 870 1572 870 1693 768 c 4
 1783 692 1840 572 1840 435 c 4
 1840 298 1783 178 1693 102 c 4
 1575 0 1437 0 1351 0 c 6
 994 0 l 5
 994 1276 l 5
 576 1276 l 5
 573 937 560 483 485 251 c 4
 441 113 350 -14 172 -14 c 4
 136 -14 109 -12 80 -8 c 5
1684 435 m 4
 1684 536 1643 617 1586 666 c 4
 1511 730 1414 730 1341 730 c 6
 1150 730 l 5
 1150 140 l 5
 1341 140 l 6
 1414 140 1511 140 1586 204 c 4
 1643 253 1684 334 1684 435 c 4
EndSplineSet
Validated: 1
Layer: 2
EndChar
StartChar: uni040A
Encoding: 1034 1034 676
Width: 1910
VWidth: 0
Flags: W
HStem: 0 140<1100 1526.93> 729 140<336 944 1100 1527.6> 1396 20G<180 336 944 1100>
VStem: 180 156<0 729 869 1416> 944 156<140 729 870 1416> 1654 156<267.94 602.06>
LayerCount: 3
Back
Fore
SplineSet
180 1416 m 1
 336 1416 l 1
 336 869 l 1
 944 869 l 1
 944 1416 l 1
 1100 1416 l 1
 1100 870 l 1
 1311 870 l 2
 1399 870 1542 870 1663 768 c 0
 1753 692 1810 572 1810 435 c 0
 1810 298 1753 178 1663 102 c 0
 1542 0 1399 0 1311 0 c 2
 944 0 l 1
 944 729 l 1
 336 729 l 1
 336 0 l 1
 180 0 l 1
 180 1416 l 1
1654 435 m 0
 1654 536 1613 617 1556 666 c 0
 1481 730 1384 730 1311 730 c 2
 1100 730 l 1
 1100 140 l 1
 1311 140 l 2
 1384 140 1481 140 1556 204 c 0
 1613 253 1654 334 1654 435 c 0
EndSplineSet
Validated: 1
Layer: 2
EndChar
StartChar: uni040B
Encoding: 1035 1035 676
Width: 1361
Flags: W
HStem: 0 21G<375 531 1085 1241> 746 140<643.401 973.3> 1276 140<40 375 531 866>
VStem: 375 156<0 636.434 771 1276> 1085 156<0 636.639>
LayerCount: 3
Back
Fore
SplineSet
531 771 m 1
 614 850 713 886 828 886 c 0
 962 886 1071 833 1142 754 c 0
 1241 644 1241 521 1241 431 c 2
 1241 0 l 1
 1085 0 l 1
 1085 431 l 2
 1085 505 1085 593 1019 664 c 0
 973 714 899 746 808 746 c 0
 717 746 643 714 597 664 c 0
 531 592 531 507 531 431 c 2
 531 0 l 1
 375 0 l 1
 375 1276 l 1
 40 1276 l 1
 40 1416 l 1
 866 1416 l 1
 866 1276 l 1
 531 1276 l 1
 531 771 l 1
EndSplineSet
Validated: 1
Layer: 2
EndChar
StartChar: uni040F
Encoding: 1039 1039 680
Width: 1260
VWidth: 0
Flags: W
HStem: 0 140<335 552 708 923> 1396 20G<179 335 923 1079>
VStem: 179 156<140 1416> 562 136<-374 0> 923 156<140 1416>
LayerCount: 3
Back
Fore
SplineSet
708 0 m 1
 698 -374 l 5
 562 -374 l 1
 552 0 l 1
 179 0 l 1
 179 1416 l 1
 335 1416 l 1
 335 140 l 1
 923 140 l 1
 923 1416 l 1
 1079 1416 l 1
 1079 0 l 1
 708 0 l 1
EndSplineSet
Validated: 1
Layer: 2
EndChar
StartChar: uni0411
Encoding: 1041 1041 646
Width: 1166
Flags: W
HStem: 0 140<336 787.978> 652 140<336 787.978> 1276 140<336 900>
VStem: 180 156<140 652 792 1276> 890 156<240.785 551.215>
LayerCount: 3
Back
Fore
SplineSet
890 396 m 4
 890 471 861 581 753 629 c 4
 701 652 643 652 562 652 c 6
 336 652 l 5
 336 140 l 5
 562 140 l 6
 643 140 701 140 753 163 c 4
 861 211 890 321 890 396 c 4
336 792 m 5
 562 792 l 6
 640 792 704 792 771 773 c 4
 955 721 1046 559 1046 396 c 4
 1046 233 955 71 771 19 c 4
 704 0 640 0 562 0 c 6
 180 0 l 5
 180 1416 l 5
 900 1416 l 5
 900 1276 l 5
 336 1276 l 5
 336 792 l 5
EndSplineSet
Validated: 1
Layer: 2
EndChar
StartChar: uni0413
Encoding: 1043 1043 622
Width: 940
Flags: W
HStem: 0 21G<160 316> 1276 140<316 880>
VStem: 160 156<0 1276>
LayerCount: 5
Back
Fore
SplineSet
160 0 m 1
 160 1416 l 1
 880 1416 l 1
 880 1276 l 1
 316 1276 l 1
 316 0 l 1
 160 0 l 1
EndSplineSet
Validated: 1
Layer: 2
Layer: 3
Layer: 4
EndChar
StartChar: uni0414
Encoding: 1044 1044 681
Width: 1320
VWidth: 0
Flags: W
HStem: -264 404<80 202.628 1104 1240> 0 140<355 928> 1275 140<485 928>
VStem: 80 136<-264 -74.7648> 329 156<922.345 1275> 928 156<140 1275> 1104 136<-264 -74.7648>
LayerCount: 3
Back
Fore
SplineSet
236 0 m 1x7e
 216 -264 l 1
 80 -264 l 1
 80 140 l 1
 190 140 l 1xbe
 329 484 329 910 329 1415 c 1
 485 1415 l 1
 1084 1415 l 1
 1084 140 l 1x7e
 1240 140 l 1
 1240 -264 l 1
 1104 -264 l 5xbe
 1084 0 l 1
 236 0 l 1x7e
485 1275 m 1
 484 840 472 456 355 140 c 1
 928 140 l 1x7e
 928 1275 l 1
 485 1275 l 1
EndSplineSet
Validated: 1
Layer: 2
EndChar
StartChar: uni0416
Encoding: 1046 1046 666
Width: 1662
VWidth: 0
Flags: W
HStem: 0 21G<55 242.441 753 909 1419.56 1607> 666 130<613 753 909 1049> 1396 20G<75 258.806 753 909 1403.19 1587>
VStem: 753 156<0 666 796 1416>
LayerCount: 3
Back
SplineSet
1092 796 m 5
 1092 666 l 5
 841 666 l 5
 841 796 l 5
 1092 796 l 5
1477.25585938 1529.07421875 m 5
 1614.74414062 1462.92578125 l 5
 1180.22460938 735.53515625 l 5
 1809.171875 -347.65234375 l 5
 1670.828125 -412.348632812 l 5
 1022.828125 703.65234375 l 4
 1012.03515625 722.239257812 1010.89648438 748.383789062 1023.25585938 769.07421875 c 4
 1477.25585938 1529.07421875 l 5
909 0 m 5
 753 0 l 5
 753 1416 l 5
 909 1416 l 5
 909 0 l 5
EndSplineSet
Fore
SplineSet
1587 1416 m 1
 1180 736 l 1
 1607 0 l 1
 1431 0 l 1
 1050 666 l 1
 909 666 l 1
 909 0 l 1
 753 0 l 1
 753 666 l 1
 612 666 l 1
 231 0 l 1
 55 0 l 1
 482 736 l 1
 75 1416 l 1
 247 1416 l 1
 613 796 l 1
 753 796 l 1
 753 1416 l 1
 909 1416 l 1
 909 796 l 1
 1049 796 l 1
 1415 1416 l 1
 1587 1416 l 1
EndSplineSet
Layer: 2
SplineSet
910 795 m 5
 1053 795 l 5
 1504 1416 l 5
 1685 1416 l 5
 1180 735 l 5
 1703 0 l 5
 1518 0 l 5
 1055 662 l 5
 910 662 l 5
 910 0 l 5
 754 0 l 5
 754 1416 l 5
 910 1416 l 5
 910 795 l 5
EndSplineSet
EndChar
StartChar: uni0417
Encoding: 1047 1047 683
Width: 1112
VWidth: 0
Flags: W
HStem: -19 140<324.65 707.845> 661 140<353 703.969> 1295 140<336.429 702.126>
VStem: 812 156<905.72 1190.53> 836 156<241.904 542.679>
LayerCount: 3
Back
SplineSet
486 657 m 1
 403 657 l 0
 402 657 404 805 403 805 c 0
 486 805 l 0
 487 805 486 657 486 657 c 1
191.595703125 1160.94726562 m 1
 102.404296875 1279.05273438 l 1
 162.301757812 1324.28613281 228.32421875 1364.11523438 300.751953125 1392.80078125 c 0
 373.92578125 1421.78125 453.053710938 1438.99121094 534.112304688 1439 c 0
 606.778320312 1439 681.68359375 1425.12207031 750.499023438 1391.48144531 c 0
 808.638671875 1363.06054688 861.161132812 1320.41796875 899.150390625 1264.67285156 c 0
 943.171875 1200.07519531 964 1123.69726562 964 1048.38574219 c 1
 963.956054688 976.623046875 945.211914062 904.129882812 905.529296875 841.426757812 c 0
 878.194335938 798.234375 841.850585938 761.935546875 800.807617188 733.747070312 c 1
 848.025390625 704.202148438 886.55859375 668.565429688 917.953125 622.9609375 c 0
 965.450195312 553.965820312 988 471.978515625 988 391.134765625 c 0
 987.982421875 306.72265625 963.352539062 221.108398438 911.791015625 150.399414062 c 0
 868.192382812 90.609375 808.5234375 46.1767578125 743.3046875 18.0498046875 c 0
 675.775390625 -11.0732421875 603.803710938 -23 533.71484375 -23 c 0
 452.499023438 -23 372.692382812 -7.05078125 298.213867188 20.638671875 c 0
 222.323242188 48.8515625 152.270507812 89.16015625 89.21875 137.087890625 c 1
 178.78125 254.912109375 l 1
 231.618164062 214.749023438 289.232421875 181.874023438 349.786132812 159.361328125 c 0
 409.303710938 137.235351562 471.975585938 125 533.71484375 125 c 0
 587.048828125 125 639.014648438 134.25 684.6953125 153.950195312 c 0
 728.047851562 172.646484375 766.142578125 201.85546875 792.208984375 237.600585938 c 0
 823.194335938 280.092773438 839.98828125 335.387695312 840 391.166015625 c 0
 840 444.494140625 824.629882812 497.518554688 796.046875 539.0390625 c 0
 770.3984375 576.296875 732.021484375 606.927734375 688.124023438 626.298828125 c 0
 666.014648438 636.055664062 641.983398438 642.977539062 616.0859375 647.723632812 c 0
 576.155273438 655.041015625 531.975585938 657 486 657 c 0
 403 657 l 0
 404 657 402 805 403 805 c 0
 489 805 l 0
 533.724609375 805 576.6171875 807.096679688 614.930664062 814.618164062 c 0
 640.036132812 819.546875 663.079101562 826.708007812 684.046875 836.74609375 c 0
 723.8515625 855.80078125 758.196289062 885.377929688 780.470703125 920.573242188 c 0
 803.635742188 957.176757812 815.971679688 1002.42480469 816 1048.45410156 c 0
 816 1096.37695312 802.247070312 1144.05957031 776.849609375 1181.32714844 c 0
 755.038085938 1213.33300781 722.762695312 1240.30273438 685.500976562 1258.51855469 c 0
 640.6328125 1280.45214844 587.987304688 1291 534.112304688 1291 c 0
 474.172851562 1290.99316406 413.116210938 1278.11816406 355.248046875 1255.19921875 c 0
 297.893554688 1232.484375 243.092773438 1199.83691406 191.595703125 1160.94726562 c 1
EndSplineSet
Fore
SplineSet
533 1295 m 0xf0
 393.298828125 1295 280.375 1229.96875 189 1164 c 1
 103 1278 l 1
 210.666992188 1359.4375 360.549804688 1435 533 1435 c 0
 774 1435 968 1285 968 1048 c 0xf0
 968 903 894 794 783 733 c 1
 915 667 992 545 992 391 c 0
 992 151 800 -19 534 -19 c 0
 348.9375 -19 196.30078125 58.5751953125 90 138 c 1
 177 252 l 1
 269.458984375 181.90625 386.58203125 121 534 121 c 0
 727 121 836 240 836 391 c 0xe8
 836 474 802 557 727 607 c 0
 646 661 567 661 486 661 c 2
 353 661 l 1
 353 801 l 1
 489 801 l 2
 556 801 644 801 718 855 c 0
 773 895 812 961 812 1048 c 0
 812 1206 691 1295 533 1295 c 0xf0
EndSplineSet
Layer: 2
SplineSet
486 661 m 5
 403 661 l 4
 402 661 404 801 403 801 c 4
 486 801 l 4
 487 801 486 661 486 661 c 5
197.220703125 1166.43945312 m 5
 96.779296875 1273.56054688 l 5
 156.817382812 1318.90039062 223.185546875 1359.00097656 296.5078125 1388.04101562 c 4
 370.579101562 1417.37695312 451.19140625 1434.99023438 534.112304688 1435 c 4
 608.436523438 1435 685.282226562 1420.70410156 755.311523438 1386.47167969 c 4
 814.508789062 1357.53320312 867.0859375 1314.48535156 904.541992188 1259.52246094 c 4
 947.912109375 1195.88183594 968 1121.59765625 968 1048.38964844 c 5
 967.95703125 978.60546875 949.857421875 908.107421875 910.82421875 846.4296875 c 4
 882.129882812 801.088867188 842.837890625 762.771484375 797.821289062 733.498046875 c 5
 848.965820312 703.112304688 890.537109375 665.467773438 923.357421875 617.791992188 c 4
 970.202148438 549.743164062 992 469.859375 992 391.137695312 c 4
 991.982421875 308.943359375 968.189453125 225.501953125 917.266601562 155.669921875 c 4
 874.1640625 96.560546875 814.272460938 51.5810546875 747.784179688 22.90625 c 4
 679.009765625 -6.7529296875 605.271484375 -19 533.71484375 -19 c 4
 450.78515625 -19 369.548828125 -2.7021484375 294.1484375 25.3291015625 c 4
 217.30078125 53.8984375 146.806640625 94.53125 83.5869140625 142.5859375 c 5
 184.413085938 249.415039062 l 5
 237.08203125 209.37890625 294.25390625 176.827148438 353.8515625 154.670898438 c 4
 412.447265625 132.88671875 473.689453125 121 533.71484375 121 c 4
 585.580078125 121 635.78125 129.9296875 680.215820312 149.092773438 c 4
 722.299804688 167.2421875 760.169921875 195.903320312 786.733398438 232.331054688 c 4
 818.357421875 275.69921875 835.98828125 333.166992188 836 391.1640625 c 4
 836 446.61328125 819.877929688 501.741210938 790.642578125 544.208984375 c 4
 764.435546875 582.278320312 726.178710938 612.385742188 683.58203125 631.18359375 c 4
 661.571289062 640.896484375 637.702148438 647.682617188 611.731445312 652.303710938 c 4
 573.471679688 659.112304688 530.830078125 661 486 661 c 4
 403 661 l 4
 404 661 402 801 403 801 c 4
 489 801 l 4
 532.372070312 801 573.515625 802.999023438 610.015625 809.905273438 c 4
 635.327148438 814.694335938 658.301757812 821.71484375 679.288085938 831.76171875 c 4
 717.88671875 850.239257812 752.283203125 879.397460938 775.17578125 915.5703125 c 4
 798.989257812 953.198242188 811.970703125 1000.44726562 812 1048.44726562 c 4
 812 1098.47949219 797.506835938 1148.25390625 771.458007812 1186.47753906 c 4
 749.11328125 1219.265625 716.893554688 1245.83007812 680.688476562 1263.52832031 c 4
 637.034179688 1284.86816406 586.329101562 1295 534.112304688 1295 c 4
 476.03515625 1294.99316406 416.461914062 1282.52246094 359.4921875 1259.95898438 c 4
 303.033203125 1237.59863281 248.577148438 1205.22265625 197.220703125 1166.43945312 c 5
EndSplineSet
EndChar
StartChar: uni0418
Encoding: 1048 1048 624
Width: 1254
VWidth: 0
Flags: W
HStem: 0 21G<160 327.933 938 1094>
VStem: 160 156<280 1416> 938 156<0 1136>
LayerCount: 5
Back
Fore
SplineSet
316 1416 m 1
 316 280 l 1
 937 1416 l 1
 1094 1416 l 1
 1094 0 l 1
 938 0 l 1
 938 1136 l 1
 317 0 l 1
 160 0 l 1
 160 1416 l 1
 316 1416 l 1
EndSplineSet
Validated: 1
Layer: 2
Layer: 3
Layer: 4
EndChar
StartChar: uni041A
Encoding: 1050 1050 655
Width: 1179
Flags: W
HStem: 0 21G<180 336 930.012 1129> 662 133<336 479> 1396 20G<180 336 915.475 1111>
VStem: 180 156<0 662 795 1416>
AnchorPoint: "Bottom" 614 0 basechar 0
LayerCount: 3
Back
SplineSet
1079 1500 m 5
 513 736 l 29
 1306 -380 l 1029
257 0 m 29
 257 1416 l 1053
EndSplineSet
Fore
SplineSet
336 795 m 5
 479 795 l 5
 930 1416 l 5
 1111 1416 l 5
 606 735 l 5
 1129 0 l 5
 944 0 l 5
 481 662 l 5
 336 662 l 5
 336 0 l 5
 180 0 l 5
 180 1416 l 5
 336 1416 l 5
 336 795 l 5
EndSplineSet
Layer: 2
EndChar
StartChar: uni041B
Encoding: 1051 1051 683
Width: 1330
VWidth: 0
Flags: W
HStem: -14 140<102.328 269.999> 1276 140<576 1014>
VStem: 420 156<921.687 1276> 1014 156<-13 1276>
LayerCount: 3
Back
Fore
SplineSet
80 -8 m 1
 104 131 l 1
 124 128 143 126 161 126 c 0
 268 126 307 208 336 292 c 0
 410 505 420 1018 420 1416 c 1
 1170 1416 l 1
 1170 -13 l 1
 1014 -13 l 1
 1014 1276 l 1
 576 1276 l 1
 573 937 560 483 485 251 c 0
 441 113 350 -14 172 -14 c 0
 136 -14 109 -12 80 -8 c 1
EndSplineSet
Validated: 1
Layer: 2
EndChar
StartChar: uni041F
Encoding: 1055 1055 628
Width: 1220
VWidth: 0
Flags: W
HStem: 0 21G<160 316 904 1060> 1276 140<316 904>
VStem: 160 156<0 1276> 904 156<0 1276>
LayerCount: 5
Back
Fore
SplineSet
160 1416 m 1
 1060 1416 l 5
 1060 0 l 5
 904 0 l 5
 904 1276 l 5
 316 1276 l 1
 316 0 l 1
 160 0 l 1
 160 1416 l 1
EndSplineSet
Validated: 1
Layer: 2
Layer: 3
Layer: 4
EndChar
StartChar: uni0423
Encoding: 1059 1059 684
Width: 1130
Flags: W
HStem: -19 140<139.548 419.422> 1396 20G<50 228.125 917.435 1090>
AnchorPoint: "Top" 574 1416 basechar 0
LayerCount: 3
Back
Fore
SplineSet
534 387 m 1
 50 1416 l 1
 219 1416 l 1
 605 570 l 1
 925 1416 l 1
 1090 1416 l 1
 642 248 l 2
 615 177 585 114 525 62 c 0
 462 7 378 -19 297 -19 c 0
 220 -19 155 2 99 24 c 1
 154 155 l 1
 195 138 245 121 297 121 c 0
 342 121 386 135 419 163 c 0
 459 197 476 240 498 294 c 2
 534 387 l 1
EndSplineSet
Validated: 1
Layer: 2
SplineSet
1001.24609375 1615.78125 m 1
 1148.75390625 1570.21972656 l 1
 641.75390625 248.21875 l 0
 630.388671875 218.5859375 617.84765625 186.061523438 598.991210938 153.15625 c 0
 580.149414062 120.275390625 555.88671875 88.841796875 524.693359375 61.939453125 c 0
 461.49609375 7.435546875 378.543945312 -19 297.25390625 -19 c 0
 258.036132812 -19 220.330078125 -13.3466796875 184.854492188 -4.3779296875 c 0
 152.780273438 3.728515625 122.4375 14.5244140625 93.7021484375 26.69921875 c 0
 62.9384765625 39.732421875 33.26171875 54.66796875 4.7451171875 71.1611328125 c 1
 89.2548828125 188.838867188 l 1
 112.38671875 175.459960938 136.122070312 163.543945312 160.297851562 153.301757812 c 0
 182.859375 143.7421875 205.206054688 135.923828125 227.145507812 130.37890625 c 0
 251.3203125 124.267578125 274.852539062 121 297.25390625 121 c 0
 341.290039062 121 384.89453125 135.5390625 416.599609375 162.8828125 c 0
 432.921875 176.959960938 447.907226562 195.625 460.262695312 217.184570312 c 0
 472.603515625 238.721679688 483.142578125 264.829101562 494.24609375 293.78125 c 0
 1001.24609375 1615.78125 l 1
682.946289062 422.037109375 m 1
 539.053710938 367.961914062 l 1
 -19.9462890625 1565.96289062 l 1
 123.946289062 1620.03808594 l 1
 682.946289062 422.037109375 l 1
EndSplineSet
EndChar
StartChar: uni0426
Encoding: 1062 1062 685
Width: 1301
VWidth: 0
Flags: W
HStem: 0 140<336 908 1064 1065> 1396 20G<180 336 908 1064>
VStem: 180 156<140 1416> 908 156<140 1416> 1085 136<-264 -74.7648>
LayerCount: 3
Back
Fore
SplineSet
908 140 m 1
 908 1416 l 1
 1064 1416 l 1
 1064 140 l 1
 1221 140 l 1
 1221 -264 l 1
 1085 -264 l 5
 1065 0 l 1
 180 0 l 1
 180 1416 l 1
 336 1416 l 1
 336 140 l 1
 908 140 l 1
EndSplineSet
Validated: 1
Layer: 2
EndChar
StartChar: uni0427
Encoding: 1063 1063 686
Width: 1186
Flags: W
HStem: 0 21G<850 1006> 530 140<407.7 737.599> 1396 20G<140 296 850 1006>
VStem: 140 156<779.361 1416> 850 156<0 645 779.566 1416>
LayerCount: 3
Back
Fore
SplineSet
850 645 m 1
 767 566 668 530 553 530 c 0
 419 530 310 583 239 662 c 0
 140 772 140 895 140 985 c 2
 140 1416 l 1
 296 1416 l 1
 296 985 l 2
 296 911 296 823 362 752 c 0
 408 702 482 670 573 670 c 0
 664 670 738 702 784 752 c 0
 850 824 850 909 850 985 c 2
 850 1416 l 1
 1006 1416 l 1
 1006 0 l 1
 850 0 l 1
 850 645 l 1
EndSplineSet
Validated: 1
Layer: 2
EndChar
StartChar: uni0428
Encoding: 1064 1064 656
Width: 1664
VWidth: 0
Flags: W
HStem: 0 140<336 754 910 1328> 1396 20G<180 336 754 910 1328 1484>
VStem: 180 156<140 1416> 754 156<140 1416> 1328 156<140 1416>
CounterMasks: 1 38
LayerCount: 3
Back
Fore
SplineSet
180 0 m 5
 180 1416 l 5
 336 1416 l 5
 336 140 l 5
 754 140 l 5
 754 1416 l 5
 910 1416 l 5
 910 140 l 5
 1328 140 l 5
 1328 1416 l 5
 1484 1416 l 5
 1484 0 l 5
 180 0 l 5
EndSplineSet
Validated: 1
Layer: 2
EndChar
StartChar: uni0429
Encoding: 1065 1065 657
Width: 1721
VWidth: 0
Flags: W
HStem: 0 140<336 754 910 1328 1484 1485> 1396 20G<180 336 754 910 1328 1484>
VStem: 180 156<140 1416> 754 156<140 1416> 1328 156<140 1416> 1485 156<-264 0>
LayerCount: 3
Back
Fore
SplineSet
180 1416 m 1
 336 1416 l 1
 336 140 l 1
 754 140 l 1
 754 1416 l 1
 910 1416 l 1
 910 140 l 1
 1328 140 l 1
 1328 1416 l 1
 1484 1416 l 1
 1484 140 l 1
 1641 140 l 1
 1641 -264 l 1
 1485 -264 l 1
 1485 0 l 1
 180 0 l 1
 180 1416 l 1
EndSplineSet
Validated: 1
Layer: 2
EndChar
StartChar: uni042A
Encoding: 1066 1066 688
Width: 1186
Flags: W
HStem: 0 140<376 792.375> 760 140<376 792.375> 1276 140<-37 220>
VStem: 220 156<140 760 900 1276> 930 156<278.316 621.684>
LayerCount: 3
Back
Fore
SplineSet
572 140 m 6
 653 140 749 140 828 208 c 4
 887 259 930 344 930 450 c 4
 930 556 887 641 828 692 c 4
 749 760 653 760 572 760 c 6
 376 760 l 5
 376 140 l 5
 572 140 l 6
-37 1416 m 1
 376 1416 l 5
 376 900 l 5
 572 900 l 6
 655 900 770 900 881 833 c 4
 1000 761 1086 625 1086 450 c 4
 1086 275 1000 139 881 67 c 4
 770 0 655 0 572 0 c 6
 220 0 l 5
 220 1276 l 5
 -37 1276 l 1
 -37 1416 l 1
376 140 m 1029
EndSplineSet
Layer: 2
EndChar
StartChar: uni042B
Encoding: 1067 1067 658
Width: 1464
Flags: W
HStem: 0 140<336 687.978> 652 140<336 687.978> 1396 20G<180 336 1128 1284>
VStem: 180 156<140 652 792 1416> 790 156<240.785 551.215> 1128 156<0 1416>
AnchorPoint: "DoubleTop" 30 0 basechar 0
AnchorPoint: "Apos" 30 0 basechar 0
AnchorPoint: "Center" 20 0 basechar 0
AnchorPoint: "Bottom" 257 0 basechar 0
AnchorPoint: "Top" 258 1416 basechar 0
LayerCount: 5
Back
Fore
SplineSet
1284 1416 m 5
 1284 0 l 5
 1128 0 l 5
 1128 1416 l 5
 1284 1416 l 5
790 396 m 0
 790 471 761 581 653 629 c 0
 601 652 543 652 462 652 c 2
 336 652 l 1
 336 140 l 1
 462 140 l 2
 543 140 601 140 653 163 c 0
 761 211 790 321 790 396 c 0
336 792 m 1
 462 792 l 2
 540 792 604 792 671 773 c 0
 855 721 946 559 946 396 c 0
 946 233 855 71 671 19 c 0
 604 0 540 0 462 0 c 2
 180 0 l 1
 180 1416 l 1
 336 1416 l 1
 336 792 l 1
EndSplineSet
Layer: 2
Layer: 3
Layer: 4
EndChar
StartChar: uni042C
Encoding: 1068 1068 659
Width: 1146
Flags: W
HStem: 0 140<502 753.654> 760 140<502 753.654>
VStem: 890 156<278.186 621.814>
LayerCount: 3
Back
Fore
SplineSet
502 140 m 6
 336 140 l 5
 336 760 l 5
 502 760 l 6
 588 760 649 760 707 739 c 4
 834 693 890 568 890 450 c 4
 890 332 834 207 707 161 c 4
 649 140 588 140 502 140 c 6
502 0 m 6
 585 0 647 0 715 16 c 4
 927 66 1046 247 1046 450 c 4
 1046 653 927 834 715 884 c 4
 647 900 585 900 502 900 c 6
 336 900 l 5
 336 1416 l 5
 180 1416 l 5
 180 0 l 5
 502 0 l 6
EndSplineSet
Layer: 2
EndChar
StartChar: uni042D
Encoding: 1069 1069 660
Width: 1114
Flags: W
HStem: -19 140<290.989 668.929> 220 20G<156.828 212> 652 140<336 827> 1194 21G<188.667 242> 1295 140<298.598 667.549>
VStem: 828 156<308.386 652 792 1109.25>
LayerCount: 5
Back
Fore
SplineSet
496 1435 m 0
 705 1435 852 1334 923 1178 c 0
 980 1053 984 876 984 708 c 0
 984 543 981 367 923 238 c 0
 855 86 710 -19 496 -19 c 0
 328 -19 187 43 84 124 c 1
 172 240 l 1
 252 172 366 121 496 121 c 0
 641 121 732 186 778 291 c 0
 819 386 827 519 828 652 c 1
 336 652 l 1
 336 792 l 1
 827 792 l 1
 825 915 816 1037 778 1125 c 0
 732 1230 641 1295 496 1295 c 0
 376 1295 282 1251 202 1194 c 1
 122 1314 l 1
 217 1381 342 1435 496 1435 c 0
EndSplineSet
Validated: 1
Layer: 2
Layer: 3
Layer: 4
EndChar
